999
"DXF R12 Output" (www.mydxf.blogspot.com)
 0 
SECTION
 2 
HEADER
 9 
$ACADVER
 1 
AC1009
 9 
$EXTMIN
 10 
 0 
 20 
 0 
 9 
$EXTMAX
 10 
 8.5 
 20 
 11 
 0 
ENDSEC
 0 
SECTION
 2 
ENTITIES
0
LINE
8
Layer 1
10
0.793749
20
297.793749
11
-0.793749
21
296.206251
0
LINE
8
Layer 1
10
0.000000
20
298.322915
11
0.000000
21
295.677085
0
LINE
8
Layer 1
10
2.116664
20
295.941668
11
1.058332
21
294.883336
0
LINE
8
Layer 1
10
1.587498
20
296.470834
11
0.529166
21
295.412502
0
LINE
8
Layer 1
10
1.058332
20
297.000000
11
0.000000
21
295.941668
0
LINE
8
0
10
85.999892
20
6.000367
11
85.999892
21
2.000372
0
LINE
8
0
10
85.999892
20
2.000372
11
35.999955
21
2.000372
0
LINE
8
0
10
35.999955
20
2.000372
11
35.999955
21
6.000367
0
LINE
8
0
10
35.999955
20
6.000367
11
85.999892
21
6.000367
0
LINE
8
0
10
85.999892
20
6.000367
11
85.999892
21
6.000367
0
LINE
8
0
10
63.999919
20
307.999986
11
57.999927
21
307.999986
0
LINE
8
0
10
57.999927
20
307.999986
11
57.999927
21
311.999981
0
LINE
8
0
10
57.999927
20
311.999981
11
63.999919
21
311.999981
0
LINE
8
0
10
63.999919
20
311.999981
11
63.999919
21
307.999986
0
LINE
8
0
10
63.999919
20
307.999986
11
63.999919
21
307.999986
0
LINE
8
0
10
121.999846
20
0.000374
11
121.999846
21
303.999991
0
LINE
8
0
10
121.999846
20
303.999991
11
65.999917
21
303.999991
0
LINE
8
0
10
65.999917
20
303.999991
11
65.999917
21
311.999981
0
LINE
8
0
10
65.999917
20
311.999981
11
65.847676
21
312.765347
0
LINE
8
0
10
65.847676
20
312.765347
11
65.414131
21
313.414193
0
LINE
8
0
10
65.414131
20
313.414193
11
64.765285
21
313.847738
0
LINE
8
0
10
64.765285
20
313.847738
11
63.999919
21
313.999979
0
LINE
8
0
10
63.999919
20
313.999979
11
57.999927
21
313.999979
0
LINE
8
0
10
57.999927
20
313.999979
11
57.234561
21
313.847738
0
LINE
8
0
10
57.234561
20
313.847738
11
56.585715
21
313.414193
0
LINE
8
0
10
56.585715
20
313.414193
11
56.152170
21
312.765347
0
LINE
8
0
10
56.152170
20
312.765347
11
55.999929
21
311.999981
0
LINE
8
0
10
55.999929
20
311.999981
11
55.999929
21
303.999991
0
LINE
8
0
10
55.999929
20
303.999991
11
0.000000
21
303.999991
0
LINE
8
0
10
0.000000
20
303.999991
11
0.000000
21
0.000374
0
LINE
8
0
10
0.000000
20
0.000374
11
121.999846
21
0.000374
0
LINE
8
0
10
121.999846
20
0.000374
11
121.999846
21
0.000374
0
LINE
8
0
10
74.320507
20
244.013706
11
74.468869
21
245.089078
0
LINE
8
0
10
74.468869
20
245.089078
11
74.913958
21
245.974139
0
LINE
8
0
10
74.913958
20
245.974139
11
75.633261
21
246.638186
0
LINE
8
0
10
75.633261
20
246.638186
11
76.604268
21
247.050535
0
LINE
8
0
10
76.604268
20
247.050535
11
75.806181
21
247.457763
0
LINE
8
0
10
75.806181
20
247.457763
11
75.245474
21
248.008242
0
LINE
8
0
10
75.245474
20
248.008242
11
74.913958
21
248.691735
0
LINE
8
0
10
74.913958
20
248.691735
11
74.803456
21
249.498009
0
LINE
8
0
10
74.803456
20
249.498009
11
75.038794
21
250.703332
0
LINE
8
0
10
75.038794
20
250.703332
11
75.744789
21
251.699921
0
LINE
8
0
10
75.744789
20
251.699921
11
76.841646
21
252.369085
0
LINE
8
0
10
76.841646
20
252.369085
11
78.249564
21
252.592139
0
LINE
8
0
10
78.249564
20
252.592139
11
79.667704
21
252.363968
0
LINE
8
0
10
79.667704
20
252.363968
11
80.778886
21
251.679455
0
LINE
8
0
10
80.778886
20
251.679455
11
81.497169
21
250.667517
0
LINE
8
0
10
81.497169
20
250.667517
11
81.736593
21
249.457082
0
LINE
8
0
10
81.736593
20
249.457082
11
81.627111
21
248.676386
0
LINE
8
0
10
81.627111
20
248.676386
11
81.298666
21
248.004151
0
LINE
8
0
10
81.298666
20
248.004151
11
80.747167
21
247.456743
0
LINE
8
0
10
80.747167
20
247.456743
11
79.968521
21
247.050535
0
LINE
8
0
10
79.968521
20
247.050535
11
80.941578
21
246.579869
0
LINE
8
0
10
80.941578
20
246.579869
11
81.650648
21
245.888194
0
LINE
8
0
10
81.650648
20
245.888194
11
82.083453
21
245.008249
0
LINE
8
0
10
82.083453
20
245.008249
11
82.227725
21
243.972779
0
LINE
8
0
10
82.227725
20
243.972779
11
81.955556
21
242.556680
0
LINE
8
0
10
81.955556
20
242.556680
11
81.139050
21
241.386151
0
LINE
8
0
10
81.139050
20
241.386151
11
79.878485
21
240.600339
0
LINE
8
0
10
79.878485
20
240.600339
11
79.098332
21
240.410780
0
LINE
8
0
10
79.098332
20
240.410780
11
78.274121
21
240.338403
0
LINE
8
0
10
78.274121
20
240.338403
11
77.449786
21
240.411176
0
LINE
8
0
10
77.449786
20
240.411176
11
76.669756
21
240.601364
0
LINE
8
0
10
76.669756
20
240.601364
11
75.409182
21
241.390242
0
LINE
8
0
10
75.409182
20
241.390242
11
74.592676
21
242.572029
0
LINE
8
0
10
74.592676
20
242.572029
11
74.403365
21
243.270640
0
LINE
8
0
10
74.403365
20
243.270640
11
74.320507
21
244.013706
0
LINE
8
0
10
59.602927
20
240.338403
11
58.798465
21
240.429451
0
LINE
8
0
10
58.798465
20
240.429451
11
58.053819
21
240.649453
0
LINE
8
0
10
58.053819
20
240.649453
11
57.438464
21
241.057779
0
LINE
8
0
10
57.438464
20
241.057779
11
56.877148
21
241.582603
0
LINE
8
0
10
56.877148
20
241.582603
11
55.986971
21
243.551223
0
LINE
8
0
10
55.986971
20
243.551223
11
55.740638
21
244.979809
0
LINE
8
0
10
55.740638
20
244.979809
11
55.690245
21
246.461180
0
LINE
8
0
10
55.690245
20
246.461180
11
55.799727
21
248.381710
0
LINE
8
0
10
55.799727
20
248.381710
11
56.128171
21
249.886821
0
LINE
8
0
10
56.128171
20
249.886821
11
56.672509
21
251.035869
0
LINE
8
0
10
56.672509
20
251.035869
11
57.429668
21
251.888185
0
LINE
8
0
10
57.429668
20
251.888185
11
58.404771
21
252.416148
0
LINE
8
0
10
58.404771
20
252.416148
11
59.602927
21
252.592139
0
LINE
8
0
10
59.602927
20
252.592139
11
60.509470
21
252.494936
0
LINE
8
0
10
60.509470
20
252.494936
11
61.297328
21
252.203327
0
LINE
8
0
10
61.297328
20
252.203327
11
61.962405
21
251.728569
0
LINE
8
0
10
61.962405
20
251.728569
11
62.500606
21
251.081912
0
LINE
8
0
10
62.500606
20
251.081912
11
62.924204
21
250.269497
0
LINE
8
0
10
62.924204
20
250.269497
11
63.245486
21
249.297465
0
LINE
8
0
10
63.245486
20
249.297465
11
63.448080
21
248.062473
0
LINE
8
0
10
63.448080
20
248.062473
11
63.515610
21
246.461180
0
LINE
8
0
10
63.515610
20
246.461180
11
63.407148
21
244.552927
0
LINE
8
0
10
63.407148
20
244.552927
11
63.081774
21
243.051908
0
LINE
8
0
10
63.081774
20
243.051908
11
62.540507
21
241.901840
0
LINE
8
0
10
62.540507
20
241.901840
11
61.784369
21
241.046453
0
LINE
8
0
10
61.784369
20
241.046453
11
60.807226
21
240.515414
0
LINE
8
0
10
60.807226
20
240.515414
11
59.602927
21
240.338403
0
LINE
8
0
10
39.130920
20
243.825437
11
38.418779
21
240.338403
0
LINE
8
0
10
38.418779
20
240.338403
11
37.190949
21
240.338403
0
LINE
8
0
10
37.190949
20
240.338403
11
37.903090
21
243.825437
0
LINE
8
0
10
37.903090
20
243.825437
11
36.519737
21
243.825437
0
LINE
8
0
10
36.519737
20
243.825437
11
36.519737
21
245.045085
0
LINE
8
0
10
36.519737
20
245.045085
11
38.148656
21
245.045085
0
LINE
8
0
10
38.148656
20
245.045085
11
38.754386
21
248.016430
0
LINE
8
0
10
38.754386
20
248.016430
11
36.519737
21
248.016430
0
LINE
8
0
10
36.519737
20
248.016430
11
36.519737
21
249.236073
0
LINE
8
0
10
36.519737
20
249.236073
11
38.999950
21
249.236073
0
LINE
8
0
10
38.999950
20
249.236073
11
39.712091
21
252.747664
0
LINE
8
0
10
39.712091
20
252.747664
11
40.939921
21
252.747664
0
LINE
8
0
10
40.939921
20
252.747664
11
40.227780
21
249.236073
0
LINE
8
0
10
40.227780
20
249.236073
11
42.806221
21
249.236073
0
LINE
8
0
10
42.806221
20
249.236073
11
43.518362
21
252.747664
0
LINE
8
0
10
43.518362
20
252.747664
11
44.754377
21
252.747664
0
LINE
8
0
10
44.754377
20
252.747664
11
44.042236
21
249.236073
0
LINE
8
0
10
44.042236
20
249.236073
11
45.458334
21
249.236073
0
LINE
8
0
10
45.458334
20
249.236073
11
45.458334
21
248.016430
0
LINE
8
0
10
45.458334
20
248.016430
11
43.796670
21
248.016430
0
LINE
8
0
10
43.796670
20
248.016430
11
43.182755
21
245.045085
0
LINE
8
0
10
43.182755
20
245.045085
11
45.458334
21
245.045085
0
LINE
8
0
10
45.458334
20
245.045085
11
45.458334
21
243.825437
0
LINE
8
0
10
45.458334
20
243.825437
11
42.937189
21
243.825437
0
LINE
8
0
10
42.937189
20
243.825437
11
42.225048
21
240.338403
0
LINE
8
0
10
42.225048
20
240.338403
11
40.997220
21
240.338403
0
LINE
8
0
10
40.997220
20
240.338403
11
41.701176
21
243.825437
0
LINE
8
0
10
41.701176
20
243.825437
11
39.130920
21
243.825437
0
LINE
8
0
10
39.130920
20
243.825437
11
39.130920
21
243.825437
0
LINE
8
0
10
86.557799
20
267.964662
11
86.557799
21
259.271523
0
LINE
8
0
10
86.557799
20
259.271523
11
85.239911
21
259.271523
0
LINE
8
0
10
85.239911
20
259.271523
11
85.239911
21
260.548400
0
LINE
8
0
10
85.240002
20
260.548474
11
84.678142
21
259.926893
0
LINE
8
0
10
84.678142
20
259.926893
11
84.042870
21
259.443427
0
LINE
8
0
10
84.042870
20
259.443427
11
83.297765
21
259.192294
0
LINE
8
0
10
83.297765
20
259.192294
11
82.481479
21
259.075080
0
LINE
8
0
10
82.481479
20
259.075080
11
81.737623
21
259.148749
0
LINE
8
0
10
81.737623
20
259.148749
11
81.044922
21
259.369758
0
LINE
8
0
10
81.044922
20
259.369758
11
80.463749
21
259.702297
0
LINE
8
0
10
80.463749
20
259.702297
11
80.054471
21
260.110550
0
LINE
8
0
10
80.054471
20
260.110550
11
79.779232
21
260.606799
0
LINE
8
0
10
79.779232
20
260.606799
11
79.600174
21
261.203316
0
LINE
8
0
10
79.600174
20
261.203316
11
79.532645
21
261.764026
0
LINE
8
0
10
79.532645
20
261.764026
11
79.510133
21
262.578487
0
LINE
8
0
10
79.510102
20
262.578545
11
79.510102
21
267.964662
0
LINE
8
0
10
79.510102
20
267.964662
11
80.983565
21
267.964662
0
LINE
8
0
10
80.983565
20
267.964662
11
80.983565
21
263.143166
0
LINE
8
0
10
80.983530
20
263.143288
11
81.006041
21
262.177393
0
LINE
8
0
10
81.006041
20
262.177393
11
81.073571
21
261.588037
0
LINE
8
0
10
81.073571
20
261.588037
11
81.290489
21
261.069277
0
LINE
8
0
10
81.290489
20
261.069277
11
81.662926
21
260.675351
0
LINE
8
0
10
81.662926
20
260.675351
11
82.166337
21
260.426717
0
LINE
8
0
10
82.166337
20
260.426717
11
82.776159
21
260.343837
0
LINE
8
0
10
82.776159
20
260.343837
11
83.418720
21
260.428762
0
LINE
8
0
10
83.418720
20
260.428762
11
84.020359
21
260.683536
0
LINE
8
0
10
84.020359
20
260.683536
11
84.516607
21
261.084627
0
LINE
8
0
10
84.516607
20
261.084627
11
84.843007
21
261.608501
0
LINE
8
0
10
84.843007
20
261.608501
11
85.024109
21
262.325759
0
LINE
8
0
10
85.024109
20
262.325759
11
85.084477
21
263.306997
0
LINE
8
0
10
85.084601
20
263.306942
11
85.084601
21
267.964662
0
LINE
8
0
10
85.084601
20
267.964662
11
86.557799
21
267.964662
0
LINE
8
0
10
67.436479
20
264.723095
11
67.436479
21
259.271532
0
LINE
8
0
10
67.436479
20
259.271532
11
65.848485
21
259.271532
0
LINE
8
0
10
65.848485
20
259.271532
11
65.848485
21
271.271518
0
LINE
8
0
10
65.848485
20
271.271518
11
73.943973
21
271.271518
0
LINE
8
0
10
73.943973
20
271.271518
11
73.943973
21
269.855420
0
LINE
8
0
10
73.943973
20
269.855420
11
67.436479
21
269.855420
0
LINE
8
0
10
67.436479
20
269.855420
11
67.436479
21
266.139190
0
LINE
8
0
10
67.436479
20
266.139190
11
73.068119
21
266.139190
0
LINE
8
0
10
73.068119
20
266.139190
11
73.068119
21
264.723095
0
LINE
8
0
10
73.068119
20
264.723095
11
67.436479
21
264.723095
0
LINE
8
0
10
67.436479
20
264.723095
11
67.436479
21
264.723095
0
LINE
8
0
10
24.069547
20
279.154183
11
25.301470
21
279.346543
0
LINE
8
0
10
25.301470
20
279.346543
11
26.328754
21
279.923623
0
LINE
8
0
10
26.328754
20
279.923623
11
27.104332
21
280.879283
0
LINE
8
0
10
27.104332
20
280.879283
11
27.581140
21
282.207385
0
LINE
8
0
10
27.581190
20
282.207376
11
29.169217
21
281.806295
0
LINE
8
0
10
29.169132
20
281.806294
11
28.871426
21
280.912477
0
LINE
8
0
10
28.871426
20
280.912477
11
28.470292
21
280.082217
0
LINE
8
0
10
28.470292
20
280.082217
11
27.372408
21
278.822669
0
LINE
8
0
10
27.372408
20
278.822669
11
25.930732
21
278.052207
0
LINE
8
0
10
25.930732
20
278.052207
11
25.083800
21
277.868780
0
LINE
8
0
10
25.083800
20
277.868780
11
24.200516
21
277.795386
0
LINE
8
0
10
24.200516
20
277.795386
11
22.441650
21
277.992863
0
LINE
8
0
10
22.441650
20
277.992863
11
21.044995
21
278.585289
0
LINE
8
0
10
21.044995
20
278.585289
11
19.974736
21
279.552204
0
LINE
8
0
10
19.974736
20
279.552204
11
19.195065
21
280.873144
0
LINE
8
0
10
19.195065
20
280.873144
11
18.719281
21
282.426348
0
LINE
8
0
10
18.719281
20
282.426348
11
18.560687
21
284.090057
0
LINE
8
0
10
18.560687
20
284.090057
11
18.739745
21
285.844830
0
LINE
8
0
10
18.739745
20
285.844830
11
19.276920
21
287.360176
0
LINE
8
0
10
19.276920
20
287.360176
11
20.144587
21
288.588005
0
LINE
8
0
10
20.144587
20
288.588005
11
21.315117
21
289.480227
0
LINE
8
0
10
21.315117
20
289.480227
11
22.703587
21
290.023542
0
LINE
8
0
10
22.703587
20
290.023542
11
24.225073
21
290.204647
0
LINE
8
0
10
24.225073
20
290.204647
11
25.882643
21
289.975452
0
LINE
8
0
10
25.882643
20
289.975452
11
27.253718
21
289.287868
0
LINE
8
0
10
27.253718
20
289.287868
11
28.295326
21
288.184868
0
LINE
8
0
10
28.295326
20
288.184868
11
28.964494
21
286.709427
0
LINE
8
0
10
28.964430
20
286.709415
11
27.401009
21
286.341089
0
LINE
8
0
10
27.401058
20
286.341078
11
26.889462
21
287.472727
0
LINE
8
0
10
26.889462
20
287.472727
11
26.189600
21
288.248306
0
LINE
8
0
10
26.189600
20
288.248306
11
25.293283
21
288.696464
0
LINE
8
0
10
25.293283
20
288.696464
11
24.192330
21
288.845850
0
LINE
8
0
10
24.192330
20
288.845850
11
22.922550
21
288.680093
0
LINE
8
0
10
22.922550
20
288.680093
11
21.879919
21
288.182822
0
LINE
8
0
10
21.879919
20
288.182822
11
21.088992
21
287.406219
0
LINE
8
0
10
21.088992
20
287.406219
11
20.574327
21
286.402469
0
LINE
8
0
10
20.574327
20
286.402469
11
20.291926
21
285.267750
0
LINE
8
0
10
20.291926
20
285.267750
11
20.197793
21
284.098243
0
LINE
8
0
10
20.197793
20
284.098243
11
20.309320
21
282.664752
0
LINE
8
0
10
20.309320
20
282.664752
11
20.643903
21
281.425667
0
LINE
8
0
10
20.643903
20
281.425667
11
21.213822
21
280.428056
0
LINE
8
0
10
21.213822
20
280.428056
11
22.031351
21
279.718985
0
LINE
8
0
10
22.031351
20
279.718985
11
23.011569
21
279.295383
0
LINE
8
0
10
23.011569
20
279.295383
11
24.069547
21
279.154183
0
LINE
8
0
10
41.267341
20
260.286538
11
42.018361
21
260.392951
0
LINE
8
0
10
42.018361
20
260.392951
11
42.650694
21
260.712184
0
LINE
8
0
10
42.650694
20
260.712184
11
43.164335
21
261.264706
0
LINE
8
0
10
43.164335
20
261.264706
11
43.559289
21
262.070982
0
LINE
8
0
10
43.559358
20
262.071075
11
45.081768
21
261.882692
0
LINE
8
0
10
45.081795
20
261.882715
11
44.568156
21
260.697860
0
LINE
8
0
10
44.568156
20
260.697860
11
43.747554
21
259.811776
0
LINE
8
0
10
43.747554
20
259.811776
11
42.638418
21
259.259254
0
LINE
8
0
10
42.638418
20
259.259254
11
41.259153
21
259.075080
0
LINE
8
0
10
41.259153
20
259.075080
11
40.377946
21
259.156020
0
LINE
8
0
10
40.377946
20
259.156020
11
39.549404
21
259.368735
0
LINE
8
0
10
39.549404
20
259.368735
11
38.870086
21
259.754380
0
LINE
8
0
10
38.870086
20
259.754380
11
38.234603
21
260.249703
0
LINE
8
0
10
38.234603
20
260.249703
11
37.396610
21
261.660683
0
LINE
8
0
10
37.396610
20
261.660683
11
37.187144
21
262.577717
0
LINE
8
0
10
37.187144
20
262.577717
11
37.117277
21
263.544379
0
LINE
8
0
10
37.117277
20
263.544379
11
37.187050
21
264.543346
0
LINE
8
0
10
37.187050
20
264.543346
11
37.399677
21
265.492533
0
LINE
8
0
10
37.399677
20
265.492533
11
38.246882
21
266.949559
0
LINE
8
0
10
38.246882
20
266.949559
11
38.871791
21
267.460580
0
LINE
8
0
10
38.871791
20
267.460580
11
39.544287
21
267.858152
0
LINE
8
0
10
39.544287
20
267.858152
11
40.334633
21
268.071954
0
LINE
8
0
10
40.334633
20
268.071954
11
41.177300
21
268.161017
0
LINE
8
0
10
41.177300
20
268.161017
11
41.994714
21
268.073010
0
LINE
8
0
10
41.994714
20
268.073010
11
42.761198
21
267.864294
0
LINE
8
0
10
42.761198
20
267.864294
11
43.416986
21
267.474795
0
LINE
8
0
10
43.416986
20
267.474795
11
44.025864
21
266.974116
0
LINE
8
0
10
44.025864
20
266.974116
11
44.854647
21
265.545743
0
LINE
8
0
10
44.854647
20
265.545743
11
45.062814
21
264.614435
0
LINE
8
0
10
45.062814
20
264.614435
11
45.130909
21
263.634420
0
LINE
8
0
10
45.130909
20
263.634420
11
45.128863
21
263.470707
0
LINE
8
0
10
45.128863
20
263.470707
11
45.122724
21
263.241513
0
LINE
8
0
10
45.122779
20
263.241590
11
38.639701
21
263.241590
0
LINE
8
0
10
38.639785
20
263.241513
11
38.883306
21
261.976850
0
LINE
8
0
10
38.883306
20
261.976850
11
39.450152
21
261.047791
0
LINE
8
0
10
39.450152
20
261.047791
11
40.268707
21
260.476851
0
LINE
8
0
10
40.268707
20
260.476851
11
41.267341
21
260.286538
0
LINE
8
0
10
96.405058
20
274.811760
11
95.848447
21
274.556986
0
LINE
8
0
10
95.848447
20
274.556986
11
95.193607
21
274.472061
0
LINE
8
0
10
95.193607
20
274.472061
11
94.743407
21
274.517082
0
LINE
8
0
10
94.743407
20
274.517082
11
94.244083
21
274.652142
0
LINE
8
0
10
94.244200
20
274.652129
11
94.080423
21
276.035501
0
LINE
8
0
10
94.080375
20
276.035496
11
94.532635
21
275.937270
0
LINE
8
0
10
94.532635
20
275.937270
11
94.923489
21
275.904528
0
LINE
8
0
10
94.923489
20
275.904528
11
95.365497
21
275.945456
0
LINE
8
0
10
95.365497
20
275.945456
11
95.709297
21
276.068238
0
LINE
8
0
10
95.709297
20
276.068238
11
95.977374
21
276.264690
0
LINE
8
0
10
95.977374
20
276.264690
11
96.192237
21
276.526628
0
LINE
8
0
10
96.192237
20
276.526628
11
96.374369
21
276.911348
0
LINE
8
0
10
96.374369
20
276.911348
11
96.642446
21
277.623489
0
LINE
8
0
10
96.642446
20
277.623489
11
96.695652
21
277.774922
0
LINE
8
0
10
96.695652
20
277.774922
11
96.773415
21
277.983652
0
LINE
8
0
10
96.773349
20
277.983652
11
93.474528
21
286.693063
0
LINE
8
0
10
93.474528
20
286.693063
11
95.062555
21
286.693063
0
LINE
8
0
10
95.062555
20
286.693063
11
96.871509
21
281.658948
0
LINE
8
0
10
96.871633
20
281.658955
11
97.205199
21
280.676691
0
LINE
8
0
10
97.205199
20
280.676691
11
97.501925
21
279.645315
0
LINE
8
0
10
97.501925
20
279.645315
11
97.780236
21
280.648041
0
LINE
8
0
10
97.780236
20
280.648041
11
98.107651
21
281.626213
0
LINE
8
0
10
98.107641
20
281.626220
11
99.965807
21
286.693063
0
LINE
8
0
10
99.965807
20
286.693063
11
101.439270
21
286.693063
0
LINE
8
0
10
101.439270
20
286.693063
11
98.132247
21
277.852684
0
LINE
8
0
10
98.132218
20
277.852684
11
97.659501
21
276.643272
0
LINE
8
0
10
97.659501
20
276.643272
11
97.305478
21
275.879971
0
LINE
8
0
10
97.305478
20
275.879971
11
96.883917
21
275.248662
0
LINE
8
0
10
96.883917
20
275.248662
11
96.405058
21
274.811760
0
LINE
8
0
10
76.154131
20
290.000007
11
76.154131
21
278.000030
0
LINE
8
0
10
76.154131
20
278.000030
11
74.787031
21
278.000030
0
LINE
8
0
10
74.787031
20
278.000030
11
74.787031
21
279.096885
0
LINE
8
0
10
74.787086
20
279.096885
11
74.309038
21
278.551289
0
LINE
8
0
10
74.309038
20
278.551289
11
73.765941
21
278.126899
0
LINE
8
0
10
73.765941
20
278.126899
11
73.095273
21
277.901304
0
LINE
8
0
10
73.095273
20
277.901304
11
72.355983
21
277.803570
0
LINE
8
0
10
72.355983
20
277.803570
11
71.358374
21
277.946817
0
LINE
8
0
10
71.358374
20
277.946817
11
70.444660
21
278.376557
0
LINE
8
0
10
70.444660
20
278.376557
11
69.671131
21
279.063119
0
LINE
8
0
10
69.671131
20
279.063119
11
69.094049
21
279.976828
0
LINE
8
0
10
69.094049
20
279.976828
11
68.734910
21
281.080851
0
LINE
8
0
10
68.734910
20
281.080851
11
68.615195
21
282.338353
0
LINE
8
0
10
68.615195
20
282.338353
11
68.723652
21
283.579484
0
LINE
8
0
10
68.723652
20
283.579484
11
69.049026
21
284.699879
0
LINE
8
0
10
69.049026
20
284.699879
11
69.591318
21
285.636099
0
LINE
8
0
10
69.591318
20
285.636099
11
70.350528
21
286.324706
0
LINE
8
0
10
70.350528
20
286.324706
11
71.269353
21
286.748307
0
LINE
8
0
10
71.269353
20
286.748307
11
72.290499
21
286.889507
0
LINE
8
0
10
72.290499
20
286.889507
11
73.033334
21
286.806629
0
LINE
8
0
10
73.033334
20
286.806629
11
73.690224
21
286.557993
0
LINE
8
0
10
73.690224
20
286.557993
11
74.246835
21
286.176343
0
LINE
8
0
10
74.246835
20
286.176343
11
74.688858
21
285.694420
0
LINE
8
0
10
74.688870
20
285.694421
11
74.688870
21
290.000007
0
LINE
8
0
10
74.688870
20
290.000007
11
76.154131
21
290.000007
0
LINE
8
0
10
57.233216
20
279.367006
11
57.447063
21
279.287197
0
LINE
8
0
10
57.447063
20
279.287197
11
57.736627
21
279.260595
0
LINE
8
0
10
57.736627
20
279.260595
11
58.021074
21
279.274919
0
LINE
8
0
10
58.021074
20
279.274919
11
58.383284
21
279.317894
0
LINE
8
0
10
58.383414
20
279.317892
11
58.596139
21
278.016381
0
LINE
8
0
10
58.596106
20
278.016394
11
58.006745
21
277.918168
0
LINE
8
0
10
58.006745
20
277.918168
11
57.482874
21
277.885427
0
LINE
8
0
10
57.482874
20
277.885427
11
56.770733
21
277.948864
0
LINE
8
0
10
56.770733
20
277.948864
11
56.238674
21
278.139178
0
LINE
8
0
10
56.238674
20
278.139178
11
55.862140
21
278.432832
0
LINE
8
0
10
55.862140
20
278.432832
11
55.616573
21
278.806298
0
LINE
8
0
10
55.616573
20
278.806298
11
55.481514
21
279.447840
0
LINE
8
0
10
55.481514
20
279.447840
11
55.436491
21
280.545723
0
LINE
8
0
10
55.436488
20
280.545716
11
55.436488
21
285.547075
0
LINE
8
0
10
55.436488
20
285.547075
11
54.355932
21
285.547075
0
LINE
8
0
10
54.355932
20
285.547075
11
54.355932
21
286.693063
0
LINE
8
0
10
54.355932
20
286.693063
11
55.436488
21
286.693063
0
LINE
8
0
10
55.436488
20
286.693063
11
55.436488
21
288.845843
0
LINE
8
0
10
55.436488
20
288.845843
11
56.901749
21
289.729894
0
LINE
8
0
10
56.901749
20
289.729894
11
56.901749
21
286.693063
0
LINE
8
0
10
56.901749
20
286.693063
11
58.383414
21
286.693063
0
LINE
8
0
10
58.383414
20
286.693063
11
58.383414
21
285.547075
0
LINE
8
0
10
58.383414
20
285.547075
11
56.901749
21
285.547075
0
LINE
8
0
10
56.901749
20
285.547075
11
56.901749
21
280.463880
0
LINE
8
0
10
56.901705
20
280.463868
11
56.921146
21
279.946133
0
LINE
8
0
10
56.921146
20
279.946133
11
56.979468
21
279.653501
0
LINE
8
0
10
56.979468
20
279.653501
11
57.081787
21
279.491836
0
LINE
8
0
10
57.081787
20
279.491836
11
57.233216
21
279.367006
0
LINE
8
0
10
40.178668
20
279.015029
11
40.929690
21
279.121442
0
LINE
8
0
10
40.929690
20
279.121442
11
41.562023
21
279.440677
0
LINE
8
0
10
41.562023
20
279.440677
11
42.075665
21
279.993199
0
LINE
8
0
10
42.075665
20
279.993199
11
42.470617
21
280.799475
0
LINE
8
0
10
42.470599
20
280.799477
11
43.993009
21
280.611200
0
LINE
8
0
10
43.993125
20
280.611207
11
43.479481
21
279.426351
0
LINE
8
0
10
43.479481
20
279.426351
11
42.658884
21
278.540268
0
LINE
8
0
10
42.658884
20
278.540268
11
41.549745
21
277.987745
0
LINE
8
0
10
41.549745
20
277.987745
11
40.170483
21
277.803570
0
LINE
8
0
10
40.170483
20
277.803570
11
39.289274
21
277.884510
0
LINE
8
0
10
39.289274
20
277.884510
11
38.460731
21
278.097227
0
LINE
8
0
10
38.460731
20
278.097227
11
37.781414
21
278.482871
0
LINE
8
0
10
37.781414
20
278.482871
11
37.145931
21
278.978194
0
LINE
8
0
10
37.145931
20
278.978194
11
36.307936
21
280.389175
0
LINE
8
0
10
36.307936
20
280.389175
11
36.098470
21
281.306207
0
LINE
8
0
10
36.098470
20
281.306207
11
36.028605
21
282.272869
0
LINE
8
0
10
36.028605
20
282.272869
11
36.098379
21
283.271837
0
LINE
8
0
10
36.098379
20
283.271837
11
36.311006
21
284.221025
0
LINE
8
0
10
36.311006
20
284.221025
11
37.158209
21
285.678050
0
LINE
8
0
10
37.158209
20
285.678050
11
37.783119
21
286.189071
0
LINE
8
0
10
37.783119
20
286.189071
11
38.455615
21
286.586643
0
LINE
8
0
10
38.455615
20
286.586643
11
39.245960
21
286.800445
0
LINE
8
0
10
39.245960
20
286.800445
11
40.088627
21
286.889508
0
LINE
8
0
10
40.088627
20
286.889508
11
40.906042
21
286.801500
0
LINE
8
0
10
40.906042
20
286.801500
11
41.672528
21
286.592783
0
LINE
8
0
10
41.672528
20
286.592783
11
42.328314
21
286.203285
0
LINE
8
0
10
42.328314
20
286.203285
11
42.937191
21
285.702606
0
LINE
8
0
10
42.937191
20
285.702606
11
43.765979
21
284.274232
0
LINE
8
0
10
43.765979
20
284.274232
11
43.974145
21
283.342924
0
LINE
8
0
10
43.974145
20
283.342924
11
44.042239
21
282.362910
0
LINE
8
0
10
44.042239
20
282.362910
11
44.040191
21
282.199200
0
LINE
8
0
10
44.040191
20
282.199200
11
44.034052
21
281.970005
0
LINE
8
0
10
44.034020
20
281.969992
11
37.551207
21
281.969992
0
LINE
8
0
10
37.551115
20
281.970005
11
37.794633
21
280.705340
0
LINE
8
0
10
37.794633
20
280.705340
11
38.361482
21
279.776284
0
LINE
8
0
10
38.361482
20
279.776284
11
39.180034
21
279.205341
0
LINE
8
0
10
39.180034
20
279.205341
11
40.178668
21
279.015029
0
LINE
8
0
10
32.394220
20
282.551175
11
32.394220
21
278.000030
0
LINE
8
0
10
32.394220
20
278.000030
11
30.920757
21
278.000030
0
LINE
8
0
10
30.920757
20
278.000030
11
30.920757
21
286.693063
0
LINE
8
0
10
30.920757
20
286.693063
11
32.246847
21
286.693063
0
LINE
8
0
10
32.246847
20
286.693063
11
32.246847
21
285.375175
0
LINE
8
0
10
32.246890
20
285.375185
11
32.734951
21
286.142578
0
LINE
8
0
10
32.734951
20
286.142578
11
33.184134
21
286.594828
0
LINE
8
0
10
33.184134
20
286.594828
11
33.635362
21
286.815837
0
LINE
8
0
10
33.635362
20
286.815837
11
34.129563
21
286.889507
0
LINE
8
0
10
34.129563
20
286.889507
11
34.880585
21
286.770817
0
LINE
8
0
10
34.880585
20
286.770817
11
35.643886
21
286.414747
0
LINE
8
0
10
35.643828
20
286.414749
11
35.136358
21
285.047754
0
LINE
8
0
10
35.136381
20
285.047764
11
34.596138
21
285.287191
0
LINE
8
0
10
34.596138
20
285.287191
11
34.055894
21
285.366999
0
LINE
8
0
10
34.055894
20
285.366999
11
33.597503
21
285.294353
0
LINE
8
0
10
33.597503
20
285.294353
11
33.188228
21
285.076413
0
LINE
8
0
10
33.188228
20
285.076413
11
32.858760
21
284.729552
0
LINE
8
0
10
32.858760
20
284.729552
11
32.639796
21
284.270139
0
LINE
8
0
10
32.639796
20
284.270139
11
32.455623
21
283.447493
0
LINE
8
0
10
32.455623
20
283.447493
11
32.394230
21
282.551177
0
LINE
8
0
10
53.349193
20
278.000030
11
51.810378
21
278.000030
0
LINE
8
0
10
51.810307
20
278.000024
11
51.622037
21
278.497295
0
LINE
8
0
10
51.622037
20
278.497295
11
51.515627
21
279.072328
0
LINE
8
0
10
51.515627
20
279.072328
11
50.712424
21
278.478877
0
LINE
8
0
10
50.712424
20
278.478877
11
49.939911
21
278.090065
0
LINE
8
0
10
49.939911
20
278.090065
11
49.155124
21
277.875194
0
LINE
8
0
10
49.155124
20
277.875194
11
48.315085
21
277.803570
0
LINE
8
0
10
48.315085
20
277.803570
11
47.048374
21
277.978536
0
LINE
8
0
10
47.048374
20
277.978536
11
46.113178
21
278.503433
0
LINE
8
0
10
46.113178
20
278.503433
11
45.536098
21
279.300500
0
LINE
8
0
10
45.536098
20
279.300500
11
45.343738
21
280.291972
0
LINE
8
0
10
45.343738
20
280.291972
11
45.416384
21
280.902816
0
LINE
8
0
10
45.416384
20
280.902816
11
45.634324
21
281.458409
0
LINE
8
0
10
45.634324
20
281.458409
11
45.969929
21
281.934193
0
LINE
8
0
10
45.969929
20
281.934193
11
46.395577
21
282.305611
0
LINE
8
0
10
46.395577
20
282.305611
11
46.895917
21
282.585966
0
LINE
8
0
10
46.895917
20
282.585966
11
47.455604
21
282.788558
0
LINE
8
0
10
47.455604
20
282.788558
11
47.999942
21
282.901108
0
LINE
8
0
10
47.999942
20
282.901108
11
48.765288
21
283.009567
0
LINE
8
0
10
48.765288
20
283.009567
11
50.314399
21
283.242855
0
LINE
8
0
10
50.314399
20
283.242855
11
51.392841
21
283.517070
0
LINE
8
0
10
51.392841
20
283.517070
11
51.398983
21
283.764682
0
LINE
8
0
10
51.398983
20
283.764682
11
51.401028
21
283.901789
0
LINE
8
0
10
51.401028
20
283.901789
11
51.296663
21
284.669184
0
LINE
8
0
10
51.296663
20
284.669184
11
50.983568
21
285.170547
0
LINE
8
0
10
50.983568
20
285.170547
11
50.281659
21
285.545035
0
LINE
8
0
10
50.281659
20
285.545035
11
49.305537
21
285.669864
0
LINE
8
0
10
49.305537
20
285.669864
11
48.402055
21
285.578800
0
LINE
8
0
10
48.402055
20
285.578800
11
47.770748
21
285.305608
0
LINE
8
0
10
47.770748
20
285.305608
11
47.339983
21
284.801175
0
LINE
8
0
10
47.339983
20
284.801175
11
47.038143
21
284.016387
0
LINE
8
0
10
47.038095
20
284.016383
11
45.597440
21
284.212836
0
LINE
8
0
10
45.597489
20
284.212840
11
45.857379
21
285.048787
0
LINE
8
0
10
45.857379
20
285.048787
11
46.244146
21
285.706699
0
LINE
8
0
10
46.244146
20
285.706699
11
46.794623
21
286.210109
0
LINE
8
0
10
46.794623
20
286.210109
11
47.545645
21
286.582551
0
LINE
8
0
10
47.545645
20
286.582551
11
48.464471
21
286.812768
0
LINE
8
0
10
48.464471
20
286.812768
11
49.518359
21
286.889508
0
LINE
8
0
10
49.518359
20
286.889508
11
50.527226
21
286.824024
0
LINE
8
0
10
50.527226
20
286.824024
11
51.327362
21
286.627571
0
LINE
8
0
10
51.327362
20
286.627571
11
51.931042
21
286.331868
0
LINE
8
0
10
51.931042
20
286.331868
11
52.350548
21
285.968636
0
LINE
8
0
10
52.350548
20
285.968636
11
52.628859
21
285.519455
0
LINE
8
0
10
52.628859
20
285.519455
11
52.808941
21
284.965909
0
LINE
8
0
10
52.808941
20
284.965909
11
52.864197
21
284.437942
0
LINE
8
0
10
52.864197
20
284.437942
11
52.882612
21
283.607111
0
LINE
8
0
10
52.882733
20
283.607100
11
52.882733
21
281.642571
0
LINE
8
0
10
52.882612
20
281.642584
11
52.906144
21
279.965574
0
LINE
8
0
10
52.906144
20
279.965574
11
52.976744
21
279.043678
0
LINE
8
0
10
52.976744
20
279.043678
11
53.116920
21
278.510595
0
LINE
8
0
10
53.116920
20
278.510595
11
53.349187
21
278.000024
0
LINE
8
0
10
63.482865
20
279.015029
11
64.233888
21
279.121442
0
LINE
8
0
10
64.233888
20
279.121442
11
64.866221
21
279.440677
0
LINE
8
0
10
64.866221
20
279.440677
11
65.379864
21
279.993199
0
LINE
8
0
10
65.379864
20
279.993199
11
65.774814
21
280.799475
0
LINE
8
0
10
65.774805
20
280.799477
11
67.297215
21
280.611200
0
LINE
8
0
10
67.297324
20
280.611207
11
66.783685
21
279.426351
0
LINE
8
0
10
66.783685
20
279.426351
11
65.963083
21
278.540268
0
LINE
8
0
10
65.963083
20
278.540268
11
64.853947
21
277.987745
0
LINE
8
0
10
64.853947
20
277.987745
11
63.474683
21
277.803570
0
LINE
8
0
10
63.474683
20
277.803570
11
62.593472
21
277.884510
0
LINE
8
0
10
62.593472
20
277.884510
11
61.764928
21
278.097227
0
LINE
8
0
10
61.764928
20
278.097227
11
61.085611
21
278.482871
0
LINE
8
0
10
61.085611
20
278.482871
11
60.450128
21
278.978194
0
LINE
8
0
10
60.450128
20
278.978194
11
59.612135
21
280.389175
0
LINE
8
0
10
59.612135
20
280.389175
11
59.402670
21
281.306208
0
LINE
8
0
10
59.402670
20
281.306208
11
59.332804
21
282.272869
0
LINE
8
0
10
59.332804
20
282.272869
11
59.402576
21
283.271838
0
LINE
8
0
10
59.402576
20
283.271838
11
59.615201
21
284.221025
0
LINE
8
0
10
59.615201
20
284.221025
11
60.462406
21
285.678050
0
LINE
8
0
10
60.462406
20
285.678050
11
61.087316
21
286.189071
0
LINE
8
0
10
61.087316
20
286.189071
11
61.759812
21
286.586643
0
LINE
8
0
10
61.759812
20
286.586643
11
62.550157
21
286.800445
0
LINE
8
0
10
62.550157
20
286.800445
11
63.392824
21
286.889508
0
LINE
8
0
10
63.392824
20
286.889508
11
64.210241
21
286.801500
0
LINE
8
0
10
64.210241
20
286.801500
11
64.976727
21
286.592783
0
LINE
8
0
10
64.976727
20
286.592783
11
65.632513
21
286.203285
0
LINE
8
0
10
65.632513
20
286.203285
11
66.241389
21
285.702606
0
LINE
8
0
10
66.241389
20
285.702606
11
67.070178
21
284.274232
0
LINE
8
0
10
67.070178
20
284.274232
11
67.278345
21
283.342925
0
LINE
8
0
10
67.278345
20
283.342925
11
67.346438
21
282.362910
0
LINE
8
0
10
67.346438
20
282.362910
11
67.344388
21
282.199200
0
LINE
8
0
10
67.344388
20
282.199200
11
67.338251
21
281.970005
0
LINE
8
0
10
67.338226
20
281.969992
11
60.855413
21
281.969992
0
LINE
8
0
10
60.855314
20
281.970005
11
61.098835
21
280.705340
0
LINE
8
0
10
61.098835
20
280.705340
11
61.665679
21
279.776284
0
LINE
8
0
10
61.665679
20
279.776284
11
62.484231
21
279.205341
0
LINE
8
0
10
62.484231
20
279.205341
11
63.482865
21
279.015029
0
LINE
8
0
10
89.762515
20
278.200569
11
88.883591
21
278.050159
0
LINE
8
0
10
88.883591
20
278.050159
11
87.826630
21
278.000024
0
LINE
8
0
10
87.826739
20
278.000030
11
83.251041
21
278.000030
0
LINE
8
0
10
83.251041
20
278.000030
11
83.251041
21
290.000007
0
LINE
8
0
10
83.251041
20
290.000007
11
87.752921
21
290.000007
0
LINE
8
0
10
87.752964
20
290.000009
11
88.992043
21
289.908945
0
LINE
8
0
10
88.992043
20
289.908945
11
89.958962
21
289.635752
0
LINE
8
0
10
89.958962
20
289.635752
11
90.699747
21
289.173270
0
LINE
8
0
10
90.699747
20
289.173270
11
91.260459
21
288.514335
0
LINE
8
0
10
91.260459
20
288.514335
11
91.613461
21
287.739780
0
LINE
8
0
10
91.613461
20
287.739780
11
91.731125
21
286.930435
0
LINE
8
0
10
91.731125
20
286.930435
11
91.626756
21
286.183506
0
LINE
8
0
10
91.626756
20
286.183506
11
91.313664
21
285.481597
0
LINE
8
0
10
91.313664
20
285.481597
11
90.789793
21
284.867682
0
LINE
8
0
10
90.789793
20
284.867682
11
90.053099
21
284.384736
0
LINE
8
0
10
90.053099
20
284.384736
11
91.015918
21
283.952949
0
LINE
8
0
10
91.015918
20
283.952949
11
91.727034
21
283.296061
0
LINE
8
0
10
91.727034
20
283.296061
11
92.165991
21
282.457043
0
LINE
8
0
10
92.165991
20
282.457043
11
92.312303
21
281.478873
0
LINE
8
0
10
92.312303
20
281.478873
11
92.223278
21
280.665436
0
LINE
8
0
10
92.223278
20
280.665436
11
91.956230
21
279.911344
0
LINE
8
0
10
91.956230
20
279.911344
11
91.558215
21
279.269805
0
LINE
8
0
10
91.558215
20
279.269805
11
91.076286
21
278.794019
0
LINE
8
0
10
91.076286
20
278.794019
11
90.485914
21
278.449205
0
LINE
8
0
10
90.485914
20
278.449205
11
89.762515
21
278.200569
0
LINE
8
0
10
25.313740
20
269.487072
11
25.313740
21
259.271523
0
LINE
8
0
10
25.313740
20
259.271523
11
23.783048
21
259.271523
0
LINE
8
0
10
23.783048
20
259.271523
11
23.783048
21
271.271526
0
LINE
8
0
10
23.783048
20
271.271526
11
26.173238
21
271.271526
0
LINE
8
0
10
26.173238
20
271.271526
11
29.013643
21
262.774866
0
LINE
8
0
10
29.013603
20
262.774939
11
29.353303
21
261.737423
0
LINE
8
0
10
29.353303
20
261.737423
11
29.586590
21
260.998679
0
LINE
8
0
10
29.586590
20
260.998679
11
29.848526
21
261.807001
0
LINE
8
0
10
29.848526
20
261.807001
11
30.225060
21
262.922279
0
LINE
8
0
10
30.225168
20
262.922239
11
33.098275
21
271.271526
0
LINE
8
0
10
33.098275
20
271.271526
11
35.234518
21
271.271526
0
LINE
8
0
10
35.234518
20
271.271526
11
35.234518
21
259.271523
0
LINE
8
0
10
35.234518
20
259.271523
11
33.703905
21
259.271523
0
LINE
8
0
10
33.703905
20
259.271523
11
33.703905
21
269.315093
0
LINE
8
0
10
33.703905
20
269.315093
11
30.216966
21
259.271523
0
LINE
8
0
10
30.216966
20
259.271523
11
28.784514
21
259.271523
0
LINE
8
0
10
28.784514
20
259.271523
11
25.313740
21
269.487072
0
LINE
8
0
10
50.099527
20
255.743569
11
48.693660
21
255.918534
0
LINE
8
0
10
48.693660
20
255.918534
11
47.586567
21
256.443431
0
LINE
8
0
10
47.586567
20
256.443431
11
46.876472
21
257.320305
0
LINE
8
0
10
46.876472
20
257.320305
11
46.712730
21
257.910153
0
LINE
8
0
10
46.712730
20
257.910153
11
46.661602
21
258.551206
0
LINE
8
0
10
46.661593
20
258.551328
11
48.094046
21
258.338338
0
LINE
8
0
10
48.094072
20
258.338382
11
48.263923
21
257.765396
0
LINE
8
0
10
48.263923
20
257.765396
11
48.593389
21
257.372490
0
LINE
8
0
10
48.593389
20
257.372490
11
49.242094
21
257.065534
0
LINE
8
0
10
49.242094
20
257.065534
11
50.091340
21
256.963214
0
LINE
8
0
10
50.091340
20
256.963214
11
50.997887
21
257.065534
0
LINE
8
0
10
50.997887
20
257.065534
11
51.671147
21
257.372490
0
LINE
8
0
10
51.671147
20
257.372490
11
52.137722
21
257.863622
0
LINE
8
0
10
52.137722
20
257.863622
11
52.424215
21
258.518464
0
LINE
8
0
10
52.424215
20
258.518464
11
52.508114
21
259.216279
0
LINE
8
0
10
52.508114
20
259.216279
11
52.530631
21
260.409322
0
LINE
8
0
10
52.530631
20
260.409322
11
52.013395
21
259.929328
0
LINE
8
0
10
52.013395
20
259.929328
11
51.446047
21
259.555979
0
LINE
8
0
10
51.446047
20
259.555979
11
50.124084
21
259.271532
0
LINE
8
0
10
50.124084
20
259.271532
11
49.296795
21
259.365237
0
LINE
8
0
10
49.296795
20
259.365237
11
48.534044
21
259.594861
0
LINE
8
0
10
48.534044
20
259.594861
11
47.912877
21
260.019328
0
LINE
8
0
10
47.912877
20
260.019328
11
47.349188
21
260.564846
0
LINE
8
0
10
47.349188
20
260.564846
11
46.612490
21
261.987083
0
LINE
8
0
10
46.612490
20
261.987083
11
46.366924
21
263.667162
0
LINE
8
0
10
46.366924
20
263.667162
11
46.479474
21
264.863270
0
LINE
8
0
10
46.479474
20
264.863270
11
46.817129
21
265.963201
0
LINE
8
0
10
46.817129
20
265.963201
11
47.368627
21
266.895328
0
LINE
8
0
10
47.368627
20
266.895328
11
48.122720
21
267.588029
0
LINE
8
0
10
48.122720
20
267.588029
11
49.052799
21
268.017771
0
LINE
8
0
10
49.052799
20
268.017771
11
50.132267
21
268.161017
0
LINE
8
0
10
50.132267
20
268.161017
11
50.861416
21
268.061405
0
LINE
8
0
10
50.861416
20
268.061405
11
51.536083
21
267.849967
0
LINE
8
0
10
51.536083
20
267.849967
11
52.131341
21
267.441700
0
LINE
8
0
10
52.131341
20
267.441700
11
52.669781
21
266.916815
0
LINE
8
0
10
52.669744
20
266.916913
11
52.669744
21
267.964662
0
LINE
8
0
10
52.669744
20
267.964662
11
54.028642
21
267.964662
0
LINE
8
0
10
54.028642
20
267.964662
11
54.028642
21
260.450240
0
LINE
8
0
10
54.028579
20
260.450248
11
53.925239
21
258.715937
0
LINE
8
0
10
53.925239
20
258.715937
11
53.615209
21
257.573036
0
LINE
8
0
10
53.615209
20
257.573036
11
53.081100
21
256.814851
0
LINE
8
0
10
53.081100
20
256.814851
11
52.305525
21
256.234701
0
LINE
8
0
10
52.305525
20
256.234701
11
51.305866
21
255.866352
0
LINE
8
0
10
51.305866
20
255.866352
11
50.099527
21
255.743569
0
LINE
8
0
10
63.761063
20
259.271523
11
62.222249
21
259.271523
0
LINE
8
0
10
62.222295
20
259.271532
11
62.034026
21
259.768801
0
LINE
8
0
10
62.034026
20
259.768801
11
61.927615
21
260.343837
0
LINE
8
0
10
61.927615
20
260.343837
11
61.124413
21
259.750386
0
LINE
8
0
10
61.124413
20
259.750386
11
60.351904
21
259.361573
0
LINE
8
0
10
60.351904
20
259.361573
11
59.567117
21
259.146706
0
LINE
8
0
10
59.567117
20
259.146706
11
58.727074
21
259.075080
0
LINE
8
0
10
58.727074
20
259.075080
11
57.460367
21
259.250046
0
LINE
8
0
10
57.460367
20
259.250046
11
56.525167
21
259.774943
0
LINE
8
0
10
56.525167
20
259.774943
11
55.948085
21
260.572009
0
LINE
8
0
10
55.948085
20
260.572009
11
55.755724
21
261.563480
0
LINE
8
0
10
55.755724
20
261.563480
11
55.828370
21
262.174327
0
LINE
8
0
10
55.828370
20
262.174327
11
56.046313
21
262.729918
0
LINE
8
0
10
56.046313
20
262.729918
11
56.381925
21
263.205703
0
LINE
8
0
10
56.381925
20
263.205703
11
56.807568
21
263.577121
0
LINE
8
0
10
56.807568
20
263.577121
11
57.307908
21
263.857474
0
LINE
8
0
10
57.307908
20
263.857474
11
57.867595
21
264.060066
0
LINE
8
0
10
57.867595
20
264.060066
11
58.411933
21
264.172616
0
LINE
8
0
10
58.411933
20
264.172616
11
59.177274
21
264.281077
0
LINE
8
0
10
59.177274
20
264.281077
11
60.726387
21
264.514364
0
LINE
8
0
10
60.726387
20
264.514364
11
61.804834
21
264.788579
0
LINE
8
0
10
61.804834
20
264.788579
11
61.810971
21
265.036193
0
LINE
8
0
10
61.810971
20
265.036193
11
61.813017
21
265.173298
0
LINE
8
0
10
61.813017
20
265.173298
11
61.708652
21
265.940692
0
LINE
8
0
10
61.708652
20
265.940692
11
61.395556
21
266.442055
0
LINE
8
0
10
61.395556
20
266.442055
11
60.693643
21
266.816543
0
LINE
8
0
10
60.693643
20
266.816543
11
59.717521
21
266.941372
0
LINE
8
0
10
59.717521
20
266.941372
11
58.814044
21
266.850308
0
LINE
8
0
10
58.814044
20
266.850308
11
58.182736
21
266.577116
0
LINE
8
0
10
58.182736
20
266.577116
11
57.751972
21
266.072683
0
LINE
8
0
10
57.751972
20
266.072683
11
57.450134
21
265.287896
0
LINE
8
0
10
57.450230
20
265.287875
11
56.009575
21
265.484461
0
LINE
8
0
10
56.009477
20
265.484350
11
56.269372
21
266.320297
0
LINE
8
0
10
56.269372
20
266.320297
11
56.656135
21
266.978208
0
LINE
8
0
10
56.656135
20
266.978208
11
57.206614
21
267.481618
0
LINE
8
0
10
57.206614
20
267.481618
11
57.957631
21
267.854058
0
LINE
8
0
10
57.957631
20
267.854058
11
58.876457
21
268.084278
0
LINE
8
0
10
58.876457
20
268.084278
11
59.930347
21
268.161017
0
LINE
8
0
10
59.930347
20
268.161017
11
60.939214
21
268.095533
0
LINE
8
0
10
60.939214
20
268.095533
11
61.739346
21
267.899079
0
LINE
8
0
10
61.739346
20
267.899079
11
62.343030
21
267.603378
0
LINE
8
0
10
62.343030
20
267.603378
11
62.762542
21
267.240143
0
LINE
8
0
10
62.762542
20
267.240143
11
63.040852
21
266.790963
0
LINE
8
0
10
63.040852
20
266.790963
11
63.220929
21
266.237418
0
LINE
8
0
10
63.220929
20
266.237418
11
63.276180
21
265.709450
0
LINE
8
0
10
63.276180
20
265.709450
11
63.294596
21
264.878620
0
LINE
8
0
10
63.294604
20
264.878565
11
63.294604
21
262.914037
0
LINE
8
0
10
63.294596
20
262.914091
11
63.318132
21
261.237081
0
LINE
8
0
10
63.318132
20
261.237081
11
63.388733
21
260.315187
0
LINE
8
0
10
63.388733
20
260.315187
11
63.528909
21
259.782105
0
LINE
8
0
10
63.528909
20
259.782105
11
63.761171
21
259.271532
0
LINE
8
0
10
77.259112
20
271.271518
11
77.259112
21
259.271532
0
LINE
8
0
10
77.259112
20
259.271532
11
75.785716
21
259.271532
0
LINE
8
0
10
75.785716
20
259.271532
11
75.785716
21
271.271518
0
LINE
8
0
10
75.785716
20
271.271518
11
77.259112
21
271.271518
0
LINE
8
0
10
77.259112
20
271.271518
11
77.259112
21
271.271518
0
LINE
8
0
10
90.683442
20
268.766877
11
90.683442
21
267.964662
0
LINE
8
0
10
90.683442
20
267.964662
11
93.572953
21
267.964662
0
LINE
8
0
10
93.572953
20
267.964662
11
93.572953
21
268.889644
0
LINE
8
0
10
93.572869
20
268.889528
11
93.611750
21
269.652827
0
LINE
8
0
10
93.611750
20
269.652827
11
93.728393
21
270.191027
0
LINE
8
0
10
93.728393
20
270.191027
11
94.022058
21
270.709785
0
LINE
8
0
10
94.022058
20
270.709785
11
94.477370
21
271.120086
0
LINE
8
0
10
94.477370
20
271.120086
11
95.120956
21
271.387138
0
LINE
8
0
10
95.120956
20
271.387138
11
95.979415
21
271.476154
0
LINE
8
0
10
95.979415
20
271.476154
11
96.634254
21
271.439319
0
LINE
8
0
10
96.634254
20
271.439319
11
97.354583
21
271.328817
0
LINE
8
0
10
97.354638
20
271.328808
11
97.133446
21
270.043755
0
LINE
8
0
10
97.133569
20
270.043690
11
96.687460
21
270.105080
0
LINE
8
0
10
96.687460
20
270.105080
11
96.265908
21
270.125543
0
LINE
8
0
10
96.265908
20
270.125543
11
95.692922
21
270.053920
0
LINE
8
0
10
95.692922
20
270.053920
11
95.316383
21
269.839050
0
LINE
8
0
10
95.316383
20
269.839050
11
95.107662
21
269.427726
0
LINE
8
0
10
95.107662
20
269.427726
11
95.038082
21
268.766745
0
LINE
8
0
10
95.038214
20
268.766877
11
95.038214
21
267.964662
0
LINE
8
0
10
95.038214
20
267.964662
11
96.732603
21
267.964662
0
LINE
8
0
10
96.732603
20
267.964662
11
96.732603
21
266.818488
0
LINE
8
0
10
96.732603
20
266.818488
11
95.038214
21
266.818488
0
LINE
8
0
10
95.038214
20
266.818488
11
95.038214
21
259.271523
0
LINE
8
0
10
95.038214
20
259.271523
11
93.572953
21
259.271523
0
LINE
8
0
10
93.572953
20
259.271523
11
93.572953
21
266.818488
0
LINE
8
0
10
93.572953
20
266.818488
11
90.683442
21
266.818488
0
LINE
8
0
10
90.683442
20
266.818488
11
90.683442
21
259.271523
0
LINE
8
0
10
90.683442
20
259.271523
11
89.218181
21
259.271523
0
LINE
8
0
10
89.218181
20
259.271523
11
89.218181
21
266.818488
0
LINE
8
0
10
89.218181
20
266.818488
11
87.916698
21
266.818488
0
LINE
8
0
10
87.916698
20
266.818488
11
87.916698
21
267.964662
0
LINE
8
0
10
87.916698
20
267.964662
11
89.218181
21
267.964662
0
LINE
8
0
10
89.218181
20
267.964662
11
89.218181
21
268.889644
0
LINE
8
0
10
89.218168
20
268.889528
11
89.257049
21
269.652827
0
LINE
8
0
10
89.257049
20
269.652827
11
89.373693
21
270.191027
0
LINE
8
0
10
89.373693
20
270.191027
11
89.667339
21
270.709785
0
LINE
8
0
10
89.667339
20
270.709785
11
90.122660
21
271.120086
0
LINE
8
0
10
90.122660
20
271.120086
11
90.766256
21
271.387138
0
LINE
8
0
10
90.766256
20
271.387138
11
91.624715
21
271.476154
0
LINE
8
0
10
91.624715
20
271.476154
11
92.279554
21
271.439319
0
LINE
8
0
10
92.279554
20
271.439319
11
92.999883
21
271.328817
0
LINE
8
0
10
92.999866
20
271.328808
11
92.778939
21
270.043755
0
LINE
8
0
10
92.778869
20
270.043690
11
92.332760
21
270.105080
0
LINE
8
0
10
92.332760
20
270.105080
11
91.911198
21
270.125543
0
LINE
8
0
10
91.911198
20
270.125543
11
91.338212
21
270.053920
0
LINE
8
0
10
91.338212
20
270.053920
11
90.961683
21
269.839050
0
LINE
8
0
10
90.961683
20
269.839050
11
90.752962
21
269.427726
0
LINE
8
0
10
90.752962
20
269.427726
11
90.683382
21
268.766745
0
LINE
8
0
10
52.563370
20
243.416163
11
52.563370
21
240.543042
0
LINE
8
0
10
52.563370
20
240.543042
11
51.089974
21
240.543042
0
LINE
8
0
10
51.089974
20
240.543042
11
51.089974
21
243.416163
0
LINE
8
0
10
51.089974
20
243.416163
11
45.883979
21
243.416163
0
LINE
8
0
10
45.883979
20
243.416163
11
45.883979
21
244.766774
0
LINE
8
0
10
45.883979
20
244.766774
11
51.360102
21
252.543025
0
LINE
8
0
10
51.360102
20
252.543025
11
52.563370
21
252.543025
0
LINE
8
0
10
52.563370
20
252.543025
11
52.563370
21
244.766774
0
LINE
8
0
10
52.563370
20
244.766774
11
54.184109
21
244.766774
0
LINE
8
0
10
54.184109
20
244.766774
11
54.184109
21
243.416163
0
LINE
8
0
10
54.184109
20
243.416163
11
52.563370
21
243.416163
0
LINE
8
0
10
52.563370
20
243.416163
11
52.563370
21
243.416163
0
LINE
8
0
10
68.607008
20
240.338403
11
67.328023
21
240.533834
0
LINE
8
0
10
67.328023
20
240.533834
11
66.306877
21
241.120124
0
LINE
8
0
10
66.306877
20
241.120124
11
65.592681
21
242.060431
0
LINE
8
0
10
65.592681
20
242.060431
11
65.234567
21
243.317935
0
LINE
8
0
10
65.234526
20
243.317961
11
66.650574
21
243.448930
0
LINE
8
0
10
66.650667
20
243.448903
11
66.912603
21
242.587374
0
LINE
8
0
10
66.912603
20
242.587374
11
67.338251
21
242.000064
0
LINE
8
0
10
67.338251
20
242.000064
11
67.917374
21
241.662416
0
LINE
8
0
10
67.917374
20
241.662416
11
68.639752
21
241.549863
0
LINE
8
0
10
68.639752
20
241.549863
11
69.277202
21
241.627626
0
LINE
8
0
10
69.277202
20
241.627626
11
69.830747
21
241.860913
0
LINE
8
0
10
69.830747
20
241.860913
11
70.296302
21
242.224148
0
LINE
8
0
10
70.296302
20
242.224148
11
70.669760
21
242.691744
0
LINE
8
0
10
70.669760
20
242.691744
11
70.970582
21
243.302590
0
LINE
8
0
10
70.970582
20
243.302590
11
71.218189
21
244.095560
0
LINE
8
0
10
71.218189
20
244.095560
11
71.383947
21
244.987783
0
LINE
8
0
10
71.383947
20
244.987783
11
71.439203
21
245.896376
0
LINE
8
0
10
71.439203
20
245.896376
11
71.437157
21
246.019162
0
LINE
8
0
10
71.437157
20
246.019162
11
71.431015
21
246.191057
0
LINE
8
0
10
71.431015
20
246.191057
11
70.908169
21
245.553612
0
LINE
8
0
10
70.908169
20
245.553612
11
70.223651
21
245.049176
0
LINE
8
0
10
70.223651
20
245.049176
11
69.426581
21
244.720731
0
LINE
8
0
10
69.426581
20
244.720731
11
68.566081
21
244.611249
0
LINE
8
0
10
68.566081
20
244.611249
11
67.190908
21
244.881373
0
LINE
8
0
10
67.190908
20
244.881373
11
66.044937
21
245.691742
0
LINE
8
0
10
66.044937
20
245.691742
11
65.271408
21
246.944125
0
LINE
8
0
10
65.271408
20
246.944125
11
65.084401
21
247.720569
0
LINE
8
0
10
65.084401
20
247.720569
11
65.013563
21
248.540306
0
LINE
8
0
10
65.013563
20
248.540306
11
65.087738
21
249.386722
0
LINE
8
0
10
65.087738
20
249.386722
11
65.282661
21
250.187643
0
LINE
8
0
10
65.282661
20
250.187643
11
66.089955
21
251.478907
0
LINE
8
0
10
66.089955
20
251.478907
11
67.302440
21
252.313829
0
LINE
8
0
10
67.302440
20
252.313829
11
68.021922
21
252.507904
0
LINE
8
0
10
68.021922
20
252.507904
11
68.787090
21
252.592139
0
LINE
8
0
10
68.787090
20
252.592139
11
69.907484
21
252.434568
0
LINE
8
0
10
69.907484
20
252.434568
11
70.927605
21
251.961857
0
LINE
8
0
10
70.927605
20
251.961857
11
71.780942
21
251.197530
0
LINE
8
0
10
71.780942
20
251.197530
11
72.401001
21
250.165132
0
LINE
8
0
10
72.401001
20
250.165132
11
72.778560
21
248.737784
0
LINE
8
0
10
72.778560
20
248.737784
11
72.904407
21
246.788600
0
LINE
8
0
10
72.904407
20
246.788600
11
72.779576
21
244.722777
0
LINE
8
0
10
72.779576
20
244.722777
11
72.405092
21
243.125575
0
LINE
8
0
10
72.405092
20
243.125575
11
71.784017
21
241.925372
0
LINE
8
0
10
71.784017
20
241.925372
11
70.919422
21
241.050544
0
LINE
8
0
10
70.919422
20
241.050544
11
69.848142
21
240.516439
0
LINE
8
0
10
69.848142
20
240.516439
11
68.607008
21
240.338403
0
LINE
8
0
10
68.778094
20
18.568885
11
68.625229
21
20.079957
0
LINE
8
0
10
68.625229
20
20.079957
11
68.187897
21
21.487315
0
LINE
8
0
10
68.187897
20
21.487315
11
67.496240
21
22.760826
0
LINE
8
0
10
67.496240
20
22.760826
11
66.580402
21
23.870357
0
LINE
8
0
10
66.580402
20
23.870357
11
65.470526
21
24.785778
0
LINE
8
0
10
65.470526
20
24.785778
11
64.196756
21
25.476957
0
LINE
8
0
10
64.196756
20
25.476957
11
62.789234
21
25.913761
0
LINE
8
0
10
62.789234
20
25.913761
11
61.278104
21
26.066058
0
LINE
8
0
10
61.278104
20
26.066058
11
59.766974
21
25.913761
0
LINE
8
0
10
59.766974
20
25.913761
11
58.359452
21
25.476957
0
LINE
8
0
10
58.359452
20
25.476957
11
57.085682
21
24.785778
0
LINE
8
0
10
57.085682
20
24.785778
11
55.975806
21
23.870357
0
LINE
8
0
10
55.975806
20
23.870357
11
55.059968
21
22.760826
0
LINE
8
0
10
55.059968
20
22.760826
11
54.368311
21
21.487315
0
LINE
8
0
10
54.368311
20
21.487315
11
53.930979
21
20.079957
0
LINE
8
0
10
53.930979
20
20.079957
11
53.778114
21
18.568885
0
LINE
8
0
10
53.778114
20
18.568885
11
53.930979
21
17.057812
0
LINE
8
0
10
53.930979
20
17.057812
11
54.368311
21
15.650454
0
LINE
8
0
10
54.368311
20
15.650454
11
55.059968
21
14.376943
0
LINE
8
0
10
55.059968
20
14.376943
11
55.975806
21
13.267412
0
LINE
8
0
10
55.975806
20
13.267412
11
57.085682
21
12.351991
0
LINE
8
0
10
57.085682
20
12.351991
11
58.359452
21
11.660812
0
LINE
8
0
10
58.359452
20
11.660812
11
59.766974
21
11.224008
0
LINE
8
0
10
59.766974
20
11.224008
11
61.278104
21
11.071711
0
LINE
8
0
10
61.278104
20
11.071711
11
62.789234
21
11.224008
0
LINE
8
0
10
62.789234
20
11.224008
11
64.196756
21
11.660812
0
LINE
8
0
10
64.196756
20
11.660812
11
65.470526
21
12.351991
0
LINE
8
0
10
65.470526
20
12.351991
11
66.580402
21
13.267412
0
LINE
8
0
10
66.580402
20
13.267412
11
67.496240
21
14.376943
0
LINE
8
0
10
67.496240
20
14.376943
11
68.187897
21
15.650454
0
LINE
8
0
10
68.187897
20
15.650454
11
68.625229
21
17.057812
0
LINE
8
0
10
68.625229
20
17.057812
11
68.778094
21
18.568885
0
LINE
8
0
10
68.778094
20
18.568885
11
68.778094
21
18.568885
 0 
ENDSEC
 0 
EOF