0
SECTION
2
HEADER
9
$INSUNITS
70
4
9
$ACADVER
1
AC1014
9
$HANDSEED
5
FFFF
0
ENDSEC
0
SECTION
2
TABLES
0
TABLE
2
VPORT
5
8
100
AcDbSymbolTable
0
ENDTAB
0
TABLE
2
LTYPE
5
5
100
AcDbSymbolTable
0
LTYPE
5
14
100
AcDbSymbolTableRecord
100
AcDbLinetypeTableRecord
2
BYBLOCK
70
0
0
LTYPE
5
15
100
AcDbSymbolTableRecord
100
AcDbLinetypeTableRecord
2
BYLAYER
70
0
0
ENDTAB
0
TABLE
2
LAYER
5
2
100
AcDbSymbolTable
70
2
0
LAYER
5
50
100
AcDbSymbolTableRecord
100
AcDbLayerTableRecord
2
0
70
0
6
CONTINUOUS
0
ENDTAB
0
TABLE
2
STYLE
5
3
100
AcDbSymbolTable
70
1
0
STYLE
5
11
100
AcDbSymbolTableRecord
100
AcDbTextStyleTableRecord
2
STANDARD
70
0
0
ENDTAB
0
TABLE
2
VIEW
5
6
100
AcDbSymbolTable
70
0
0
ENDTAB
0
TABLE
2
UCS
5
7
100
AcDbSymbolTable
70
0
0
ENDTAB
0
TABLE
2
APPID
5
9
100
AcDbSymbolTable
70
2
0
APPID
5
12
100
AcDbSymbolTableRecord
100
AcDbRegAppTableRecord
2
ACAD
70
0
0
ENDTAB
0
TABLE
2
DIMSTYLE
5
A
100
AcDbSymbolTable
70
1
0
ENDTAB
0
TABLE
2
BLOCK_RECORD
5
1
100
AcDbSymbolTable
70
1
0
BLOCK_RECORD
5
1F
100
AcDbSymbolTableRecord
100
AcDbBlockTableRecord
2
*MODEL_SPACE
0
BLOCK_RECORD
5
1B
100
AcDbSymbolTableRecord
100
AcDbBlockTableRecord
2
*PAPER_SPACE
0
ENDTAB
0
ENDSEC
0
SECTION
2
BLOCKS
0
BLOCK
5
20
100
AcDbEntity
100
AcDbBlockBegin
2
*MODEL_SPACE
0
ENDBLK
5
21
100
AcDbEntity
100
AcDbBlockEnd
0
BLOCK
5
1C
100
AcDbEntity
100
AcDbBlockBegin
2
*PAPER_SPACE
0
ENDBLK
5
1D
100
AcDbEntity
100
AcDbBlockEnd
0
ENDSEC
0
SECTION
2
ENTITIES
0
SPLINE
5
100
100
AcDbEntity
8
0
100
AcDbSpline
70
4
71
3
72
8
73
4
74
0
42
0.000000001
43
0.0000000001
44
0.0000000001
40
-1
40
-1
40
-1
40
-1
40
0
40
0
40
0
40
0
41
1
41
1
41
1
41
1
10
97.220487145693966
20
136.19662960064119
30
0
10
97.196332500442452
20
136.19334385268186
30
0
10
97.077753437616565
20
136.33720369904168
30
0
10
96.956980211358982
20
136.51631779907962
30
0
0
SPLINE
5
101
100
AcDbEntity
8
0
100
AcDbSpline
70
4
71
3
72
8
73
4
74
0
42
0.000000001
43
0.0000000001
44
0.0000000001
40
-1
40
-1
40
-1
40
-1
40
0
40
0
40
0
40
0
41
1
41
1
41
1
41
1
10
96.956980211358982
20
136.51631779907962
30
0
10
96.836205414476169
20
136.69543189911752
30
0
10
96.322365950147812
20
137.26063709062618
30
0
10
95.815115258615492
20
137.77232793965419
30
0
0
SPLINE
5
102
100
AcDbEntity
8
0
100
AcDbSpline
70
4
71
3
72
8
73
4
74
0
42
0.000000001
43
0.0000000001
44
0.0000000001
40
-1
40
-1
40
-1
40
-1
40
0
40
0
40
0
40
0
41
1
41
1
41
1
41
1
10
95.815115258615492
20
137.77232793965419
30
0
10
94.378640280314158
20
139.22137734346325
30
0
10
92.885366782198133
20
140.45559034724084
30
0
10
88.96392868340493
20
143.43493445621604
30
0
0
SPLINE
5
103
100
AcDbEntity
8
0
100
AcDbSpline
70
4
71
3
72
8
73
4
74
0
42
0.000000001
43
0.0000000001
44
0.0000000001
40
-1
40
-1
40
-1
40
-1
40
0
40
0
40
0
40
0
41
1
41
1
41
1
41
1
10
88.96392868340493
20
143.43493445621604
30
0
10
86.265638533717578
20
145.48498360028736
30
0
10
85.258493959181308
20
146.31441821373201
30
0
10
84.225562859790415
20
147.33723762795944
30
0
0
SPLINE
5
104
100
AcDbEntity
8
0
100
AcDbSpline
70
4
71
3
72
8
73
4
74
0
42
0.000000001
43
0.0000000001
44
0.0000000001
40
-1
40
-1
40
-1
40
-1
40
0
40
0
40
0
40
0
41
1
41
1
41
1
41
1
10
84.225562859790415
20
147.33723762795944
30
0
10
81.964459381216301
20
149.57620000281349
30
0
10
80.525405436304482
20
152.08853912088219
30
0
10
79.944842671399044
20
154.81063366639711
30
0
0
SPLINE
5
105
100
AcDbEntity
8
0
100
AcDbSpline
70
4
71
3
72
8
73
4
74
0
42
0.000000001
43
0.0000000001
44
0.0000000001
40
-1
40
-1
40
-1
40
-1
40
0
40
0
40
0
40
0
41
1
41
1
41
1
41
1
10
79.944842671399044
20
154.81063366639711
30
0
10
79.72485776189788
20
155.84220617497311
30
0
10
79.72623048833978
20
158.15334034929089
30
0
10
79.947478180517436
20
159.20241904656399
30
0
0
SPLINE
5
106
100
AcDbEntity
8
0
100
AcDbSpline
70
4
71
3
72
8
73
4
74
0
42
0.000000001
43
0.0000000001
44
0.0000000001
40
-1
40
-1
40
-1
40
-1
40
0
40
0
40
0
40
0
41
1
41
1
41
1
41
1
10
79.947478180517436
20
159.20241904656399
30
0
10
80.291878596160331
20
160.83544599140333
30
0
10
80.98155583631862
20
162.42209787069751
30
0
10
81.851641371695735
20
163.58308675611428
30
0
0
SPLINE
5
107
100
AcDbEntity
8
0
100
AcDbSpline
70
4
71
3
72
8
73
4
74
0
42
0.000000001
43
0.0000000001
44
0.0000000001
40
-1
40
-1
40
-1
40
-1
40
0
40
0
40
0
40
0
41
1
41
1
41
1
41
1
10
81.851641371695735
20
163.58308675611428
30
0
10
82.488002168151056
20
164.43220758606083
30
0
10
82.852220732814288
20
164.7740486679084
30
0
10
83.781650771487008
20
165.39452494620579
30
0
0
SPLINE
5
108
100
AcDbEntity
8
0
100
AcDbSpline
70
4
71
3
72
8
73
4
74
0
42
0.000000001
43
0.0000000001
44
0.0000000001
40
-1
40
-1
40
-1
40
-1
40
0
40
0
40
0
40
0
41
1
41
1
41
1
41
1
10
83.781650771487008
20
165.39452494620579
30
0
10
87.29228084972938
20
167.73816792131788
30
0
10
90.65717261384934
20
167.73953043869585
30
0
10
93.771351756672786
20
165.39855988239481
30
0
0
SPLINE
5
109
100
AcDbEntity
8
0
100
AcDbSpline
70
4
71
3
72
8
73
4
74
0
42
0.000000001
43
0.0000000001
44
0.0000000001
40
-1
40
-1
40
-1
40
-1
40
0
40
0
40
0
40
0
41
1
41
1
41
1
41
1
10
93.771351756672786
20
165.39855988239481
30
0
10
94.60792014986464
20
164.76969882136288
30
0
10
95.974071954585654
20
163.2738353622598
30
0
10
96.605667474124829
20
162.29513323982445
30
0
0
SPLINE
5
110
100
AcDbEntity
8
0
100
AcDbSpline
70
4
71
3
72
8
73
4
74
0
42
0.000000001
43
0.0000000001
44
0.0000000001
40
-1
40
-1
40
-1
40
-1
40
0
40
0
40
0
40
0
41
1
41
1
41
1
41
1
10
96.605667474124829
20
162.29513323982445
30
0
10
96.919681003645024
20
161.80854804961839
30
0
10
97.196367054197282
20
161.41067491306316
30
0
10
97.22051855819835
20
161.41097097591708
30
0
0
SPLINE
5
111
100
AcDbEntity
8
0
100
AcDbSpline
70
4
71
3
72
8
73
4
74
0
42
0.000000001
43
0.0000000001
44
0.0000000001
40
-1
40
-1
40
-1
40
-1
40
0
40
0
40
0
40
0
41
1
41
1
41
1
41
1
10
97.22051855819835
20
161.41097097591708
30
0
10
97.244673203449864
20
161.41126625345834
30
0
10
97.521356112751704
20
161.80836193052986
30
0
10
97.835368071646656
20
162.29340633739554
30
0
0
SPLINE
5
112
100
AcDbEntity
8
0
100
AcDbSpline
70
4
71
3
72
8
73
4
74
0
42
0.000000001
43
0.0000000001
44
0.0000000001
40
-1
40
-1
40
-1
40
-1
40
0
40
0
40
0
40
0
41
1
41
1
41
1
41
1
10
97.835368071646656
20
162.29340633739554
30
0
10
99.012780984984317
20
164.1121102397527
30
0
10
101.02466236559528
20
165.90363839924851
30
0
10
102.63570291329869
20
166.56797752805235
30
0
0
SPLINE
5
113
100
AcDbEntity
8
0
100
AcDbSpline
70
4
71
3
72
8
73
4
74
0
42
0.000000001
43
0.0000000001
44
0.0000000001
40
-1
40
-1
40
-1
40
-1
40
0
40
0
40
0
40
0
41
1
41
1
41
1
41
1
10
102.63570291329869
20
166.56797752805235
30
0
10
105.28999042683502
20
167.66251797230547
30
0
10
108.00329182705825
20
167.22579227969416
30
0
10
110.90286545175755
20
165.23731871204285
30
0
0
SPLINE
5
114
100
AcDbEntity
8
0
100
AcDbSpline
70
4
71
3
72
8
73
4
74
0
42
0.000000001
43
0.0000000001
44
0.0000000001
40
-1
40
-1
40
-1
40
-1
40
0
40
0
40
0
40
0
41
1
41
1
41
1
41
1
10
110.90286545175755
20
165.23731871204285
30
0
10
112.30957237027266
20
164.27262499594065
30
0
10
113.43435127656522
20
162.6506968742153
30
0
10
114.1174079387668
20
160.60195920220229
30
0
0
SPLINE
5
115
100
AcDbEntity
8
0
100
AcDbSpline
70
4
71
3
72
8
73
4
74
0
42
0.000000001
43
0.0000000001
44
0.0000000001
40
-1
40
-1
40
-1
40
-1
40
0
40
0
40
0
40
0
41
1
41
1
41
1
41
1
10
114.1174079387668
20
160.60195920220229
30
0
10
114.8415054306116
20
158.43012377860677
30
0
10
114.87685627774071
20
155.99955612134366
30
0
10
114.21760754527344
20
153.71267397104103
30
0
0
SPLINE
5
116
100
AcDbEntity
8
0
100
AcDbSpline
70
4
71
3
72
8
73
4
74
0
42
0.000000001
43
0.0000000001
44
0.0000000001
40
-1
40
-1
40
-1
40
-1
40
0
40
0
40
0
40
0
41
1
41
1
41
1
41
1
10
114.21760754527344
20
153.71267397104103
30
0
10
113.92127454384978
20
152.68471861234565
30
0
10
113.02249604164925
20
150.85049222094366
30
0
10
112.31635432997068
20
149.83259828740478
30
0
0
SPLINE
5
117
100
AcDbEntity
8
0
100
AcDbSpline
70
4
71
3
72
8
73
4
74
0
42
0.000000001
43
0.0000000001
44
0.0000000001
40
-1
40
-1
40
-1
40
-1
40
0
40
0
40
0
40
0
41
1
41
1
41
1
41
1
10
112.31635432997068
20
149.83259828740478
30
0
10
110.85032646753824
20
147.71933619012205
30
0
10
109.52884638531179
20
146.49536994527682
30
0
10
105.07810523159111
20
143.12846778087584
30
0
0
SPLINE
5
118
100
AcDbEntity
8
0
100
AcDbSpline
70
4
71
3
72
8
73
4
74
0
42
0.000000001
43
0.0000000001
44
0.0000000001
40
-1
40
-1
40
-1
40
-1
40
0
40
0
40
0
40
0
41
1
41
1
41
1
41
1
10
105.07810523159111
20
143.12846778087584
30
0
10
101.18633153131961
20
140.18441876183445
30
0
10
98.942704399563496
20
138.26322999327618
30
0
10
97.89731195968065
20
136.97965852134888
30
0
0
SPLINE
5
119
100
AcDbEntity
8
0
100
AcDbSpline
70
4
71
3
72
8
73
4
74
0
42
0.000000001
43
0.0000000001
44
0.0000000001
40
-1
40
-1
40
-1
40
-1
40
0
40
0
40
0
40
0
41
1
41
1
41
1
41
1
10
97.89731195968065
20
136.97965852134888
30
0
10
97.549198586018733
20
136.55228197535695
30
0
10
97.244638649695048
20
136.19992477235178
30
0
10
97.220487145693966
20
136.19662960064119
30
0
0
LWPOLYLINE
5
120
100
AcDbEntity
8
0
100
AcDbPolyline
90
12
70
1
43
0.0
10
2.0000000000000107
20
308
10
2.0000000000000107
20
304
10
0
20
304
10
0
20
6.0000000000000142
10
2.0000000000000107
20
5.9999999999999964
10
2.0000000000000107
20
1.9999999999999929
10
5.0000000000000178
20
1.9999999999999929
10
5.0000000000000178
20
5.9999999999999964
10
122
20
6.0000000000000142
10
122
20
304
10
5.0000000000000178
20
304
10
5.0000000000000178
20
308
0
ENDSEC
0
SECTION
2
OBJECTS
0
DICTIONARY
5
C
100
AcDbDictionary
3
ACAD_GROUP
350
D
3
ACAD_MLINESTYLE
350
17
0
DICTIONARY
5
D
100
AcDbDictionary
0
DICTIONARY
5
1A
330
C
100
AcDbDictionary
0
DICTIONARY
5
17
100
AcDbDictionary
0
ENDSEC
0
EOF
