0
SECTION
2
HEADER
9
$INSUNITS
70
4
9
$ACADVER
1
AC1014
9
$HANDSEED
5
FFFF
0
ENDSEC
0
SECTION
2
TABLES
0
TABLE
2
VPORT
5
8
100
AcDbSymbolTable
0
ENDTAB
0
TABLE
2
LTYPE
5
5
100
AcDbSymbolTable
0
LTYPE
5
14
100
AcDbSymbolTableRecord
100
AcDbLinetypeTableRecord
2
BYBLOCK
70
0
0
LTYPE
5
15
100
AcDbSymbolTableRecord
100
AcDbLinetypeTableRecord
2
BYLAYER
70
0
0
ENDTAB
0
TABLE
2
LAYER
5
2
100
AcDbSymbolTable
70
2
0
LAYER
5
50
100
AcDbSymbolTableRecord
100
AcDbLayerTableRecord
2
0
70
0
6
CONTINUOUS
0
ENDTAB
0
TABLE
2
STYLE
5
3
100
AcDbSymbolTable
70
1
0
STYLE
5
11
100
AcDbSymbolTableRecord
100
AcDbTextStyleTableRecord
2
STANDARD
70
0
0
ENDTAB
0
TABLE
2
VIEW
5
6
100
AcDbSymbolTable
70
0
0
ENDTAB
0
TABLE
2
UCS
5
7
100
AcDbSymbolTable
70
0
0
ENDTAB
0
TABLE
2
APPID
5
9
100
AcDbSymbolTable
70
2
0
APPID
5
12
100
AcDbSymbolTableRecord
100
AcDbRegAppTableRecord
2
ACAD
70
0
0
ENDTAB
0
TABLE
2
DIMSTYLE
5
A
100
AcDbSymbolTable
70
1
0
ENDTAB
0
TABLE
2
BLOCK_RECORD
5
1
100
AcDbSymbolTable
70
1
0
BLOCK_RECORD
5
1F
100
AcDbSymbolTableRecord
100
AcDbBlockTableRecord
2
*MODEL_SPACE
0
BLOCK_RECORD
5
1B
100
AcDbSymbolTableRecord
100
AcDbBlockTableRecord
2
*PAPER_SPACE
0
ENDTAB
0
ENDSEC
0
SECTION
2
BLOCKS
0
BLOCK
5
20
100
AcDbEntity
100
AcDbBlockBegin
2
*MODEL_SPACE
0
ENDBLK
5
21
100
AcDbEntity
100
AcDbBlockEnd
0
BLOCK
5
1C
100
AcDbEntity
100
AcDbBlockBegin
2
*PAPER_SPACE
0
ENDBLK
5
1D
100
AcDbEntity
100
AcDbBlockEnd
0
ENDSEC
0
SECTION
2
ENTITIES
0
SPLINE
5
100
100
AcDbEntity
8
0
100
AcDbSpline
70
4
71
3
72
8
73
4
74
0
42
0.000000001
43
0.0000000001
44
0.0000000001
40
-1
40
-1
40
-1
40
-1
40
0
40
0
40
0
40
0
41
1
41
1
41
1
41
1
10
101.32531847690231
20
137.60467679616508
30
0
10
101.29793152640605
20
137.60095135885197
30
0
10
101.1634845540043
20
137.7640621166226
30
0
10
101.02654980152302
20
137.96714475103269
30
0
0
SPLINE
5
101
100
AcDbEntity
8
0
100
AcDbSpline
70
4
71
3
72
8
73
4
74
0
42
0.000000001
43
0.0000000001
44
0.0000000001
40
-1
40
-1
40
-1
40
-1
40
0
40
0
40
0
40
0
41
1
41
1
41
1
41
1
10
101.02654980152302
20
137.96714475103269
30
0
10
100.88961326823994
20
138.17022738544281
30
0
10
100.30701328276926
20
138.81106671216
30
0
10
99.731883760744296
20
139.3912305608026
30
0
0
SPLINE
5
102
100
AcDbEntity
8
0
100
AcDbSpline
70
4
71
3
72
8
73
4
74
0
42
0.000000001
43
0.0000000001
44
0.0000000001
40
-1
40
-1
40
-1
40
-1
40
0
40
0
40
0
40
0
41
1
41
1
41
1
41
1
10
99.731883760744296
20
139.3912305608026
30
0
10
98.103183827037839
20
141.03418759351894
30
0
10
96.410084758745541
20
142.43355943625673
30
0
10
91.963891077675555
20
145.81159081590164
30
0
0
SPLINE
5
103
100
AcDbEntity
8
0
100
AcDbSpline
70
4
71
3
72
8
73
4
74
0
42
0.000000001
43
0.0000000001
44
0.0000000001
40
-1
40
-1
40
-1
40
-1
40
0
40
0
40
0
40
0
41
1
41
1
41
1
41
1
10
91.963891077675555
20
145.81159081590164
30
0
10
88.904523490839154
20
148.13597164778523
30
0
10
87.762605722302879
20
149.07639881869815
30
0
10
86.591450750226215
20
150.23608898894796
30
0
0
SPLINE
5
104
100
AcDbEntity
8
0
100
AcDbSpline
70
4
71
3
72
8
73
4
74
0
42
0.000000001
43
0.0000000001
44
0.0000000001
40
-1
40
-1
40
-1
40
-1
40
0
40
0
40
0
40
0
41
1
41
1
41
1
41
1
10
86.591450750226215
20
150.23608898894796
30
0
10
84.027772899038069
20
152.77466287751531
30
0
10
82.396148888817208
20
155.62319599981541
30
0
10
81.737896882345041
20
158.70955341835227
30
0
0
SPLINE
5
105
100
AcDbEntity
8
0
100
AcDbSpline
70
4
71
3
72
8
73
4
74
0
42
0.000000001
43
0.0000000001
44
0.0000000001
40
-1
40
-1
40
-1
40
-1
40
0
40
0
40
0
40
0
41
1
41
1
41
1
41
1
10
81.737896882345041
20
158.70955341835227
30
0
10
81.488474224148348
20
159.87916799689361
30
0
10
81.490030644899605
20
162.49957150781961
30
0
10
81.740885067723326
20
163.68903490294403
30
0
0
SPLINE
5
106
100
AcDbEntity
8
0
100
AcDbSpline
70
4
71
3
72
8
73
4
74
0
42
0.000000001
43
0.0000000001
44
0.0000000001
40
-1
40
-1
40
-1
40
-1
40
0
40
0
40
0
40
0
41
1
41
1
41
1
41
1
10
81.740885067723326
20
163.68903490294403
30
0
10
82.131372157717308
20
165.54058882276649
30
0
10
82.913340025095664
20
167.33956189898223
30
0
10
83.899857907546661
20
168.65591098217214
30
0
0
SPLINE
5
107
100
AcDbEntity
8
0
100
AcDbSpline
70
4
71
3
72
8
73
4
74
0
42
0.000000001
43
0.0000000001
44
0.0000000001
40
-1
40
-1
40
-1
40
-1
40
0
40
0
40
0
40
0
41
1
41
1
41
1
41
1
10
83.899857907546661
20
168.65591098217214
30
0
10
84.621374677874115
20
169.61865872253173
30
0
10
85.034331924663832
20
170.0062439960335
30
0
10
86.08813562137783
20
170.70975062761048
30
0
0
SPLINE
5
108
100
AcDbEntity
8
0
100
AcDbSpline
70
4
71
3
72
8
73
4
74
0
42
0.000000001
43
0.0000000001
44
0.0000000001
40
-1
40
-1
40
-1
40
-1
40
0
40
0
40
0
40
0
41
1
41
1
41
1
41
1
10
86.08813562137783
20
170.70975062761048
30
0
10
90.068548132609081
20
173.3670131736734
30
0
10
93.883720047146952
20
173.36855801921314
30
0
10
97.414629697563868
20
170.71432550737018
30
0
0
SPLINE
5
109
100
AcDbEntity
8
0
100
AcDbSpline
70
4
71
3
72
8
73
4
74
0
42
0.000000001
43
0.0000000001
44
0.0000000001
40
-1
40
-1
40
-1
40
-1
40
0
40
0
40
0
40
0
41
1
41
1
41
1
41
1
10
97.414629697563868
20
170.71432550737018
30
0
10
98.363145270138418
20
170.00131206551794
30
0
10
99.912111585175282
20
168.30527645509878
30
0
10
100.62822540291768
20
167.19560722590427
30
0
0
SPLINE
5
110
100
AcDbEntity
8
0
100
AcDbSpline
70
4
71
3
72
8
73
4
74
0
42
0.000000001
43
0.0000000001
44
0.0000000001
40
-1
40
-1
40
-1
40
-1
40
0
40
0
40
0
40
0
41
1
41
1
41
1
41
1
10
100.62822540291768
20
167.19560722590427
30
0
10
100.98425932097257
20
166.6439086032326
30
0
10
101.29797070404508
20
166.19279322641108
30
0
10
101.3253540929378
20
166.19312890754568
30
0
0
SPLINE
5
111
100
AcDbEntity
8
0
100
AcDbSpline
70
4
71
3
72
8
73
4
74
0
42
0.000000001
43
0.0000000001
44
0.0000000001
40
-1
40
-1
40
-1
40
-1
40
0
40
0
40
0
40
0
41
1
41
1
41
1
41
1
10
101.3253540929378
20
166.19312890754568
30
0
10
101.35274104343407
20
166.19346369827934
30
0
10
101.66644886490303
20
166.64369757822226
30
0
10
102.02248100215614
20
167.19364923435276
30
0
0
SPLINE
5
112
100
AcDbEntity
8
0
100
AcDbSpline
70
4
71
3
72
8
73
4
74
0
42
0.000000001
43
0.0000000001
44
0.0000000001
40
-1
40
-1
40
-1
40
-1
40
0
40
0
40
0
40
0
41
1
41
1
41
1
41
1
10
102.02248100215614
20
167.19364923435276
30
0
10
103.35745192950628
20
169.25572686880173
30
0
10
105.63855749745791
20
171.28699218054044
30
0
10
107.46518286363434
20
172.04023126328519
30
0
0
SPLINE
5
113
100
AcDbEntity
8
0
100
AcDbSpline
70
4
71
3
72
8
73
4
74
0
42
0.000000001
43
0.0000000001
44
0.0000000001
40
-1
40
-1
40
-1
40
-1
40
0
40
0
40
0
40
0
41
1
41
1
41
1
41
1
10
107.46518286363434
20
172.04023126328519
30
0
10
110.47465950794502
20
173.28123996578424
30
0
10
113.55104710774506
20
172.78607289545693
30
0
10
116.83863334604436
20
170.53150750675758
30
0
0
SPLINE
5
114
100
AcDbEntity
8
0
100
AcDbSpline
70
4
71
3
72
8
73
4
74
0
42
0.000000001
43
0.0000000001
44
0.0000000001
40
-1
40
-1
40
-1
40
-1
40
0
40
0
40
0
40
0
41
1
41
1
41
1
41
1
10
116.83863334604436
20
170.53150750675758
30
0
10
118.43358174371104
20
169.43772124859345
30
0
10
119.70887533238147
20
167.59875136451339
30
0
10
120.48333667507816
20
165.27585750211185
30
0
0
SPLINE
5
115
100
AcDbEntity
8
0
100
AcDbSpline
70
4
71
3
72
8
73
4
74
0
42
0.000000001
43
0.0000000001
44
0.0000000001
40
-1
40
-1
40
-1
40
-1
40
0
40
0
40
0
40
0
41
1
41
1
41
1
41
1
10
120.48333667507816
20
165.27585750211185
30
0
10
121.30433081335354
20
162.81339330060217
30
0
10
121.34441220930221
20
160.05757406110888
30
0
10
120.59694470510996
20
157.46466791038924
30
0
0
SPLINE
5
116
100
AcDbEntity
8
0
100
AcDbSpline
70
4
71
3
72
8
73
4
74
0
42
0.000000001
43
0.0000000001
44
0.0000000001
40
-1
40
-1
40
-1
40
-1
40
0
40
0
40
0
40
0
41
1
41
1
41
1
41
1
10
120.59694470510996
20
157.46466791038924
30
0
10
120.26095727263517
20
156.29915451833546
30
0
10
119.24190681295933
20
154.21947721994511
30
0
10
118.44127124577508
20
153.06537164406137
30
0
0
SPLINE
5
117
100
AcDbEntity
8
0
100
AcDbSpline
70
4
71
3
72
8
73
4
74
0
42
0.000000001
43
0.0000000001
44
0.0000000001
40
-1
40
-1
40
-1
40
-1
40
0
40
0
40
0
40
0
41
1
41
1
41
1
41
1
10
118.44127124577508
20
153.06537164406137
30
0
10
116.77906374587202
20
150.66931888314321
30
0
10
115.280746994917
20
149.28156499118489
30
0
10
110.23442044450151
20
145.46411365037517
30
0
0
SPLINE
5
118
100
AcDbEntity
8
0
100
AcDbSpline
70
4
71
3
72
8
73
4
74
0
42
0.000000001
43
0.0000000001
44
0.0000000001
40
-1
40
-1
40
-1
40
-1
40
0
40
0
40
0
40
0
41
1
41
1
41
1
41
1
10
110.23442044450151
20
145.46411365037517
30
0
10
105.82186076655417
20
142.12610044821591
30
0
10
103.27799789671538
20
139.94782371715257
30
0
10
102.09271404335661
20
138.49248839783667
30
0
0
SPLINE
5
119
100
AcDbEntity
8
0
100
AcDbSpline
70
4
71
3
72
8
73
4
74
0
42
0.000000001
43
0.0000000001
44
0.0000000001
40
-1
40
-1
40
-1
40
-1
40
0
40
0
40
0
40
0
41
1
41
1
41
1
41
1
10
102.09271404335661
20
138.49248839783667
30
0
10
101.69801713796676
20
138.00792155007446
30
0
10
101.35270186579501
20
137.60841291828882
30
0
10
101.32531847690231
20
137.60467679616508
30
0
0
LWPOLYLINE
5
120
100
AcDbEntity
8
0
100
AcDbPolyline
90
12
70
1
43
0.0
10
3.0000000000000071
20
308.00000000000006
10
3.0000000000000071
20
8.0000000000000071
10
5.9999999999999964
20
8.0000000000000071
10
5.9999999999999964
20
5
10
9.0000000000000036
20
5
10
9.0000000000000036
20
8.0000000000000071
10
127
20
8.0000000000000071
10
127
20
308.00000000000006
10
9.0000000000000036
20
308.00000000000006
10
9.0000000000000036
20
311
10
5.9999999999999964
20
311
10
5.9999999999999964
20
308.00000000000006
0
ENDSEC
0
SECTION
2
OBJECTS
0
DICTIONARY
5
C
100
AcDbDictionary
3
ACAD_GROUP
350
D
3
ACAD_MLINESTYLE
350
17
0
DICTIONARY
5
D
100
AcDbDictionary
0
DICTIONARY
5
1A
330
C
100
AcDbDictionary
0
DICTIONARY
5
17
100
AcDbDictionary
0
ENDSEC
0
EOF
