0
SECTION
2
HEADER
9
$INSUNITS
70
4
9
$ACADVER
1
AC1014
9
$HANDSEED
5
FFFF
0
ENDSEC
0
SECTION
2
TABLES
0
TABLE
2
VPORT
5
8
100
AcDbSymbolTable
0
ENDTAB
0
TABLE
2
LTYPE
5
5
100
AcDbSymbolTable
0
LTYPE
5
14
100
AcDbSymbolTableRecord
100
AcDbLinetypeTableRecord
2
BYBLOCK
70
0
0
LTYPE
5
15
100
AcDbSymbolTableRecord
100
AcDbLinetypeTableRecord
2
BYLAYER
70
0
0
ENDTAB
0
TABLE
2
LAYER
5
2
100
AcDbSymbolTable
70
2
0
LAYER
5
50
100
AcDbSymbolTableRecord
100
AcDbLayerTableRecord
2
0
70
0
6
CONTINUOUS
0
ENDTAB
0
TABLE
2
STYLE
5
3
100
AcDbSymbolTable
70
1
0
STYLE
5
11
100
AcDbSymbolTableRecord
100
AcDbTextStyleTableRecord
2
STANDARD
70
0
0
ENDTAB
0
TABLE
2
VIEW
5
6
100
AcDbSymbolTable
70
0
0
ENDTAB
0
TABLE
2
UCS
5
7
100
AcDbSymbolTable
70
0
0
ENDTAB
0
TABLE
2
APPID
5
9
100
AcDbSymbolTable
70
2
0
APPID
5
12
100
AcDbSymbolTableRecord
100
AcDbRegAppTableRecord
2
ACAD
70
0
0
ENDTAB
0
TABLE
2
DIMSTYLE
5
A
100
AcDbSymbolTable
70
1
0
ENDTAB
0
TABLE
2
BLOCK_RECORD
5
1
100
AcDbSymbolTable
70
1
0
BLOCK_RECORD
5
1F
100
AcDbSymbolTableRecord
100
AcDbBlockTableRecord
2
*MODEL_SPACE
0
BLOCK_RECORD
5
1B
100
AcDbSymbolTableRecord
100
AcDbBlockTableRecord
2
*PAPER_SPACE
0
ENDTAB
0
ENDSEC
0
SECTION
2
BLOCKS
0
BLOCK
5
20
100
AcDbEntity
100
AcDbBlockBegin
2
*MODEL_SPACE
0
ENDBLK
5
21
100
AcDbEntity
100
AcDbBlockEnd
0
BLOCK
5
1C
100
AcDbEntity
100
AcDbBlockBegin
2
*PAPER_SPACE
0
ENDBLK
5
1D
100
AcDbEntity
100
AcDbBlockEnd
0
ENDSEC
0
SECTION
2
ENTITIES
0
LWPOLYLINE
5
100
100
AcDbEntity
8
0
100
AcDbPolyline
90
4
70
1
43
0.0
10
90
20
5
10
90
20
8
10
110
20
8
10
110
20
5
0
LWPOLYLINE
5
101
100
AcDbEntity
8
0
100
AcDbPolyline
90
4
70
1
43
0.0
10
68.000001013278961
20
311.00000467896461
10
62.000001013278961
20
311.00000467896461
10
62.000001013278961
20
314.00000467896461
10
68.000001013278961
20
314.00000467896461
0
LWPOLYLINE
5
102
100
AcDbEntity
8
0
100
AcDbPolyline
90
4
70
1
43
0.0
10
20
20
5
10
20
20
8
10
40
20
8
10
40
20
5
0
LWPOLYLINE
5
103
100
AcDbEntity
8
0
100
AcDbPolyline
90
10
70
1
43
0.0
10
2.9999999999999893
20
308
10
2.9999999999999893
20
0
10
127
20
0
10
127
20
308
10
69.999999999999986
20
308
10
69.999999999999986
20
314
42
0.41421356237309503
10
67.999999999999986
20
316
10
61.999999999999993
20
316
42
0.41421356237309503
10
59.999999999999993
20
314
10
59.999999999999993
20
308
0
SPLINE
5
104
100
AcDbEntity
8
0
100
AcDbSpline
70
0
71
3
72
9
73
5
74
0
42
0.000000001
43
0.0000000001
44
0.0000000001
40
0
40
0
40
0
40
0
40
0.13569553403754286
40
0.25952944063375938
40
0.25952944063375938
40
0.25952944063375938
40
0.25952944063375938
10
82.189631015062332
20
209.10642027854919
30
0
10
82.214482119653795
20
209.56599153156287
30
0
10
82.262012005729247
20
210.44496128596165
30
0
10
82.715206037960783
20
211.19776437590565
30
0
10
82.931446582078934
20
211.55696272850037
30
0
0
SPLINE
5
105
100
AcDbEntity
8
0
100
AcDbSpline
70
0
71
3
72
9
73
5
74
0
42
0.000000001
43
0.0000000001
44
0.0000000001
40
0
40
0
40
0
40
0
40
0.1223695563763192
40
0.25423670910696439
40
0.25423670910696439
40
0.25423670910696439
40
0.25423670910696439
10
82.931446582078934
20
211.55696272850037
30
0
10
83.212929252985859
20
211.86186584775484
30
0
10
83.797741603714144
20
212.49533685092925
30
0
10
84.618582977420331
20
212.76341648974119
30
0
10
85.044335871934891
20
212.90246367454529
30
0
0
SPLINE
5
106
100
AcDbEntity
8
0
100
AcDbSpline
70
0
71
3
72
9
73
5
74
0
42
0.000000001
43
0.0000000001
44
0.0000000001
40
0
40
0
40
0
40
0
40
0.11199735255216252
40
0.2102174998534177
40
0.2102174998534177
40
0.2102174998534177
40
0.2102174998534177
10
85.044335871934891
20
212.90246367454529
30
0
10
84.694181503026087
20
213.0476713280504
30
0
10
84.036946538829298
20
213.3202241088423
30
0
10
83.56591685092701
20
213.85140687736401
30
0
10
83.345837146043777
20
214.09959197044373
30
0
0
SPLINE
5
107
100
AcDbEntity
8
0
100
AcDbSpline
70
0
71
3
72
9
73
5
74
0
42
0.000000001
43
0.0000000001
44
0.0000000001
40
0
40
0
40
0
40
0
40
0.094956020213905964
40
0.19668249154338141
40
0.19668249154338141
40
0.19668249154338141
40
0.19668249154338141
10
83.345837146043777
20
214.09959197044373
30
0
10
83.184738004035822
20
214.37742943342627
30
0
10
82.851053203806742
20
214.95291442469281
30
0
10
82.812998651157244
20
215.61787688321436
30
0
10
82.793316394090652
20
215.96180319786072
30
0
0
SPLINE
5
108
100
AcDbEntity
8
0
100
AcDbSpline
70
0
71
3
72
9
73
5
74
0
42
0.000000001
43
0.0000000001
44
0.0000000001
40
0
40
0
40
0
40
0
40
0.15351013527190727
40
0.30617545352967324
40
0.30617545352967324
40
0.30617545352967324
40
0.30617545352967324
10
82.793316394090652
20
215.96180319786072
30
0
10
82.841800230299668
20
216.48524772752677
30
0
10
82.938501080141691
20
217.52925609859784
30
0
10
83.626789153150014
20
218.31994133814089
30
0
10
83.969983607530594
20
218.71419310569763
30
0
0
SPLINE
5
109
100
AcDbEntity
8
0
100
AcDbSpline
70
0
71
3
72
9
73
5
74
0
42
0.000000001
43
0.0000000001
44
0.0000000001
40
0
40
0
40
0
40
0
40
0.16060879676224774
40
0.33879295072422277
40
0.33879295072422277
40
0.33879295072422277
40
0.33879295072422277
10
83.969983607530594
20
218.71419310569763
30
0
10
84.410004818241703
20
219.03924451419456
30
0
10
85.338198586972453
20
219.72491757844622
30
0
10
86.493392830235678
20
219.79343590054395
30
0
10
87.100953608751297
20
219.8294723033905
30
0
0
SPLINE
5
110
100
AcDbEntity
8
0
100
AcDbSpline
70
0
71
3
72
9
73
5
74
0
42
0.000000001
43
0.0000000001
44
0.0000000001
40
0
40
0
40
0
40
0
40
0.17954832501726217
40
0.3426860843425959
40
0.3426860843425959
40
0.3426860843425959
40
0.3426860843425959
10
87.100953608751297
20
219.8294723033905
30
0
10
87.713154295433156
20
219.79172898320954
30
0
10
88.881601041626368
20
219.71969205052494
30
0
10
89.817213644395352
20
219.02115400513367
30
0
10
90.262617617845535
20
218.68861079216003
30
0
0
SPLINE
5
111
100
AcDbEntity
8
0
100
AcDbSpline
70
0
71
3
72
9
73
5
74
0
42
0.000000001
43
0.0000000001
44
0.0000000001
40
0
40
0
40
0
40
0
40
0.15511800671997431
40
0.30935433508899951
40
0.30935433508899951
40
0.30935433508899951
40
0.30935433508899951
10
90.262617617845535
20
218.68861079216003
30
0
10
90.611780812005492
20
218.28842971492759
30
0
10
91.308122584639833
20
217.49034215771752
30
0
10
91.409307289357429
20
216.43620816370776
30
0
10
91.459755450487137
20
215.9106433391571
30
0
0
SPLINE
5
112
100
AcDbEntity
8
0
100
AcDbSpline
70
0
71
3
72
9
73
5
74
0
42
0.000000001
43
0.0000000001
44
0.0000000001
40
0
40
0
40
0
40
0
40
0.098541545166981298
40
0.19206456375681924
40
0.19206456375681924
40
0.19206456375681924
40
0.19206456375681924
10
91.459755450487137
20
215.9106433391571
30
0
10
91.439426590953985
20
215.57761767785394
30
0
10
91.399804180616343
20
214.92852669547048
30
0
10
91.071977016059407
20
214.36761028456928
30
0
10
90.912346392869949
20
214.09448027610779
30
0
0
SPLINE
5
113
100
AcDbEntity
8
0
100
AcDbSpline
70
0
71
3
72
9
73
5
74
0
42
0.000000001
43
0.0000000001
44
0.0000000001
40
0
40
0
40
0
40
0
40
0.097131626512298161
40
0.20691089122310269
40
0.20691089122310269
40
0.20691089122310269
40
0.20691089122310269
10
90.912346392869949
20
214.09448027610779
30
0
10
90.695995176447113
20
213.84800654344809
30
0
10
90.23512136413035
20
213.32296540577852
30
0
10
89.591264677533999
20
213.04822877017409
30
0
10
89.249658137559891
20
212.90246367454529
30
0
0
SPLINE
5
114
100
AcDbEntity
8
0
100
AcDbSpline
70
0
71
3
72
9
73
5
74
0
42
0.000000001
43
0.0000000001
44
0.0000000001
40
0
40
0
40
0
40
0
40
0.1351136559978901
40
0.25893378448985471
40
0.25893378448985471
40
0.25893378448985471
40
0.25893378448985471
10
89.249658137559891
20
212.90246367454529
30
0
10
89.676763080569302
20
212.73723414111799
30
0
10
90.495273233750865
20
212.42058584910157
30
0
10
91.075066584563672
20
211.76365907222785
30
0
10
91.352319270372391
20
211.44952178001404
30
0
0
SPLINE
5
115
100
AcDbEntity
8
0
100
AcDbSpline
70
0
71
3
72
9
73
5
74
0
42
0.000000001
43
0.0000000001
44
0.0000000001
40
0
40
0
40
0
40
0
40
0.12257802825448737
40
0.25326195820919933
40
0.25326195820919933
40
0.25326195820919933
40
0.25326195820919933
10
91.352319270372391
20
211.44952178001404
30
0
10
91.562652101644758
20
211.09208437607276
30
0
10
91.9972267597811
20
210.35357276719421
30
0
10
92.047650292472667
20
209.49716475439777
30
0
10
92.073668986558914
20
209.055255651474
30
0
0
SPLINE
5
116
100
AcDbEntity
8
0
100
AcDbSpline
70
0
71
3
72
9
73
5
74
0
42
0.000000001
43
0.0000000001
44
0.0000000001
40
0
40
0
40
0
40
0
40
0.18025221025051666
40
0.35864901226945423
40
0.35864901226945423
40
0.35864901226945423
40
0.35864901226945423
10
92.073668986558914
20
209.055255651474
30
0
10
92.018148393893924
20
208.44077660307312
30
0
10
91.907678704272669
20
207.2181435853534
30
0
10
91.109732503344731
20
206.28575062612711
30
0
10
90.712823420763016
20
205.82196593284607
30
0
0
SPLINE
5
117
100
AcDbEntity
8
0
100
AcDbSpline
70
0
71
3
72
9
73
5
74
0
42
0.000000001
43
0.0000000001
44
0.0000000001
40
0
40
0
40
0
40
0
40
0.18568070553212424
40
0.3888811746002041
40
0.3888811746002041
40
0.3888811746002041
40
0.3888811746002041
10
90.712823420763016
20
205.82196593284607
30
0
10
90.208022138283098
20
205.44018531081034
30
0
10
89.150789427388872
20
204.64060144283991
30
0
10
87.824613564446111
20
204.55632277649335
30
0
10
87.131652384996414
20
204.51228499412537
30
0
0
SPLINE
5
118
100
AcDbEntity
8
0
100
AcDbSpline
70
0
71
3
72
9
73
5
74
0
42
0.000000001
43
0.0000000001
44
0.0000000001
40
0
40
0
40
0
40
0
40
0.20322172410605044
40
0.38910552382422103
40
0.38910552382422103
40
0.38910552382422103
40
0.38910552382422103
10
87.131652384996414
20
204.51228499412537
30
0
10
86.438552438717466
20
204.55662234244312
30
0
10
85.111484582927233
20
204.64151438446297
30
0
10
84.055122644592757
20
205.44381261591937
30
0
10
83.550476580858231
20
205.82708716392517
30
0
0
SPLINE
5
119
100
AcDbEntity
8
0
100
AcDbSpline
70
0
71
3
72
9
73
5
74
0
42
0.000000001
43
0.0000000001
44
0.0000000001
40
0
40
0
40
0
40
0
40
0.17955232028468118
40
0.36294572024266986
40
0.36294572024266986
40
0.36294572024266986
40
0.36294572024266986
10
83.550476580858231
20
205.82708716392517
30
0
10
83.153577042971634
20
206.2958239556005
30
0
10
82.351287279108732
20
207.24332500815768
30
0
10
82.243895282056599
20
208.48102230968829
30
0
10
82.189631015062332
20
209.10642027854919
30
0
0
SPLINE
5
120
100
AcDbEntity
8
0
100
AcDbSpline
70
0
71
3
72
9
73
5
74
0
42
0.000000001
43
0.0000000001
44
0.0000000001
40
0
40
0
40
0
40
0
40
0.19750424243479539
40
0.38522593264400934
40
0.38522593264400934
40
0.38522593264400934
40
0.38522593264400934
10
63.792628794908524
20
204.51228499412537
30
0
10
63.11393262234165
20
204.57024746703766
30
0
10
61.790156672843707
20
204.68330148253997
30
0
10
60.845656185560237
20
205.61400338904434
30
0
10
60.385398417711258
20
206.06753706932068
30
0
0
SPLINE
5
121
100
AcDbEntity
8
0
100
AcDbSpline
70
0
71
3
72
9
73
5
74
0
42
0.000000001
43
0.0000000001
44
0.0000000001
40
0
40
0
40
0
40
0
40
0.27006607900312252
40
0.63569698387997131
40
0.63569698387997131
40
0.63569698387997131
40
0.63569698387997131
10
60.385398417711258
20
206.06753706932068
30
0
10
59.955101615918437
20
206.87179670980362
30
0
10
58.942244391928689
20
208.76490905326634
30
0
10
58.916547339125096
20
210.92395264706249
30
0
10
58.901767283678055
20
212.16575980186462
30
0
0
SPLINE
5
122
100
AcDbEntity
8
0
100
AcDbSpline
70
0
71
3
72
9
73
5
74
0
42
0.000000001
43
0.0000000001
44
0.0000000001
40
0
40
0
40
0
40
0
40
0.24045628176966649
40
0.43302319785917642
40
0.43302319785917642
40
0.43302319785917642
40
0.43302319785917642
10
58.901767283678055
20
212.16575980186462
30
0
10
58.912604106145771
20
212.97073748439556
30
0
10
58.93211948534514
20
214.42037318419693
30
0
10
59.29001774531811
20
215.82373819137916
30
0
10
59.449176341295242
20
216.44781947135925
30
0
0
SPLINE
5
123
100
AcDbEntity
8
0
100
AcDbSpline
70
0
71
3
72
9
73
5
74
0
42
0.000000001
43
0.0000000001
44
0.0000000001
40
0
40
0
40
0
40
0
40
0.1589322921525356
40
0.30144048693558578
40
0.30144048693558578
40
0.30144048693558578
40
0.30144048693558578
10
59.449176341295242
20
216.44781947135925
30
0
10
59.643021483528997
20
216.94839064278392
30
0
10
60.01067976916525
20
217.8978038527523
30
0
10
60.734067354543413
20
218.61192198069807
30
0
10
61.076054126024246
20
218.94952654838562
30
0
0
SPLINE
5
124
100
AcDbEntity
8
0
100
AcDbSpline
70
0
71
3
72
9
73
5
74
0
42
0.000000001
43
0.0000000001
44
0.0000000001
40
0
40
0
40
0
40
0
40
0.13860772683827682
40
0.28998446794632882
40
0.28998446794632882
40
0.28998446794632882
40
0.28998446794632882
10
61.076054126024246
20
218.94952654838562
30
0
10
61.470198750610166
20
219.20604236834865
30
0
10
62.294797940436069
20
219.74270511629618
30
0
10
63.278907269704902
20
219.79971315431266
30
0
10
63.792628794908524
20
219.8294723033905
30
0
0
SPLINE
5
125
100
AcDbEntity
8
0
100
AcDbSpline
70
0
71
3
72
9
73
5
74
0
42
0.000000001
43
0.0000000001
44
0.0000000001
40
0
40
0
40
0
40
0
40
0.11396797392691693
40
0.21897954701531402
40
0.21897954701531402
40
0.21897954701531402
40
0.21897954701531402
10
63.792628794908524
20
219.8294723033905
30
0
10
64.175940333916373
20
219.81274722748378
30
0
10
64.912440109120837
20
219.78061144916239
30
0
10
65.58710108709262
20
219.4851462658682
30
0
10
65.910634547472
20
219.34345602989197
30
0
0
SPLINE
5
126
100
AcDbEntity
8
0
100
AcDbSpline
70
0
71
3
72
9
73
5
74
0
42
0.000000001
43
0.0000000001
44
0.0000000001
40
0
40
0
40
0
40
0
40
0.10214317585867021
40
0.20730849784564906
40
0.20730849784564906
40
0.20730849784564906
40
0.20730849784564906
10
65.910634547472
20
219.34345602989197
30
0
10
66.202361308452794
20
219.16137563755629
30
0
10
66.79444625286439
20
218.7918275761715
30
0
10
67.205970039374762
20
218.22780565237883
30
0
10
67.414731532335281
20
217.9416835308075
30
0
0
SPLINE
5
127
100
AcDbEntity
8
0
100
AcDbSpline
70
0
71
3
72
9
73
5
74
0
42
0.000000001
43
0.0000000001
44
0.0000000001
40
0
40
0
40
0
40
0
40
0.11452794626904066
40
0.24249677326374608
40
0.24249677326374608
40
0.24249677326374608
40
0.24249677326374608
10
67.414731532335281
20
217.9416835308075
30
0
10
67.604620809948941
20
217.60883441334761
30
0
10
68.006684573412613
20
216.90407335198984
30
0
10
68.228684684758392
20
216.12319855740324
30
0
10
68.345837146043777
20
215.71112036705017
30
0
0
SPLINE
5
128
100
AcDbEntity
8
0
100
AcDbSpline
70
0
71
3
72
9
73
5
74
0
42
0.000000001
43
0.0000000001
44
0.0000000001
40
0
40
0
40
0
40
0
40
0.15643742523713206
40
0.35677728105735629
40
0.35677728105735629
40
0.35677728105735629
40
0.35677728105735629
10
68.345837146043777
20
215.71112036705017
30
0
10
68.443939387217299
20
215.19794626778543
30
0
10
68.667675176901014
20
214.02758144257052
30
0
10
68.677803170523191
20
212.83527264642095
30
0
10
68.683490306138992
20
212.16575980186462
30
0
0
SPLINE
5
129
100
AcDbEntity
8
0
100
AcDbSpline
70
0
71
3
72
9
73
5
74
0
42
0.000000001
43
0.0000000001
44
0.0000000001
40
0
40
0
40
0
40
0
40
0.23891703726148664
40
0.43090241651569239
40
0.43090241651569239
40
0.43090241651569239
40
0.43090241651569239
10
68.683490306138992
20
212.16575980186462
30
0
10
68.672542883708317
20
211.36599746140917
30
0
10
68.652798495304438
20
209.92357406167767
30
0
10
68.298882403760516
20
208.52658108547942
30
0
10
68.141197711229324
20
207.90416121482849
30
0
0
SPLINE
5
130
100
AcDbEntity
8
0
100
AcDbSpline
70
0
71
3
72
9
73
5
74
0
42
0.000000001
43
0.0000000001
44
0.0000000001
40
0
40
0
40
0
40
0
40
0.15888458691488447
40
0.30159428167950203
40
0.30159428167950203
40
0.30159428167950203
40
0.30159428167950203
10
68.141197711229324
20
207.90416121482849
30
0
10
67.948656383705696
20
207.40326324166872
30
0
10
67.583174970463176
20
206.45246009994696
30
0
10
66.861107443910612
20
205.73624447153765
30
0
10
66.51943638920784
20
205.39734244346619
30
0
0
SPLINE
5
131
100
AcDbEntity
8
0
100
AcDbSpline
70
0
71
3
72
9
73
5
74
0
42
0.000000001
43
0.0000000001
44
0.0000000001
40
0
40
0
40
0
40
0
40
0.13901560639563207
40
0.29117000566184043
40
0.29117000566184043
40
0.29117000566184043
40
0.29117000566184043
10
66.51943638920784
20
205.39734244346619
30
0
10
66.124540148263634
20
205.13934322408176
30
0
10
65.297424807095879
20
204.59896048492993
30
0
10
64.309093331278262
20
204.5420330907514
30
0
10
63.792628794908524
20
204.51228499412537
30
0
0
LWPOLYLINE
5
132
100
AcDbEntity
8
0
100
AcDbPolyline
90
28
70
1
43
0.0
10
38.202588111162186
20
208.87108206748962
10
37.312411814928055
20
204.51228499412537
10
35.777623206377029
20
204.51228499412537
10
36.66779950261116
20
208.87108206748962
10
34.938604384660721
20
208.87108206748962
10
34.938604384660721
20
210.39563536643982
10
36.974757462739944
20
210.39563536643982
10
37.731920033693314
20
214.10982489585876
10
34.938604384660721
20
214.10982489585876
10
34.938604384660721
20
215.63438296318054
10
38.038877993822098
20
215.63438296318054
10
38.929054290056229
20
220.02387881278992
10
40.463842898607254
20
220.02387881278992
10
39.573666602373123
20
215.63438296318054
10
42.796723395586014
20
215.63438296318054
10
43.686899691820145
20
220.02387881278992
10
45.231918841600418
20
220.02387881278992
10
44.341742545366287
20
215.63438296318054
10
46.111864596605301
20
215.63438296318054
10
46.111864596605301
20
214.10982489585876
10
44.034785777330399
20
214.10982489585876
10
43.267392665147781
20
210.39563536643982
10
46.111864596605301
20
210.39563536643982
10
46.111864596605301
20
208.87108206748962
10
42.960433512926102
20
208.87108206748962
10
42.07025483250618
20
204.51228499412537
10
40.535468608140945
20
204.51228499412537
10
41.415414363145828
20
208.87108206748962
0
LINE
5
133
100
AcDbEntity
8
0
100
AcDbLine
10
97.486357241868973
20
239.04501795768738
30
0
11
97.486357241868973
21
228.17871451377869
31
0
0
LINE
5
134
100
AcDbEntity
8
0
100
AcDbLine
10
97.486357241868973
20
228.17871451377869
30
0
11
95.839013606309891
21
228.17871451377869
31
0
0
LINE
5
135
100
AcDbEntity
8
0
100
AcDbLine
10
95.839013606309891
20
228.17871451377869
30
0
11
95.839013606309891
21
229.77489352226257
31
0
0
SPLINE
5
136
100
AcDbEntity
8
0
100
AcDbSpline
70
0
71
3
72
9
73
5
74
0
42
0.000000001
43
0.0000000001
44
0.0000000001
40
0
40
0
40
0
40
0
40
0.20364873172767511
40
0.40418009376893355
40
0.40418009376893355
40
0.40418009376893355
40
0.40418009376893355
10
95.839013606309891
20
229.77489352226257
30
0
10
95.380990647388558
20
229.23772818675224
30
0
10
94.471955953606553
20
228.17162021822182
30
0
10
93.080980064621485
20
228.01222905121665
30
0
10
92.390856295824051
20
227.93314814567566
30
0
0
SPLINE
5
137
100
AcDbEntity
8
0
100
AcDbSpline
70
0
71
3
72
9
73
5
74
0
42
0.000000001
43
0.0000000001
44
0.0000000001
40
0
40
0
40
0
40
0
40
0.093437653576151913
40
0.18432539104525414
40
0.18432539104525414
40
0.18432539104525414
40
0.18432539104525414
10
92.390856295824051
20
227.93314814567566
30
0
10
92.07756295109175
20
227.94762880215728
30
0
10
91.459526045524598
20
227.9761949376113
30
0
10
90.880608687713647
20
228.19406651715096
30
0
10
90.595154315233231
20
228.30149531364441
30
0
0
SPLINE
5
138
100
AcDbEntity
8
0
100
AcDbSpline
70
0
71
3
72
9
73
5
74
0
42
0.000000001
43
0.0000000001
44
0.0000000001
40
0
40
0
40
0
40
0
40
0.083698110179644222
40
0.15595843311202856
40
0.15595843311202856
40
0.15595843311202856
40
0.15595843311202856
10
90.595154315233231
20
228.30149531364441
30
0
10
90.341023255817959
20
228.42436278340676
30
0
10
89.867489483712035
20
228.65330723655455
30
0
10
89.518696179381635
20
229.04568419265468
30
0
10
89.357089549303055
20
229.22748446464539
30
0
0
SPLINE
5
139
100
AcDbEntity
8
0
100
AcDbSpline
70
0
71
3
72
9
73
5
74
0
42
0.000000001
43
0.0000000001
44
0.0000000001
40
0
40
0
40
0
40
0
40
0.07093352863501487
40
0.14878527802835473
40
0.14878527802835473
40
0.14878527802835473
40
0.14878527802835473
10
89.357089549303055
20
229.22748446464539
30
0
10
89.23127372763571
20
229.42956133197322
30
0
10
88.967371136472309
20
229.85342383348745
30
0
10
88.850416045016516
20
230.3392424061081
30
0
10
88.789219409227371
20
230.5934464931488
30
0
0
SPLINE
5
140
100
AcDbEntity
8
0
100
AcDbSpline
70
0
71
3
72
9
73
5
74
0
42
0.000000001
43
0.0000000001
44
0.0000000001
40
0
40
0
40
0
40
0
40
0.070595373905105951
40
0.17244184570405008
40
0.17244184570405008
40
0.17244184570405008
40
0.17244184570405008
10
88.789219409227371
20
230.5934464931488
30
0
10
88.75665234232568
20
230.82674882705274
30
0
10
88.677101448052511
20
231.39663156638824
30
0
10
88.676828168802956
20
231.97237139109518
30
0
10
88.676666766405106
20
232.31241106987
30
0
0
LINE
5
141
100
AcDbEntity
8
0
100
AcDbLine
10
88.676666766405106
20
232.31241106987002
30
0
11
88.676666766405106
21
239.04501795768738
31
0
0
LINE
5
142
100
AcDbEntity
8
0
100
AcDbLine
10
88.676666766405106
20
239.04501795768738
30
0
11
90.51841214299202
21
239.04501795768738
31
0
0
LINE
5
143
100
AcDbEntity
8
0
100
AcDbLine
10
90.51841214299202
20
239.04501795768738
30
0
11
90.51841214299202
21
233.01841616630554
31
0
0
SPLINE
5
144
100
AcDbEntity
8
0
100
AcDbSpline
70
0
71
3
72
9
73
5
74
0
42
0.000000001
43
0.0000000001
44
0.0000000001
40
0
40
0
40
0
40
0
40
0.12076985979532141
40
0.19492134996196775
40
0.19492134996196775
40
0.19492134996196775
40
0.19492134996196775
10
90.51841214299202
20
233.01841616630554
30
0
10
90.516499954479258
20
232.6151823553522
30
0
10
90.513413701278992
20
231.96436700362011
30
0
10
90.598569884549505
20
231.31962297544015
30
0
10
90.630964785814285
20
231.0743510723114
30
0
0
SPLINE
5
145
100
AcDbEntity
8
0
100
AcDbSpline
70
0
71
3
72
9
73
5
74
0
42
0.000000001
43
0.0000000001
44
0.0000000001
40
0
40
0
40
0
40
0
40
0.07028566912512596
40
0.13805069651973334
40
0.13805069651973334
40
0.13805069651973334
40
0.13805069651973334
10
90.630964785814285
20
231.0743510723114
30
0
10
90.703379894583492
20
230.8465142241331
30
0
10
90.845613102697939
20
230.39901139780477
30
0
10
91.195778160314021
20
230.08676307885892
30
0
10
91.367663890123367
20
229.93348956108093
30
0
0
SPLINE
5
146
100
AcDbEntity
8
0
100
AcDbSpline
70
0
71
3
72
9
73
5
74
0
42
0.000000001
43
0.0000000001
44
0.0000000001
40
0
40
0
40
0
40
0
40
0.070183119958514381
40
0.14711153873557781
40
0.14711153873557781
40
0.14711153873557781
40
0.14711153873557781
10
91.367663890123367
20
229.93348956108093
30
0
10
91.572156453176234
20
229.81269309524822
30
0
10
92.000795357067602
20
229.55949041669854
30
0
10
92.498789486367457
20
229.53296503508824
30
0
10
92.759203463792801
20
229.51909422874451
30
0
0
SPLINE
5
147
100
AcDbEntity
8
0
100
AcDbSpline
70
0
71
3
72
9
73
5
74
0
42
0.000000001
43
0.0000000001
44
0.0000000001
40
0
40
0
40
0
40
0
40
0.081019332925115123
40
0.16268896648469688
40
0.16268896648469688
40
0.16268896648469688
40
0.16268896648469688
10
92.759203463792801
20
229.51909422874451
30
0
10
93.031683279230009
20
229.53706886537202
30
0
10
93.578829965841095
20
229.5731624118169
30
0
10
94.0685944521056
20
229.81987374327446
30
0
10
94.314455538988113
20
229.94372248649597
30
0
0
SPLINE
5
148
100
AcDbEntity
8
0
100
AcDbSpline
70
0
71
3
72
9
73
5
74
0
42
0.000000001
43
0.0000000001
44
0.0000000001
40
0
40
0
40
0
40
0
40
0.079759048362344098
40
0.15691364423169255
40
0.15691364423169255
40
0.15691364423169255
40
0.15691364423169255
10
94.314455538988113
20
229.94372248649597
30
0
10
94.538046395264445
20
230.09596745751475
30
0
10
94.97792697051672
20
230.39548599126124
30
0
10
95.222505097597164
20
230.86772716154564
30
0
10
95.342764407396317
20
231.09992861747742
30
0
0
SPLINE
5
149
100
AcDbEntity
8
0
100
AcDbSpline
70
0
71
3
72
9
73
5
74
0
42
0.000000001
43
0.0000000001
44
0.0000000001
40
0
40
0
40
0
40
0
40
0.092471218299151475
40
0.21535803398729542
40
0.21535803398729542
40
0.21535803398729542
40
0.21535803398729542
10
95.342764407396317
20
231.09992861747742
30
0
10
95.430362766839181
20
231.3968974417391
30
0
10
95.634372304261888
20
232.08851396118001
30
0
10
95.640888722250764
20
232.81086532996363
30
0
10
95.644607096910477
20
233.22305083274841
30
0
0
LINE
5
150
100
AcDbEntity
8
0
100
AcDbLine
10
95.644607096910477
20
233.22305083274841
30
0
11
95.644607096910477
21
239.04501795768738
31
0
0
LINE
5
151
100
AcDbEntity
8
0
100
AcDbLine
10
95.644607096910477
20
239.04501795768738
30
0
11
97.486357241868973
21
239.04501795768738
31
0
0
LWPOLYLINE
5
152
100
AcDbEntity
8
0
100
AcDbPolyline
90
10
70
1
43
0.0
10
73.584579974412918
20
234.99317526817322
10
73.584579974412918
20
228.17871451377869
10
71.599587947130203
20
228.17871451377869
10
71.599587947130203
20
243.17871451377869
10
81.718959361314774
20
243.17871451377869
10
81.718959361314774
20
241.40859007835388
10
73.584579974412918
20
241.40859007835388
10
73.584579974412918
20
236.76329970359802
10
80.624146014451981
20
236.76329970359802
10
80.624146014451981
20
234.99317526817322
0
SPLINE
5
153
100
AcDbEntity
8
0
100
AcDbSpline
70
0
71
3
72
9
73
5
74
0
42
0.000000001
43
0.0000000001
44
0.0000000001
40
0
40
0
40
0
40
0
40
0.15585622998964771
40
0.3031409149657236
40
0.3031409149657236
40
0.3031409149657236
40
0.3031409149657236
10
34.513980895280838
20
276.44270181655884
30
0
10
35.042797134426863
20
276.47804624892848
30
0
10
36.071346577680494
20
276.5467912940781
30
0
10
36.923810588201491
20
277.1240395660509
30
0
10
37.337990552186966
20
277.40450263023376
30
0
0
SPLINE
5
154
100
AcDbEntity
8
0
100
AcDbSpline
70
0
71
3
72
9
73
5
74
0
42
0.000000001
43
0.0000000001
44
0.0000000001
40
0
40
0
40
0
40
0
40
0.15384717014983881
40
0.33023478343482082
40
0.33023478343482082
40
0.33023478343482082
40
0.33023478343482082
10
37.337990552186966
20
277.40450263023376
30
0
10
37.696060214308076
20
277.78301923750405
30
0
10
38.464661009564686
20
278.59550964409812
30
0
10
38.750695407017673
20
279.67996956490919
30
0
10
38.903474360704422
20
280.25920987129211
30
0
0
LINE
5
155
100
AcDbEntity
8
0
100
AcDbLine
10
38.903474360704422
20
280.25920987129211
30
0
11
40.888468772172928
21
279.75784420967102
31
0
0
SPLINE
5
156
100
AcDbEntity
8
0
100
AcDbSpline
70
0
71
3
72
9
73
5
74
0
42
0.000000001
43
0.0000000001
44
0.0000000001
40
0
40
0
40
0
40
0
40
0.23254125069859402
40
0.44140034648464804
40
0.44140034648464804
40
0.44140034648464804
40
0.44140034648464804
10
40.888468772172928
20
279.75784420967102
30
0
10
40.654745390288092
20
279.00416825986076
30
0
10
40.211101170453546
20
277.57357121789937
30
0
10
39.146365874493789
20
276.52463706618101
30
0
10
38.642560988664627
20
276.0283088684082
30
0
0
SPLINE
5
157
100
AcDbEntity
8
0
100
AcDbSpline
70
0
71
3
72
9
73
5
74
0
42
0.000000001
43
0.0000000001
44
0.0000000001
40
0
40
0
40
0
40
0
40
0.20433014605161987
40
0.42297694166879574
40
0.42297694166879574
40
0.42297694166879574
40
0.42297694166879574
10
38.642560988664627
20
276.0283088684082
30
0
10
38.059498911613154
20
275.65389581200395
30
0
10
36.852521777206448
20
274.87883597585653
30
0
10
35.418810379085919
20
274.79008129465677
30
0
10
34.677691012620926
20
274.74420189857483
30
0
0
SPLINE
5
158
100
AcDbEntity
8
0
100
AcDbSpline
70
0
71
3
72
9
73
5
74
0
42
0.000000001
43
0.0000000001
44
0.0000000001
40
0
40
0
40
0
40
0
40
0.22123991254730138
40
0.41087873837369099
40
0.41087873837369099
40
0.41087873837369099
40
0.41087873837369099
10
34.677691012620926
20
274.74420189857483
30
0
10
33.930305135995347
20
274.77110436068011
30
0
10
32.542287203197716
20
274.82106663720464
30
0
10
31.304552820063503
20
275.44404869378116
30
0
10
30.733283311128616
20
275.73158264160156
30
0
0
SPLINE
5
159
100
AcDbEntity
8
0
100
AcDbSpline
70
0
71
3
72
9
73
5
74
0
42
0.000000001
43
0.0000000001
44
0.0000000001
40
0
40
0
40
0
40
0
40
0.18029408453870513
40
0.37202864095351817
40
0.37202864095351817
40
0.37202864095351817
40
0.37202864095351817
10
30.733283311128616
20
275.73158264160156
30
0
10
30.253306439999331
20
276.10667846470204
30
0
10
29.262896003005679
20
276.88067163065898
30
0
10
28.707240210513852
20
278.00958864834161
30
0
10
28.420868664979935
20
278.59140515327454
30
0
0
SPLINE
5
160
100
AcDbEntity
8
0
100
AcDbSpline
70
0
71
3
72
9
73
5
74
0
42
0.000000001
43
0.0000000001
44
0.0000000001
40
0
40
0
40
0
40
0
40
0.20305560194575753
40
0.41196217462544921
40
0.41196217462544921
40
0.41196217462544921
40
0.41196217462544921
10
28.420868664979935
20
278.59140515327454
30
0
10
28.189597756523955
20
279.23201200928804
30
0
10
27.720391955442043
20
280.53168456672773
30
0
10
27.659017895645746
20
281.91239256718711
30
0
10
27.627895027399063
20
282.61255145072937
30
0
0
SPLINE
5
161
100
AcDbEntity
8
0
100
AcDbSpline
70
0
71
3
72
9
73
5
74
0
42
0.000000001
43
0.0000000001
44
0.0000000001
40
0
40
0
40
0
40
0
40
0.22048587793507088
40
0.42145381205300725
40
0.42145381205300725
40
0.42145381205300725
40
0.42145381205300725
10
27.627895027399063
20
282.61255145072937
30
0
10
27.657785173667495
20
283.35376281701826
30
0
10
27.714919518078261
20
284.77057172462304
30
0
10
28.262214011116722
20
286.07716430942202
30
0
10
28.523188382387161
20
286.70020580291748
30
0
0
SPLINE
5
162
100
AcDbEntity
8
0
100
AcDbSpline
70
0
71
3
72
9
73
5
74
0
42
0.000000001
43
0.0000000001
44
0.0000000001
40
0
40
0
40
0
40
0
40
0.18793341085214249
40
0.37190899793624721
40
0.37190899793624721
40
0.37190899793624721
40
0.37190899793624721
10
28.523188382387161
20
286.70020580291748
30
0
10
28.850181229936123
20
287.24511218268856
30
0
10
29.497280549385671
20
288.32344937005098
30
0
10
30.550120034610686
20
289.01043581312751
30
0
10
31.070937663316727
20
289.35027360916138
30
0
0
SPLINE
5
163
100
AcDbEntity
8
0
100
AcDbSpline
70
0
71
3
72
9
73
5
74
0
42
0.000000001
43
0.0000000001
44
0.0000000001
40
0
40
0
40
0
40
0
40
0.18637349214853419
40
0.37790210383249417
40
0.37790210383249417
40
0.37790210383249417
40
0.37790210383249417
10
31.070937663316727
20
289.35027360916138
30
0
10
31.640008244932822
20
289.61437141377314
30
0
10
32.793889988214815
20
290.14987200900157
30
0
10
34.064444213249871
20
290.22017054152053
30
0
10
34.708387404680252
20
290.25579929351807
30
0
0
SPLINE
5
164
100
AcDbEntity
8
0
100
AcDbSpline
70
0
71
3
72
9
73
5
74
0
42
0.000000001
43
0.0000000001
44
0.0000000001
40
0
40
0
40
0
40
0
40
0.20916755867728404
40
0.40089612038188271
40
0.40089612038188271
40
0.40089612038188271
40
0.40089612038188271
10
34.708387404680252
20
290.25579929351807
30
0
10
35.416626958070083
20
290.21692541486999
30
0
10
36.774057771196532
20
290.14241870248702
30
0
10
37.937690530812546
20
289.44389341080398
30
0
10
38.494197875261307
20
289.10982370376587
30
0
0
SPLINE
5
165
100
AcDbEntity
8
0
100
AcDbSpline
70
0
71
3
72
9
73
5
74
0
42
0.000000001
43
0.0000000001
44
0.0000000001
40
0
40
0
40
0
40
0
40
0.18963622377462533
40
0.39214870495090048
40
0.39214870495090048
40
0.39214870495090048
40
0.39214870495090048
10
38.494197875261307
20
289.10982370376587
30
0
10
38.970009864906501
20
288.67831063673111
30
0
10
39.953941372429178
20
287.78598486141829
30
0
10
40.401529493253037
20
286.5335475454707
30
0
10
40.632671862840652
20
285.88676691055298
30
0
0
LINE
5
166
100
AcDbEntity
8
0
100
AcDbLine
10
40.63267186284066
20
285.88676691055298
30
0
11
38.678373843431473
21
285.42633056640625
31
0
0
SPLINE
5
167
100
AcDbEntity
8
0
100
AcDbSpline
70
0
71
3
72
9
73
5
74
0
42
0.000000001
43
0.0000000001
44
0.0000000001
40
0
40
0
40
0
40
0
40
0.15524003879219525
40
0.28582364783473052
40
0.28582364783473052
40
0.28582364783473052
40
0.28582364783473052
10
38.678373843431473
20
285.42633056640625
30
0
10
38.501464108296176
20
285.92157200028134
30
0
10
38.17574281740206
20
286.83339677364779
30
0
10
37.48131182966781
20
287.50399501517063
30
0
10
37.164048701524734
20
287.81036972999573
30
0
0
SPLINE
5
168
100
AcDbEntity
8
0
100
AcDbSpline
70
0
71
3
72
9
73
5
74
0
42
0.000000001
43
0.0000000001
44
0.0000000001
40
0
40
0
40
0
40
0
40
0.12526412288562
40
0.26414458456216727
40
0.26414458456216727
40
0.26414458456216727
40
0.26414458456216727
10
37.164048701524734
20
287.81036972999573
30
0
10
36.800136353500271
20
288.02806691806938
30
0
10
36.032754011520844
20
288.48712520211268
30
0
10
35.137932391628297
20
288.53311769825746
30
0
10
34.667458087205887
20
288.55729937553406
30
0
0
SPLINE
5
169
100
AcDbEntity
8
0
100
AcDbSpline
70
0
71
3
72
9
73
5
74
0
42
0.000000001
43
0.0000000001
44
0.0000000001
40
0
40
0
40
0
40
0
40
0.16006929732599706
40
0.30446256852302472
40
0.30446256852302472
40
0.30446256852302472
40
0.30446256852302472
10
34.667458087205887
20
288.55729937553406
30
0
10
34.125901158788366
20
288.5304577397236
30
0
10
33.095823460054966
20
288.47940314325353
30
0
10
32.201214331798163
20
287.9700685739902
30
0
10
31.776940375566483
20
287.72851347923279
30
0
0
SPLINE
5
170
100
AcDbEntity
8
0
100
AcDbSpline
70
0
71
3
72
9
73
5
74
0
42
0.000000001
43
0.0000000001
44
0.0000000001
40
0
40
0
40
0
40
0
40
0.13855722791077238
40
0.27955801850878986
40
0.27955801850878986
40
0.27955801850878986
40
0.27955801850878986
10
31.776940375566483
20
287.72851347923279
30
0
10
31.417940340267574
20
287.42658738115279
30
0
10
30.693609029472452
20
286.81741048733028
30
0
10
30.32889797435012
20
285.94372929165706
30
0
10
30.14494851231575
20
285.50307035446167
30
0
0
SPLINE
5
171
100
AcDbEntity
8
0
100
AcDbSpline
70
0
71
3
72
9
73
5
74
0
42
0.000000001
43
0.0000000001
44
0.0000000001
40
0
40
0
40
0
40
0
40
0.14616670322494529
40
0.29282804378245753
40
0.29282804378245753
40
0.29282804378245753
40
0.29282804378245753
10
30.14494851231575
20
285.50307035446167
30
0
10
30.007669789396978
20
285.0334776864334
30
0
10
29.732647783712185
20
284.0927032192028
30
0
10
29.693757320651525
20
283.1133087794982
30
0
10
29.674279242753983
20
282.62278437614441
30
0
0
SPLINE
5
172
100
AcDbEntity
8
0
100
AcDbSpline
70
0
71
3
72
9
73
5
74
0
42
0.000000001
43
0.0000000001
44
0.0000000001
40
0
40
0
40
0
40
0
40
0.17972808415689762
40
0.3401611145199297
40
0.3401611145199297
40
0.3401611145199297
40
0.3401611145199297
10
29.674279242753983
20
282.62278437614441
30
0
10
29.691767149094588
20
282.02050017770341
30
0
10
29.724865513990348
20
280.88059115813917
30
0
10
30.069415738566398
20
279.7943662135865
30
0
10
30.231918841600418
20
279.28206086158752
30
0
0
SPLINE
5
173
100
AcDbEntity
8
0
100
AcDbSpline
70
0
71
3
72
9
73
5
74
0
42
0.000000001
43
0.0000000001
44
0.0000000001
40
0
40
0
40
0
40
0
40
0.14361617967061005
40
0.27889018376602276
40
0.27889018376602276
40
0.27889018376602276
40
0.27889018376602276
10
30.231918841600418
20
279.28206086158752
30
0
10
30.437411740405199
20
278.84012461743089
30
0
10
30.836461154208862
20
277.98192270293634
30
0
10
31.597226010307303
20
277.42084963937776
30
0
10
31.966230422258377
20
277.14870452880859
30
0
0
SPLINE
5
174
100
AcDbEntity
8
0
100
AcDbSpline
70
0
71
3
72
9
73
5
74
0
42
0.000000001
43
0.0000000001
44
0.0000000001
40
0
40
0
40
0
40
0
40
0.13347910661600171
40
0.26689941073834689
40
0.26689941073834689
40
0.26689941073834689
40
0.26689941073834689
10
31.966230422258377
20
277.14870452880859
30
0
10
32.366504320687795
20
276.94278737199249
30
0
10
33.16687578205886
20
276.5310437724998
30
0
10
34.065011815770504
20
276.47214480972372
30
0
10
34.513980895280838
20
276.44270181655884
30
0
0
SPLINE
5
175
100
AcDbEntity
8
0
100
AcDbSpline
70
0
71
3
72
9
73
5
74
0
42
0.000000001
43
0.0000000001
44
0.0000000001
40
0
40
0
40
0
40
0
40
0.094815669452331566
40
0.18335906207687877
40
0.18335906207687877
40
0.18335906207687877
40
0.18335906207687877
10
40.873119384050369
20
229.4474732875824
30
0
10
41.194007288464022
20
229.4664472528134
30
0
10
41.814555616867537
20
229.50314001139145
30
0
10
42.345785577550963
20
229.82439847077856
30
0
10
42.602314502000809
20
229.97953295707703
30
0
0
SPLINE
5
176
100
AcDbEntity
8
0
100
AcDbSpline
70
0
71
3
72
9
73
5
74
0
42
0.000000001
43
0.0000000001
44
0.0000000001
40
0
40
0
40
0
40
0
40
0.09429945653643669
40
0.20652593823889079
40
0.20652593823889079
40
0.20652593823889079
40
0.20652593823889079
10
42.602314502000809
20
229.97953295707703
30
0
10
42.833624311313173
20
230.19786514127162
30
0
10
43.340217638005768
20
230.67603607506817
30
0
10
43.597987208096086
20
231.32524866166082
30
0
10
43.738059550523758
20
231.67803168296814
30
0
0
LINE
5
177
100
AcDbEntity
8
0
100
AcDbLine
10
43.738059550523758
20
231.67803168296814
30
0
11
45.641197711229324
21
231.44269824028015
31
0
0
SPLINE
5
178
100
AcDbEntity
8
0
100
AcDbSpline
70
0
71
3
72
9
73
5
74
0
42
0.000000001
43
0.0000000001
44
0.0000000001
40
0
40
0
40
0
40
0
40
0.16142510291743939
40
0.31238710132113046
40
0.31238710132113046
40
0.31238710132113046
40
0.31238710132113046
10
45.641197711229324
20
231.44269824028015
30
0
10
45.466347100174723
20
230.92345527859885
30
0
10
45.127979184872785
20
229.91862517008718
30
0
10
44.349564305351933
20
229.200875501832
30
0
10
43.973392993211746
20
228.85402083396912
30
0
0
SPLINE
5
179
100
AcDbEntity
8
0
100
AcDbSpline
70
0
71
3
72
9
73
5
74
0
42
0.000000001
43
0.0000000001
44
0.0000000001
40
0
40
0
40
0
40
0
40
0.1548926846057459
40
0.32883087083517942
40
0.32883087083517942
40
0.32883087083517942
40
0.32883087083517942
10
43.973392993211746
20
228.85402083396912
30
0
10
43.522938760210252
20
228.58567802503154
30
0
10
42.566642740896626
20
228.01599715359521
30
0
10
41.452320230151898
20
227.96181062194768
30
0
10
40.862888842821121
20
227.93314814567566
30
0
0
SPLINE
5
180
100
AcDbEntity
8
0
100
AcDbSpline
70
0
71
3
72
9
73
5
74
0
42
0.000000001
43
0.0000000001
44
0.0000000001
40
0
40
0
40
0
40
0
40
0.21684871812374579
40
0.41468132557525827
40
0.41468132557525827
40
0.41468132557525827
40
0.41468132557525827
10
40.862888842821121
20
227.93314814567566
30
0
10
40.121232004033196
20
227.98229505955234
30
0
10
38.702956426056168
20
228.07627904788603
30
0
10
37.605673553261532
20
228.9734264902917
30
0
10
37.0821912586689
20
229.4014298915863
30
0
0
SPLINE
5
181
100
AcDbEntity
8
0
100
AcDbSpline
70
0
71
3
72
9
73
5
74
0
42
0.000000001
43
0.0000000001
44
0.0000000001
40
0
40
0
40
0
40
0
40
0.2051333446964653
40
0.44317031108952709
40
0.44317031108952709
40
0.44317031108952709
40
0.44317031108952709
10
37.0821912586689
20
229.4014298915863
30
0
10
36.675430001033533
20
229.96886222300716
30
0
10
35.796662517608695
20
231.19474367689827
30
0
10
35.724366099228902
20
232.70733140393102
30
0
10
35.685534030199051
20
233.51977705955505
30
0
0
SPLINE
5
182
100
AcDbEntity
8
0
100
AcDbSpline
70
0
71
3
72
9
73
5
74
0
42
0.000000001
43
0.0000000001
44
0.0000000001
40
0
40
0
40
0
40
0
40
0.24606500014503774
40
0.45674404743908825
40
0.45674404743908825
40
0.45674404743908825
40
0.45674404743908825
10
35.685534030199051
20
233.51977705955505
30
0
10
35.72383846901679
20
234.35916556605628
30
0
10
35.794938887240384
20
235.91723235169113
30
0
10
36.686360026353327
20
237.18943801303851
30
0
10
37.097539454698563
20
237.77625918388367
30
0
0
SPLINE
5
183
100
AcDbEntity
8
0
100
AcDbSpline
70
0
71
3
72
9
73
5
74
0
42
0.000000001
43
0.0000000001
44
0.0000000001
40
0
40
0
40
0
40
0
40
0.19799057050398308
40
0.40559835837538705
40
0.40559835837538705
40
0.40559835837538705
40
0.40559835837538705
10
37.097539454698563
20
237.77625918388367
30
0
10
37.611689688556083
20
238.21786863173955
30
0
10
38.664964550485621
20
239.12253831695472
30
0
10
40.051078797052178
20
239.23369047309745
30
0
10
40.760569125413895
20
239.29058432579041
30
0
0
SPLINE
5
184
100
AcDbEntity
8
0
100
AcDbSpline
70
0
71
3
72
9
73
5
74
0
42
0.000000001
43
0.0000000001
44
0.0000000001
40
0
40
0
40
0
40
0
40
0.20143178244357213
40
0.39475020451408932
40
0.39475020451408932
40
0.39475020451408932
40
0.39475020451408932
10
40.760569125413895
20
239.29058432579041
30
0
10
41.448822083735379
20
239.23401096631042
30
0
10
42.797606236657913
20
239.12314293469268
30
0
10
43.820395310631461
20
238.23963011541397
30
0
10
44.321279078722
20
237.8069531917572
30
0
0
SPLINE
5
185
100
AcDbEntity
8
0
100
AcDbSpline
70
0
71
3
72
9
73
5
74
0
42
0.000000001
43
0.0000000001
44
0.0000000001
40
0
40
0
40
0
40
0
40
0.20642569483347664
40
0.44782391846682174
40
0.44782391846682174
40
0.44782391846682174
40
0.44782391846682174
10
44.321279078722
20
237.8069531917572
30
0
10
44.72350942930295
20
237.23158377843964
30
0
10
45.59611577740683
20
235.98336617914481
30
0
10
45.665296459219142
20
234.4557739803854
30
0
10
45.702588111162186
20
233.63232970237732
30
0
0
SPLINE
5
186
100
AcDbEntity
8
0
100
AcDbSpline
70
0
71
3
72
9
73
5
74
0
42
0.000000001
43
0.0000000001
44
0.0000000001
40
0
40
0
40
0
40
0
40
0.020465542462597509
40
0.049125144009214403
40
0.049125144009214403
40
0.049125144009214403
40
0.049125144009214403
10
45.702588111162186
20
233.63232970237732
30
0
10
45.701938146837691
20
233.56411257492854
30
0
10
45.700377983402014
20
233.40036532923787
30
0
10
45.695312671895671
20
233.2366869233075
30
0
10
45.692357569932938
20
233.14119696617126
30
0
0
LINE
5
187
100
AcDbEntity
8
0
100
AcDbLine
10
45.692357569932931
20
233.14119696617126
30
0
11
37.588672190904617
21
233.14119696617126
31
0
0
SPLINE
5
188
100
AcDbEntity
8
0
100
AcDbSpline
70
0
71
3
72
9
73
5
74
0
42
0.000000001
43
0.0000000001
44
0.0000000001
40
0
40
0
40
0
40
0
40
0.16098700206818092
40
0.2970288398730011
40
0.2970288398730011
40
0.2970288398730011
40
0.2970288398730011
10
37.588672190904617
20
233.14119696617126
30
0
10
37.641893938682102
20
232.59559510668581
30
0
10
37.740090648946108
20
231.58893316955078
30
0
10
38.330993112517092
20
230.77282482795971
30
0
10
38.601631671190262
20
230.39903998374939
30
0
0
SPLINE
5
189
100
AcDbEntity
8
0
100
AcDbSpline
70
0
71
3
72
9
73
5
74
0
42
0.000000001
43
0.0000000001
44
0.0000000001
40
0
40
0
40
0
40
0
40
0.12474980293479465
40
0.25182595163376209
40
0.25182595163376209
40
0.25182595163376209
40
0.25182595163376209
10
38.601631671190262
20
230.39903998374939
30
0
10
38.925997277144866
20
230.12150758738977
30
0
10
39.580777288616915
20
229.56126734509465
30
0
10
40.439693820705578
20
229.4856375272654
30
0
10
40.873119384050369
20
229.4474732875824
30
0
0
SPLINE
5
190
100
AcDbEntity
8
0
100
AcDbSpline
70
0
71
3
72
9
73
5
74
0
42
0.000000001
43
0.0000000001
44
0.0000000001
40
0
40
0
40
0
40
0
40
0.07651961139691249
40
0.1590603606784059
40
0.1590603606784059
40
0.1590603606784059
40
0.1590603606784059
10
69.609479457139969
20
247.6040256023407
30
0
10
69.382612232115832
20
247.48022280590391
30
0
10
68.911026164443996
20
247.22287547892796
30
0
10
68.37388926708303
20
247.1942512406921
30
0
10
68.095154315233231
20
247.17939734458923
30
0
0
SPLINE
5
191
100
AcDbEntity
8
0
100
AcDbSpline
70
0
71
3
72
9
73
5
74
0
42
0.000000001
43
0.0000000001
44
0.0000000001
40
0
40
0
40
0
40
0
40
0.056556528588924536
40
0.12121378434950206
40
0.12121378434950206
40
0.12121378434950206
40
0.12121378434950206
10
68.095154315233231
20
247.17939734458923
30
0
10
67.906260661539733
20
247.1910484327413
30
0
10
67.501417663303172
20
247.21601942233247
30
0
10
67.114592523972505
20
247.33893670359649
30
0
10
66.90825417637825
20
247.40450263023376
30
0
0
LINE
5
192
100
AcDbEntity
8
0
100
AcDbLine
10
66.90825417637825
20
247.40450263023376
30
0
11
66.703614741563797
21
249.13369536399841
31
0
0
SPLINE
5
193
100
AcDbEntity
8
0
100
AcDbSpline
70
0
71
3
72
9
73
5
74
0
42
0.000000001
43
0.0000000001
44
0.0000000001
40
0
40
0
40
0
40
0
40
0.057848939778265183
40
0.10687774665448252
40
0.10687774665448252
40
0.10687774665448252
40
0.10687774665448252
10
66.703614741563797
20
249.13369536399841
30
0
10
66.891044423728729
20
249.08604854254733
30
0
10
67.23732669204233
20
248.99801953231025
30
0
10
67.593918979049207
20
248.97880297986077
30
0
10
67.757501155138016
20
248.96998763084412
30
0
0
SPLINE
5
194
100
AcDbEntity
8
0
100
AcDbSpline
70
0
71
3
72
9
73
5
74
0
42
0.000000001
43
0.0000000001
44
0.0000000001
40
0
40
0
40
0
40
0
40
0.055488898146625866
40
0.10112138730766615
40
0.10112138730766615
40
0.10112138730766615
40
0.10112138730766615
10
67.757501155138016
20
248.96998763084412
30
0
10
67.94441668672674
20
248.97465132811152
30
0
10
68.285046226957604
20
248.98315031716007
30
0
10
68.598373267111256
20
249.11508819104279
30
0
10
68.739766627550125
20
249.17462706565857
30
0
0
SPLINE
5
195
100
AcDbEntity
8
0
100
AcDbSpline
70
0
71
3
72
9
73
5
74
0
42
0.000000001
43
0.0000000001
44
0.0000000001
40
0
40
0
40
0
40
0
40
0.041543653267311034
40
0.083893298289849219
40
0.083893298289849219
40
0.083893298289849219
40
0.083893298289849219
10
68.739766627550125
20
249.17462706565857
30
0
10
68.857374436563234
20
249.25023882551136
30
0
10
69.09487177314233
20
249.40292929504562
30
0
10
69.260062912745383
20
249.6319853372643
30
0
10
69.343452006578445
20
249.74761366844177
30
0
0
SPLINE
5
196
100
AcDbEntity
8
0
100
AcDbSpline
70
0
71
3
72
9
73
5
74
0
42
0.000000001
43
0.0000000001
44
0.0000000001
40
0
40
0
40
0
40
0
40
0.053206599159531458
40
0.14832258606451726
40
0.14832258606451726
40
0.14832258606451726
40
0.14832258606451726
10
69.343452006578445
20
249.74761366844177
30
0
10
69.421743379379294
20
249.90689398981075
30
0
10
69.639994105112464
20
250.35091539970762
30
0
10
69.802191859278338
20
250.81870747212321
30
0
10
69.906205683946609
20
251.11869215965271
30
0
0
SPLINE
5
197
100
AcDbEntity
8
0
100
AcDbSpline
70
0
71
3
72
9
73
5
74
0
42
0.000000001
43
0.0000000001
44
0.0000000001
40
0
40
0
40
0
40
0
40
0.020062999900858001
40
0.047906235630788545
40
0.047906235630788545
40
0.047906235630788545
40
0.047906235630788545
10
69.906205683946609
20
251.11869215965271
30
0
10
69.928129105779064
20
251.1818764015359
30
0
10
69.980477638766573
20
251.3327471185157
30
0
10
70.037039505057422
20
251.48209297323564
30
0
10
70.069913417100906
20
251.56889319419861
30
0
0
LINE
5
198
100
AcDbEntity
8
0
100
AcDbLine
10
70.069913417100921
20
251.56889319419861
30
0
11
65.946449786424637
21
262.45566248893738
31
0
0
LINE
5
199
100
AcDbEntity
8
0
100
AcDbLine
10
65.946449786424637
20
262.45566248893738
30
0
11
67.931441813707352
21
262.45566248893738
31
0
0
LINE
5
200
100
AcDbEntity
8
0
100
AcDbLine
10
67.931441813707352
20
262.45566248893738
30
0
11
70.192698985338211
21
256.16302847862244
31
0
0
SPLINE
5
201
100
AcDbEntity
8
0
100
AcDbSpline
70
0
71
3
72
9
73
5
74
0
42
0.000000001
43
0.0000000001
44
0.0000000001
40
0
40
0
40
0
40
0
40
0.12966932790448643
40
0.26382097974421581
40
0.26382097974421581
40
0.26382097974421581
40
0.26382097974421581
10
70.192698985338211
20
256.16302847862244
30
0
10
70.336469667522266
20
255.7552524612712
30
0
10
70.628980802154103
20
254.92560469373564
30
0
10
70.862045640799295
20
254.07732352404975
30
0
10
70.980557948350906
20
253.64597678184509
30
0
0
SPLINE
5
202
100
AcDbEntity
8
0
100
AcDbSpline
70
0
71
3
72
9
73
5
74
0
42
0.000000001
43
0.0000000001
44
0.0000000001
40
0
40
0
40
0
40
0
40
0.13007919959029773
40
0.25901864991824097
40
0.25901864991824097
40
0.25901864991824097
40
0.25901864991824097
10
70.980557948350906
20
253.64597678184509
30
0
10
71.091078993402007
20
254.0654443623132
30
0
10
71.311152702087597
20
254.90070416341536
30
0
10
71.595947380933936
20
255.71616516468703
30
0
10
71.737718135118484
20
256.12210154533386
30
0
0
LINE
5
203
100
AcDbEntity
8
0
100
AcDbLine
10
71.737718135118499
20
256.12210154533386
30
0
11
74.060368090867996
21
262.45566248893738
31
0
0
LINE
5
204
100
AcDbEntity
8
0
100
AcDbLine
10
74.060368090867996
20
262.45566248893738
30
0
11
75.90211346745491
21
262.45566248893738
31
0
0
LINE
5
205
100
AcDbEntity
8
0
100
AcDbLine
10
75.90211346745491
20
262.45566248893738
30
0
11
71.768416911363602
21
251.40518546104431
31
0
0
SPLINE
5
206
100
AcDbEntity
8
0
100
AcDbSpline
70
0
71
3
72
9
73
5
74
0
42
0.000000001
43
0.0000000001
44
0.0000000001
40
0
40
0
40
0
40
0
40
0.16231405199440863
40
0.26749028118609225
40
0.26749028118609225
40
0.26749028118609225
40
0.26749028118609225
10
71.768416911363602
20
251.40518546104431
30
0
10
71.580762494197302
20
250.89729013667744
30
0
10
71.271511802733087
20
250.06028889458733
30
0
10
70.886411609455436
20
249.25566436419385
30
0
10
70.734991580247879
20
248.939288854599
30
0
0
SPLINE
5
207
100
AcDbEntity
8
0
100
AcDbSpline
70
0
71
3
72
9
73
5
74
0
42
0.000000001
43
0.0000000001
44
0.0000000001
40
0
40
0
40
0
40
0
40
0.094889999173324149
40
0.17591672602816785
40
0.17591672602816785
40
0.17591672602816785
40
0.17591672602816785
10
70.734991580247879
20
248.939288854599
30
0
10
70.57498741620266
20
248.66279671953535
30
0
10
70.278355432485455
20
248.1502074941514
30
0
10
69.82040847808203
20
247.77626323075367
30
0
10
69.609479457139969
20
247.6040256023407
30
0
0
LINE
5
208
100
AcDbEntity
8
0
100
AcDbLine
10
99.619712382555008
20
290.0000011920929
30
0
11
99.619712382555008
21
275
31
0
0
LINE
5
209
100
AcDbEntity
8
0
100
AcDbLine
10
99.619712382555008
20
275
30
0
11
97.910980731248856
21
275
31
0
0
LINE
5
210
100
AcDbEntity
8
0
100
AcDbLine
10
97.910980731248856
20
275
30
0
11
97.910980731248856
21
276.37107729911804
31
0
0
SPLINE
5
211
100
AcDbEntity
8
0
100
AcDbSpline
70
0
71
3
72
9
73
5
74
0
42
0.000000001
43
0.0000000001
44
0.0000000001
40
0
40
0
40
0
40
0
40
0.17605119090084351
40
0.35687063051933204
40
0.35687063051933204
40
0.35687063051933204
40
0.35687063051933204
10
97.910980731248856
20
276.37107729911804
30
0
10
97.521640665723211
20
275.89958011088578
30
0
10
96.732415475256687
20
274.94381549497183
30
0
10
95.497702621497425
20
274.81812073392274
30
0
10
94.87209752202034
20
274.75443363189697
30
0
0
SPLINE
5
212
100
AcDbEntity
8
0
100
AcDbSpline
70
0
71
3
72
9
73
5
74
0
42
0.000000001
43
0.0000000001
44
0.0000000001
40
0
40
0
40
0
40
0
40
0.12598048611946155
40
0.25219620168475632
40
0.25219620168475632
40
0.25219620168475632
40
0.25219620168475632
10
94.87209752202034
20
274.75443363189697
30
0
10
94.447517157600089
20
274.78438777075314
30
0
10
93.597563656744569
20
274.84435197852008
30
0
10
92.854714235282813
20
275.26176626704665
30
0
10
92.482943087816238
20
275.47066807746887
30
0
0
SPLINE
5
213
100
AcDbEntity
8
0
100
AcDbSpline
70
0
71
3
72
9
73
5
74
0
42
0.000000001
43
0.0000000001
44
0.0000000001
40
0
40
0
40
0
40
0
40
0.1292842390154138
40
0.26437022849845077
40
0.26437022849845077
40
0.26437022849845077
40
0.26437022849845077
10
92.482943087816238
20
275.47066807746887
30
0
10
92.138097865906104
20
275.73759245167321
30
0
10
91.432932172026653
20
276.28341967962956
30
0
10
91.010518945972834
20
277.06939665572071
30
0
10
90.794677287340164
20
277.47100949287415
30
0
0
SPLINE
5
214
100
AcDbEntity
8
0
100
AcDbSpline
70
0
71
3
72
9
73
5
74
0
42
0.000000001
43
0.0000000001
44
0.0000000001
40
0
40
0
40
0
40
0
40
0.14512125347331448
40
0.30301991318987009
40
0.30301991318987009
40
0.30301991318987009
40
0.30301991318987009
10
90.794677287340164
20
277.47100949287415
30
0
10
90.620181528446125
20
277.92585958910058
30
0
10
90.255826284492841
20
278.8756077023105
30
0
10
90.21656616780345
20
279.89285122912759
30
0
10
90.196108371019363
20
280.4229199886322
30
0
0
SPLINE
5
215
100
AcDbEntity
8
0
100
AcDbSpline
70
0
71
3
72
9
73
5
74
0
42
0.000000001
43
0.0000000001
44
0.0000000001
40
0
40
0
40
0
40
0
40
0.15573279894108913
40
0.30156862008960028
40
0.30156862008960028
40
0.30156862008960028
40
0.30156862008960028
10
90.196108371019363
20
280.4229199886322
30
0
10
90.21558490513786
20
280.94486798297515
30
0
10
90.253300219819067
20
281.95559364566668
30
0
10
90.580277668241308
20
282.91221645846173
30
0
10
90.738400965929031
20
283.37483048439026
30
0
0
SPLINE
5
216
100
AcDbEntity
8
0
100
AcDbSpline
70
0
71
3
72
9
73
5
74
0
42
0.000000001
43
0.0000000001
44
0.0000000001
40
0
40
0
40
0
40
0
40
0.13524239139316777
40
0.2633645882984943
40
0.2633645882984943
40
0.2633645882984943
40
0.2633645882984943
10
90.738400965929031
20
283.37483048439026
30
0
10
90.936636603249354
20
283.78731890511494
30
0
10
91.322671236851605
20
284.59057919933912
30
0
10
92.024063746148158
20
285.13904716902505
30
0
10
92.365278750658035
20
285.40586709976196
30
0
0
SPLINE
5
217
100
AcDbEntity
8
0
100
AcDbSpline
70
0
71
3
72
9
73
5
74
0
42
0.000000001
43
0.0000000001
44
0.0000000001
40
0
40
0
40
0
40
0
40
0.1264714082794012
40
0.25532904333237411
40
0.25532904333237411
40
0.25532904333237411
40
0.25532904333237411
10
92.365278750658035
20
285.40586709976196
30
0
10
92.73951623071568
20
285.61177917025827
30
0
10
93.49505219779482
20
286.02748840197853
30
0
10
94.355831642838254
20
286.083567974517
30
0
10
94.790243655443192
20
286.11186981201172
30
0
0
SPLINE
5
218
100
AcDbEntity
8
0
100
AcDbSpline
70
0
71
3
72
9
73
5
74
0
42
0.000000001
43
0.0000000001
44
0.0000000001
40
0
40
0
40
0
40
0
40
0.093430631210728241
40
0.1812270573774766
40
0.1812270573774766
40
0.1812270573774766
40
0.1812270573774766
10
94.790243655443192
20
286.11186981201172
30
0
10
95.104461939782425
20
286.09685427935375
30
0
10
95.713950009241771
20
286.0677287049752
30
0
10
96.270350849605379
20
285.81830939492204
30
0
10
96.539902240037918
20
285.69747686386108
30
0
0
SPLINE
5
219
100
AcDbEntity
8
0
100
AcDbSpline
70
0
71
3
72
9
73
5
74
0
42
0.000000001
43
0.0000000001
44
0.0000000001
40
0
40
0
40
0
40
0
40
0.084361640909994123
40
0.16610332752670204
40
0.16610332752670204
40
0.16610332752670204
40
0.16610332752670204
10
96.539902240037918
20
285.69747686386108
30
0
10
96.782453164616186
20
285.55069984665221
30
0
10
97.260022297133574
20
285.26170415263942
30
0
10
97.613998635269155
20
284.83030571793915
30
0
10
97.788195163011551
20
284.61800873279572
30
0
0
LINE
5
220
100
AcDbEntity
8
0
100
AcDbLine
10
97.788195163011537
20
284.61800873279577
30
0
11
97.788195163011551
21
290.0000011920929
31
0
0
LINE
5
221
100
AcDbEntity
8
0
100
AcDbLine
10
97.788195163011551
20
290.0000011920929
30
0
11
99.619712382555008
21
290.0000011920929
31
0
0
SPLINE
5
222
100
AcDbEntity
8
0
100
AcDbSpline
70
0
71
3
72
9
73
5
74
0
42
0.000000001
43
0.0000000001
44
0.0000000001
40
0
40
0
40
0
40
0
40
0.028531923593074292
40
0.064879634230535735
40
0.064879634230535735
40
0.064879634230535735
40
0.064879634230535735
10
75.9686179459095
20
276.70873165130615
30
0
10
76.056489059847394
20
276.67007906057728
30
0
10
76.256301936575554
20
276.58218572452608
30
0
10
76.475230095731291
20
276.57803955489078
30
0
10
76.597880870103836
20
276.5757167339325
30
0
0
SPLINE
5
223
100
AcDbEntity
8
0
100
AcDbSpline
70
0
71
3
72
9
73
5
74
0
42
0.000000001
43
0.0000000001
44
0.0000000001
40
0
40
0
40
0
40
0
40
0.035600894648883885
40
0.081195089770831105
40
0.081195089770831105
40
0.081195089770831105
40
0.081195089770831105
10
76.597880870103836
20
276.5757167339325
30
0
10
76.716548606056335
20
276.5799284535268
30
0
10
76.987194542586693
20
276.58953413770757
30
0
10
77.255526738532666
20
276.62655269961016
30
0
10
77.406205683946609
20
276.6473400592804
30
0
0
LINE
5
224
100
AcDbEntity
8
0
100
AcDbLine
10
77.406205683946609
20
276.6473400592804
30
0
11
77.672233134508133
21
275.02046346664429
31
0
0
SPLINE
5
225
100
AcDbEntity
8
0
100
AcDbSpline
70
0
71
3
72
9
73
5
74
0
42
0.000000001
43
0.0000000001
44
0.0000000001
40
0
40
0
40
0
40
0
40
0.074686095129925731
40
0.14029791221956994
40
0.14029791221956994
40
0.14029791221956994
40
0.14029791221956994
10
77.672233134508133
20
275.02046346664429
30
0
10
77.427439318177065
20
274.97277538826432
30
0
10
76.967593863735175
20
274.88319328033879
30
0
10
76.499569945085639
20
274.8651782640701
30
0
10
76.280693560838699
20
274.8567533493042
30
0
0
SPLINE
5
226
100
AcDbEntity
8
0
100
AcDbSpline
70
0
71
3
72
9
73
5
74
0
42
0.000000001
43
0.0000000001
44
0.0000000001
40
0
40
0
40
0
40
0
40
0.089370367513867371
40
0.16000428776585734
40
0.16000428776585734
40
0.16000428776585734
40
0.16000428776585734
10
76.280693560838699
20
274.8567533493042
30
0
10
75.979434978109538
20
274.86254787481852
30
0
10
75.440076505006587
20
274.87292210683358
30
0
10
74.94430146292467
20
275.08175411636341
30
0
10
74.725441485643387
20
275.17394304275513
30
0
0
SPLINE
5
227
100
AcDbEntity
8
0
100
AcDbSpline
70
0
71
3
72
9
73
5
74
0
42
0.000000001
43
0.0000000001
44
0.0000000001
40
0
40
0
40
0
40
0
40
0.059688567663947367
40
0.11555912562127287
40
0.11555912562127287
40
0.11555912562127287
40
0.11555912562127287
10
74.725441485643387
20
275.17394304275513
30
0
10
74.55626284240185
20
275.2849655211254
30
0
10
74.228727154213544
20
275.49990886835081
30
0
10
74.039367234368342
20
275.84230326989092
30
0
10
73.947815448045731
20
276.00784420967102
30
0
0
SPLINE
5
228
100
AcDbEntity
8
0
100
AcDbSpline
70
0
71
3
72
9
73
5
74
0
42
0.000000001
43
0.0000000001
44
0.0000000001
40
0
40
0
40
0
40
0
40
0.081950705054935735
40
0.2193016844318714
40
0.2193016844318714
40
0.2193016844318714
40
0.2193016844318714
10
73.947815448045731
20
276.00784420967102
30
0
10
73.883115446262821
20
276.27410156950987
30
0
10
73.709976980105296
20
276.98661145537233
30
0
10
73.717806469715299
20
277.72172145191541
30
0
10
73.722710162401199
20
278.18212866783142
30
0
0
LINE
5
229
100
AcDbEntity
8
0
100
AcDbLine
10
73.722710162401199
20
278.18212866783142
30
0
11
73.722710162401199
21
284.43383455276489
31
0
0
LINE
5
230
100
AcDbEntity
8
0
100
AcDbLine
10
73.722710162401199
20
284.43383455276489
30
0
11
72.37209752202034
21
284.43383455276489
31
0
0
LINE
5
231
100
AcDbEntity
8
0
100
AcDbLine
10
72.37209752202034
20
284.43383455276489
30
0
11
72.37209752202034
21
285.86630344390869
31
0
0
LINE
5
232
100
AcDbEntity
8
0
100
AcDbLine
10
72.37209752202034
20
285.86630344390869
30
0
11
73.722710162401199
21
285.86630344390869
31
0
0
LINE
5
233
100
AcDbEntity
8
0
100
AcDbLine
10
73.722710162401199
20
285.86630344390869
30
0
11
73.722710162401199
21
288.55729937553406
31
0
0
LINE
5
234
100
AcDbEntity
8
0
100
AcDbLine
10
73.722710162401199
20
288.55729937553406
30
0
11
75.554227381944656
21
289.66234803199768
31
0
0
LINE
5
235
100
AcDbEntity
8
0
100
AcDbLine
10
75.554227381944656
20
289.66234803199768
30
0
11
75.554227381944656
21
285.86630344390869
31
0
0
LINE
5
236
100
AcDbEntity
8
0
100
AcDbLine
10
75.554227381944656
20
285.86630344390869
30
0
11
77.406205683946609
21
285.86630344390869
31
0
0
LINE
5
237
100
AcDbEntity
8
0
100
AcDbLine
10
77.406205683946609
20
285.86630344390869
30
0
11
77.406205683946609
21
284.43383455276489
31
0
0
LINE
5
238
100
AcDbEntity
8
0
100
AcDbLine
10
77.406205683946609
20
284.43383455276489
30
0
11
75.554227381944656
21
284.43383455276489
31
0
0
LINE
5
239
100
AcDbEntity
8
0
100
AcDbLine
10
75.554227381944656
20
284.43383455276489
30
0
11
75.554227381944656
21
278.07980895042419
31
0
0
SPLINE
5
240
100
AcDbEntity
8
0
100
AcDbSpline
70
0
71
3
72
9
73
5
74
0
42
0.000000001
43
0.0000000001
44
0.0000000001
40
0
40
0
40
0
40
0
40
0.064762538649330806
40
0.10206109493438516
40
0.10206109493438516
40
0.10206109493438516
40
0.10206109493438516
10
75.554227381944656
20
278.07980895042419
30
0
10
75.551509817603119
20
277.86281298198878
30
0
10
75.547227131994475
20
277.52084296974465
30
0
10
75.623541357005152
20
277.18835652245701
30
0
10
75.651430636644363
20
277.06684827804565
30
0
0
SPLINE
5
241
100
AcDbEntity
8
0
100
AcDbSpline
70
0
71
3
72
9
73
5
74
0
42
0.000000001
43
0.0000000001
44
0.0000000001
40
0
40
0
40
0
40
0
40
0.02391553062639842
40
0.048446397289738159
40
0.048446397289738159
40
0.048446397289738159
40
0.048446397289738159
10
75.651430636644363
20
277.06684827804565
30
0
10
75.689404993512767
20
276.9953780314155
30
0
10
75.766330770674401
20
276.85059864028563
30
0
10
75.900620333302555
20
276.75641938310196
30
0
10
75.9686179459095
20
276.70873165130615
30
0
0
SPLINE
5
242
100
AcDbEntity
8
0
100
AcDbSpline
70
0
71
3
72
9
73
5
74
0
42
0.000000001
43
0.0000000001
44
0.0000000001
40
0
40
0
40
0
40
0
40
0.094815686175876782
40
0.18335902507543617
40
0.18335902507543617
40
0.18335902507543617
40
0.18335902507543617
10
54.650408774614334
20
276.26875877380371
30
0
10
54.971296624910906
20
276.28773331072227
30
0
10
55.591844613982992
20
276.32442716098012
30
0
10
56.123074910046796
20
276.64568454103124
30
0
10
56.379603892564774
20
276.80081844329834
30
0
0
SPLINE
5
243
100
AcDbEntity
8
0
100
AcDbSpline
70
0
71
3
72
9
73
5
74
0
42
0.000000001
43
0.0000000001
44
0.0000000001
40
0
40
0
40
0
40
0
40
0.094299531558472982
40
0.20652612248996832
40
0.20652612248996832
40
0.20652612248996832
40
0.20652612248996832
10
56.379603892564774
20
276.80081844329834
30
0
10
56.610914834435498
20
277.01914999955824
30
0
10
57.117510690475797
20
277.49731960428846
30
0
10
57.375277880581038
20
278.14653421269276
30
0
10
57.515348941087723
20
278.49931836128235
30
0
0
LINE
5
244
100
AcDbEntity
8
0
100
AcDbLine
10
57.51534894108773
20
278.49931836128235
30
0
11
59.418487101793289
21
278.26398372650146
31
0
0
SPLINE
5
245
100
AcDbEntity
8
0
100
AcDbSpline
70
0
71
3
72
9
73
5
74
0
42
0.000000001
43
0.0000000001
44
0.0000000001
40
0
40
0
40
0
40
0
40
0.16142502263386643
40
0.31238717010959804
40
0.31238717010959804
40
0.31238717010959804
40
0.31238717010959804
10
59.418487101793289
20
278.26398372650146
30
0
10
59.243638761636944
20
277.74473991209749
30
0
10
58.905274998147249
20
276.73990743239904
30
0
10
58.126855983066804
20
276.02216092081039
30
0
10
57.750682383775711
20
275.67530751228333
30
0
0
SPLINE
5
246
100
AcDbEntity
8
0
100
AcDbSpline
70
0
71
3
72
9
73
5
74
0
42
0.000000001
43
0.0000000001
44
0.0000000001
40
0
40
0
40
0
40
0
40
0.15489289722323857
40
0.32883103611799147
40
0.32883103611799147
40
0.32883103611799147
40
0.32883103611799147
10
57.750682383775711
20
275.67530751228333
30
0
10
57.300228359194456
20
275.40696248282063
30
0
10
56.343933614361248
20
274.83727739294744
30
0
10
55.22960983505677
20
274.78309427843681
30
0
10
54.640178233385086
20
274.75443363189697
30
0
0
SPLINE
5
247
100
AcDbEntity
8
0
100
AcDbSpline
70
0
71
3
72
9
73
5
74
0
42
0.000000001
43
0.0000000001
44
0.0000000001
40
0
40
0
40
0
40
0
40
0.21684897328078742
40
0.41468121727477003
40
0.41468121727477003
40
0.41468121727477003
40
0.41468121727477003
10
54.640178233385086
20
274.75443363189697
30
0
10
53.898520481554435
20
274.80358073859333
30
0
10
52.480245196791287
20
274.89756496052451
30
0
10
51.382962992141273
20
275.79471257091802
30
0
10
50.85948184132576
20
276.22271537780762
30
0
0
SPLINE
5
248
100
AcDbEntity
8
0
100
AcDbSpline
70
0
71
3
72
9
73
5
74
0
42
0.000000001
43
0.0000000001
44
0.0000000001
40
0
40
0
40
0
40
0
40
0.20513350806501432
40
0.44317047445807611
40
0.44317047445807611
40
0.44317047445807611
40
0.44317047445807611
10
50.85948184132576
20
276.22271537780762
30
0
10
50.452720088209787
20
276.79014806512987
30
0
10
49.573951910254792
20
278.01602976352086
30
0
10
49.501655481207649
20
279.52861807033048
30
0
10
49.462823420763016
20
280.34106373786926
30
0
0
SPLINE
5
249
100
AcDbEntity
8
0
100
AcDbSpline
70
0
71
3
72
9
73
5
74
0
42
0.000000001
43
0.0000000001
44
0.0000000001
40
0
40
0
40
0
40
0
40
0.24606513522288093
40
0.45674391648614099
40
0.45674391648614099
40
0.45674391648614099
40
0.45674391648614099
10
49.462823420763016
20
280.34106373786926
30
0
10
49.501128221475085
20
281.18045267588434
30
0
10
49.572229252027839
20
282.73851896047563
30
0
10
50.463649999079877
20
284.01072424556372
30
0
10
50.874828845262527
20
284.59754467010498
30
0
0
SPLINE
5
250
100
AcDbEntity
8
0
100
AcDbSpline
70
0
71
3
72
9
73
5
74
0
42
0.000000001
43
0.0000000001
44
0.0000000001
40
0
40
0
40
0
40
0
40
0.19799030683012153
40
0.40559835086079382
40
0.40559835086079382
40
0.40559835086079382
40
0.40559835086079382
10
50.874828845262527
20
284.59754467010498
30
0
10
51.38897834649142
20
285.03915352370996
30
0
10
52.442253090760929
20
285.94382317959065
30
0
10
53.828367312014876
20
286.05497570106712
30
0
10
54.537858515977859
20
286.11186981201172
30
0
0
SPLINE
5
251
100
AcDbEntity
8
0
100
AcDbSpline
70
0
71
3
72
9
73
5
74
0
42
0.000000001
43
0.0000000001
44
0.0000000001
40
0
40
0
40
0
40
0
40
0.20143185927039473
40
0.39474993826111249
40
0.39474993826111249
40
0.39474993826111249
40
0.39474993826111249
10
54.537858515977859
20
286.11186981201172
30
0
10
55.226111202135534
20
286.05529446213637
30
0
10
56.574893397528392
20
285.9444226469663
30
0
10
57.597684338136084
20
285.06091458431337
30
0
10
58.098568469285965
20
284.62824046611786
30
0
0
SPLINE
5
252
100
AcDbEntity
8
0
100
AcDbSpline
70
0
71
3
72
9
73
5
74
0
42
0.000000001
43
0.0000000001
44
0.0000000001
40
0
40
0
40
0
40
0
40
0.20642584949774306
40
0.44782403902466572
40
0.44782403902466572
40
0.44782403902466572
40
0.44782403902466572
10
58.098568469285965
20
284.62824046611786
30
0
10
58.50079898360994
20
284.05287046865317
30
0
10
59.373405268054462
20
282.80465220129383
30
0
10
59.442584345652293
20
281.27705943468465
30
0
10
59.479875117540359
20
280.45361518859863
30
0
0
SPLINE
5
253
100
AcDbEntity
8
0
100
AcDbSpline
70
0
71
3
72
9
73
5
74
0
42
0.000000001
43
0.0000000001
44
0.0000000001
40
0
40
0
40
0
40
0
40
0.020465420283715931
40
0.049125021830332828
40
0.049125021830332828
40
0.049125021830332828
40
0.049125021830332828
10
59.479875117540359
20
280.45361518859863
30
0
10
59.479226110508641
20
280.38539845649655
30
0
10
59.477668239516547
20
280.22165158947644
30
0
10
59.472602386011829
20
280.05797359757173
30
0
10
59.469646960496902
20
279.96248364448547
30
0
0
LINE
5
254
100
AcDbEntity
8
0
100
AcDbLine
10
59.469646960496902
20
279.96248364448547
30
0
11
51.365961581468582
21
279.96248364448547
31
0
0
SPLINE
5
255
100
AcDbEntity
8
0
100
AcDbSpline
70
0
71
3
72
9
73
5
74
0
42
0.000000001
43
0.0000000001
44
0.0000000001
40
0
40
0
40
0
40
0
40
0.16098721364551546
40
0.29702880824889466
40
0.29702880824889466
40
0.29702880824889466
40
0.29702880824889466
10
51.365961581468582
20
279.96248364448547
30
0
10
51.419182393277516
20
279.41688075118367
30
0
10
51.51737723712678
20
278.41021833679201
30
0
10
52.108281934833812
20
277.59411141820289
30
0
10
52.378921061754227
20
277.22032785415649
30
0
0
SPLINE
5
256
100
AcDbEntity
8
0
100
AcDbSpline
70
0
71
3
72
9
73
5
74
0
42
0.000000001
43
0.0000000001
44
0.0000000001
40
0
40
0
40
0
40
0
40
0.12475027127544346
40
0.25182614113768131
40
0.25182614113768131
40
0.25182614113768131
40
0.25182614113768131
10
52.378921061754227
20
277.22032785415649
30
0
10
52.703287200552673
20
276.94279327710569
30
0
10
53.358066322186701
20
276.38255031445374
30
0
10
54.216983940397299
20
276.30692209463939
30
0
10
54.650408774614334
20
276.26875877380371
30
0
0
LINE
5
257
100
AcDbEntity
8
0
100
AcDbLine
10
44.919847995042801
20
280.68894982337952
30
0
11
44.919847995042801
21
275
31
0
0
LINE
5
258
100
AcDbEntity
8
0
100
AcDbLine
10
44.919847995042801
20
275
30
0
11
43.078100234270096
21
275
31
0
0
LINE
5
259
100
AcDbEntity
8
0
100
AcDbLine
10
43.078100234270096
20
275
30
0
11
43.078100234270096
21
285.86630344390869
31
0
0
LINE
5
260
100
AcDbEntity
8
0
100
AcDbLine
10
43.078100234270096
20
285.86630344390869
30
0
11
44.735672026872635
21
285.86630344390869
31
0
0
LINE
5
261
100
AcDbEntity
8
0
100
AcDbLine
10
44.735672026872635
20
285.86630344390869
30
0
11
44.735672026872635
21
284.21896398067474
31
0
0
SPLINE
5
262
100
AcDbEntity
8
0
100
AcDbSpline
70
0
71
3
72
9
73
5
74
0
42
0.000000001
43
0.0000000001
44
0.0000000001
40
0
40
0
40
0
40
0
40
0.11368124332030155
40
0.1933577939392423
40
0.1933577939392423
40
0.1933577939392423
40
0.1933577939392423
10
44.735672026872635
20
284.21896398067474
30
0
10
44.920313665343045
20
284.55367030813068
30
0
10
45.234366351971147
20
285.12296454880004
30
0
10
45.710874010048954
20
285.56243044639825
30
0
10
45.907227545976639
20
285.74352025985718
30
0
0
SPLINE
5
263
100
AcDbEntity
8
0
100
AcDbSpline
70
0
71
3
72
9
73
5
74
0
42
0.000000001
43
0.0000000001
44
0.0000000001
40
0
40
0
40
0
40
0
40
0.062805635924077785
40
0.12526344754287927
40
0.12526344754287927
40
0.12526344754287927
40
0.12526344754287927
10
45.907227545976639
20
285.74352025985718
30
0
10
46.090462454925792
20
285.85095500999307
30
0
10
46.455917498370027
20
286.06522952516872
30
0
10
46.878372586625233
20
286.09635185596085
30
0
10
47.089013606309891
20
286.11186981201172
30
0
0
SPLINE
5
264
100
AcDbEntity
8
0
100
AcDbSpline
70
0
71
3
72
9
73
5
74
0
42
0.000000001
43
0.0000000001
44
0.0000000001
40
0
40
0
40
0
40
0
40
0.095043142983214868
40
0.20032670851579967
40
0.20032670851579967
40
0.20032670851579967
40
0.20032670851579967
10
47.089013606309891
20
286.11186981201172
30
0
10
47.408065115461895
20
286.08245558756681
30
0
10
48.080544335627252
20
286.02045790334
30
0
10
48.671394450532631
20
285.6913724646559
30
0
10
48.981921225786209
20
285.51841855049133
30
0
0
LINE
5
265
100
AcDbEntity
8
0
100
AcDbLine
10
48.981921225786209
20
285.51841855049133
30
0
11
48.347541838884354
21
283.80968689918518
31
0
0
SPLINE
5
266
100
AcDbEntity
8
0
100
AcDbSpline
70
0
71
3
72
9
73
5
74
0
42
0.000000001
43
0.0000000001
44
0.0000000001
40
0
40
0
40
0
40
0
40
0.073865575172357714
40
0.14212910717801469
40
0.14212910717801469
40
0.14212910717801469
40
0.14212910717801469
10
48.347541838884354
20
283.80968689918518
30
0
10
48.127239008095728
20
283.92602101747639
30
0
10
47.703341345677003
20
284.14986635176763
30
0
10
47.226128516229942
20
284.18963234595657
30
0
10
46.996926814317703
20
284.20873165130615
30
0
0
SPLINE
5
267
100
AcDbEntity
8
0
100
AcDbSpline
70
0
71
3
72
9
73
5
74
0
42
0.000000001
43
0.0000000001
44
0.0000000001
40
0
40
0
40
0
40
0
40
0.058013763974320946
40
0.11597484746810602
40
0.11597484746810602
40
0.11597484746810602
40
0.11597484746810602
10
46.996926814317703
20
284.20873165130615
30
0
10
46.800852055008676
20
284.19362475530556
30
0
10
46.4088805857333
20
284.16342468140306
30
0
10
46.077804482177612
20
283.9514418379714
30
0
10
45.912341624498367
20
283.84549856185913
30
0
0
SPLINE
5
268
100
AcDbEntity
8
0
100
AcDbSpline
70
0
71
3
72
9
73
5
74
0
42
0.000000001
43
0.0000000001
44
0.0000000001
40
0
40
0
40
0
40
0
40
0.05979942376558977
40
0.12341509388916735
40
0.12341509388916735
40
0.12341509388916735
40
0.12341509388916735
10
45.912341624498367
20
283.84549856185913
30
0
10
45.762582330447842
20
283.70955235441625
30
0
10
45.453506487033842
20
283.42898420009419
30
0
10
45.30391390693373
20
283.03878620735208
30
0
10
45.22680476307869
20
282.83765435218811
30
0
0
SPLINE
5
269
100
AcDbEntity
8
0
100
AcDbSpline
70
0
71
3
72
9
73
5
74
0
42
0.000000001
43
0.0000000001
44
0.0000000001
40
0
40
0
40
0
40
0
40
0.1053764719699837
40
0.21767852293062634
40
0.21767852293062634
40
0.21767852293062634
40
0.21767852293062634
10
45.22680476307869
20
282.83765435218811
30
0
10
45.137299924331977
20
282.49673984119522
30
0
10
44.952407787317945
20
281.79250514998563
30
0
10
44.930929045688394
20
281.06452201256917
30
0
10
44.919847995042801
20
280.68894982337952
30
0
0
LINE
5
270
100
AcDbEntity
8
0
100
AcDbLine
10
71.113571673631668
20
275
30
0
11
69.189972430467606
21
275
31
0
0
SPLINE
5
271
100
AcDbEntity
8
0
100
AcDbSpline
70
0
71
3
72
9
73
5
74
0
42
0.000000001
43
0.0000000001
44
0.0000000001
40
0
40
0
40
0
40
0
40
0.066464670244466992
40
0.13956438515878755
40
0.13956438515878755
40
0.13956438515878755
40
0.13956438515878755
10
69.189972430467606
20
275
30
0
10
69.102448742767876
20
275.20465971315849
30
0
10
68.918664040072258
20
275.63440993878476
30
0
10
68.854977584206964
20
276.09771601849894
30
0
10
68.821620494127274
20
276.34038209915161
30
0
0
SPLINE
5
272
100
AcDbEntity
8
0
100
AcDbSpline
70
0
71
3
72
9
73
5
74
0
42
0.000000001
43
0.0000000001
44
0.0000000001
40
0
40
0
40
0
40
0
40
0.12483281357703613
40
0.23293737714841556
40
0.23293737714841556
40
0.23293737714841556
40
0.23293737714841556
10
68.821620494127274
20
276.34038209915161
30
0
10
68.496869279157409
20
276.07698061441766
30
0
10
67.890885210760544
20
275.58547482172753
30
0
10
67.181294026614808
20
275.26246021126644
30
0
10
66.851977854967117
20
275.11255145072937
30
0
0
SPLINE
5
273
100
AcDbEntity
8
0
100
AcDbSpline
70
0
71
3
72
9
73
5
74
0
42
0.000000001
43
0.0000000001
44
0.0000000001
40
0
40
0
40
0
40
0
40
0.10170919920084555
40
0.20709544732279722
40
0.20709544732279722
40
0.20709544732279722
40
0.20709544732279722
10
66.851977854967117
20
275.11255145072937
30
0
10
66.527636319754635
20
275.00810981149539
30
0
10
65.867227469346204
20
274.7954506993774
30
0
10
65.173804915104881
20
274.76826687369561
30
0
10
64.820937663316727
20
274.75443363189697
30
0
0
SPLINE
5
274
100
AcDbEntity
8
0
100
AcDbSpline
70
0
71
3
72
9
73
5
74
0
42
0.000000001
43
0.0000000001
44
0.0000000001
40
0
40
0
40
0
40
0
40
0.1598423452127935
40
0.29389625686988619
40
0.29389625686988619
40
0.29389625686988619
40
0.29389625686988619
10
64.820937663316727
20
274.75443363189697
30
0
10
64.275962535160119
20
274.77624504521248
30
0
10
63.2739367575779
20
274.81634889079822
30
0
10
62.446134970277363
20
275.37462041197665
30
0
10
62.068552523851395
20
275.62926292419434
30
0
0
SPLINE
5
275
100
AcDbEntity
8
0
100
AcDbSpline
70
0
71
3
72
9
73
5
74
0
42
0.000000001
43
0.0000000001
44
0.0000000001
40
0
40
0
40
0
40
0
40
0.12300538435288294
40
0.24925064006797509
40
0.24925064006797509
40
0.24925064006797509
40
0.24925064006797509
10
62.068552523851395
20
275.62926292419434
30
0
10
61.788039020908876
20
275.94400251351266
30
0
10
61.219623495653906
20
276.58177170146359
30
0
10
61.144697893319567
20
277.43352605532101
30
0
10
61.106748133897781
20
277.86493897438049
30
0
0
SPLINE
5
276
100
AcDbEntity
8
0
100
AcDbSpline
70
0
71
3
72
9
73
5
74
0
42
0.000000001
43
0.0000000001
44
0.0000000001
40
0
40
0
40
0
40
0
40
0.07689378892593518
40
0.15149507600301443
40
0.15149507600301443
40
0.15149507600301443
40
0.15149507600301443
10
61.106748133897781
20
277.86493897438049
30
0
10
61.120945720009601
20
278.12349508454395
30
0
10
61.148917607168656
20
278.63289874519575
30
0
10
61.364046755927163
20
279.09529049535911
30
0
10
61.469983607530594
20
279.3229877948761
30
0
0
SPLINE
5
277
100
AcDbEntity
8
0
100
AcDbSpline
70
0
71
3
72
9
73
5
74
0
42
0.000000001
43
0.0000000001
44
0.0000000001
40
0
40
0
40
0
40
0
40
0.07278020236927972
40
0.14339403750200685
40
0.14339403750200685
40
0.14339403750200685
40
0.14339403750200685
10
61.469983607530594
20
279.3229877948761
30
0
10
61.598919794165553
20
279.53106259965017
30
0
10
61.852954267550061
20
279.94101867819478
30
0
10
62.233936893689204
20
280.23648876841537
30
0
10
62.421550303697586
20
280.38199186325073
30
0
0
SPLINE
5
278
100
AcDbEntity
8
0
100
AcDbSpline
70
0
71
3
72
9
73
5
74
0
42
0.000000001
43
0.0000000001
44
0.0000000001
40
0
40
0
40
0
40
0
40
0.071691841214673868
40
0.14609476517129255
40
0.14609476517129255
40
0.14609476517129255
40
0.14609476517129255
10
62.421550303697586
20
280.38199186325073
30
0
10
62.626044920788345
20
280.50751078874782
30
0
10
63.042767277983884
20
280.76329523554614
30
0
10
63.509094809610346
20
280.91063769986823
30
0
10
63.74658539891243
20
280.98567605018616
30
0
0
SPLINE
5
279
100
AcDbEntity
8
0
100
AcDbSpline
70
0
71
3
72
9
73
5
74
0
42
0.000000001
43
0.0000000001
44
0.0000000001
40
0
40
0
40
0
40
0
40
0.069481536743479677
40
0.16610616449408441
40
0.16610616449408441
40
0.16610616449408441
40
0.16610616449408441
10
63.74658539891243
20
280.98567605018616
30
0
10
63.97286877796914
20
281.03558388586117
30
0
10
64.513833557182906
20
281.15489614564586
30
0
10
65.063786346858919
20
281.22257092523716
30
0
10
65.383696109056473
20
281.26193761825562
30
0
0
SPLINE
5
280
100
AcDbEntity
8
0
100
AcDbSpline
70
0
71
3
72
9
73
5
74
0
42
0.000000001
43
0.0000000001
44
0.0000000001
40
0
40
0
40
0
40
0
40
0.19582223576618721
40
0.33491745969726799
40
0.33491745969726799
40
0.33491745969726799
40
0.33491745969726799
10
65.383696109056473
20
281.26193761825562
30
0
10
66.032915898114226
20
281.34053306692567
30
0
10
67.143285421195571
20
281.4749559423941
30
0
10
68.220684290549613
20
281.77267197749222
30
0
10
68.668140918016434
20
281.89631700515747
30
0
0
SPLINE
5
281
100
AcDbEntity
8
0
100
AcDbSpline
70
0
71
3
72
9
73
5
74
0
42
0.000000001
43
0.0000000001
44
0.0000000001
40
0
40
0
40
0
40
0
40
0.030961138596678005
40
0.048101525387479492
40
0.048101525387479492
40
0.048101525387479492
40
0.048101525387479492
10
68.668140918016434
20
281.89631700515747
30
0
10
68.671028252984286
20
281.99948254952187
30
0
10
68.675514044610594
20
282.15976154042073
30
0
10
68.677622515699071
20
282.32008773946507
30
0
10
68.678373843431473
20
282.37721800804138
30
0
0
SPLINE
5
282
100
AcDbEntity
8
0
100
AcDbSpline
70
0
71
3
72
9
73
5
74
0
42
0.000000001
43
0.0000000001
44
0.0000000001
40
0
40
0
40
0
40
0
40
0.096807313241297696
40
0.17069427834858419
40
0.17069427834858419
40
0.17069427834858419
40
0.17069427834858419
10
68.678373843431473
20
282.37721800804138
30
0
10
68.671025657547091
20
282.71002190782087
30
0
10
68.658069061142271
20
283.29683420125639
30
0
10
68.308054774951827
20
283.7618694654779
30
0
10
68.156547099351883
20
283.96316528320312
30
0
0
SPLINE
5
283
100
AcDbEntity
8
0
100
AcDbSpline
70
0
71
3
72
9
73
5
74
0
42
0.000000001
43
0.0000000001
44
0.0000000001
40
0
40
0
40
0
40
0
40
0.099445484383895472
40
0.22245464075985777
40
0.22245464075985777
40
0.22245464075985777
40
0.22245464075985777
10
68.156547099351883
20
283.96316528320312
30
0
10
67.872207328011797
20
284.14468051415355
30
0
10
67.23615329218427
20
284.55072112769852
30
0
10
66.478150067227119
20
284.5742837059255
30
0
10
66.059002429246902
20
284.58731293678284
30
0
0
SPLINE
5
284
100
AcDbEntity
8
0
100
AcDbSpline
70
0
71
3
72
9
73
5
74
0
42
0.000000001
43
0.0000000001
44
0.0000000001
40
0
40
0
40
0
40
0
40
0.11350727643788823
40
0.19949290269277889
40
0.19949290269277889
40
0.19949290269277889
40
0.19949290269277889
10
66.059002429246902
20
284.58731293678284
30
0
10
65.674242021992185
20
284.58132369514027
30
0
10
64.998012507080858
20
284.57079739904992
30
0
10
64.39879164369205
20
284.26415972836452
30
0
10
64.140514880418777
20
284.13199245929718
30
0
0
SPLINE
5
285
100
AcDbEntity
8
0
100
AcDbSpline
70
0
71
3
72
9
73
5
74
0
42
0.000000001
43
0.0000000001
44
0.0000000001
40
0
40
0
40
0
40
0
40
0.082916631980714889
40
0.18802080985124425
40
0.18802080985124425
40
0.18802080985124425
40
0.18802080985124425
10
64.140514880418777
20
284.13199245929718
30
0
10
63.943331469799354
20
283.93234818157168
30
0
10
63.496200614767524
20
283.47963709233153
30
0
10
63.322088071407798
20
282.86438972241922
30
0
10
63.22475865483284
20
282.52046465873718
30
0
0
LINE
5
286
100
AcDbEntity
8
0
100
AcDbLine
10
63.22475865483284
20
282.52046465873713
30
0
11
61.4239402115345
21
282.76603102684021
31
0
0
SPLINE
5
287
100
AcDbEntity
8
0
100
AcDbSpline
70
0
71
3
72
9
73
5
74
0
42
0.000000001
43
0.0000000001
44
0.0000000001
40
0
40
0
40
0
40
0
40
0.10942684808346517
40
0.20482400629920425
40
0.20482400629920425
40
0.20482400629920425
40
0.20482400629920425
10
61.4239402115345
20
282.76603102684021
30
0
10
61.511775835326233
20
283.1233885699906
30
0
10
61.67618561844538
20
283.79228660508227
30
0
10
62.055567305716821
20
284.36610115104253
30
0
10
62.232265025377274
20
284.63335633277893
30
0
0
SPLINE
5
288
100
AcDbEntity
8
0
100
AcDbSpline
70
0
71
3
72
9
73
5
74
0
42
0.000000001
43
0.0000000001
44
0.0000000001
40
0
40
0
40
0
40
0
40
0.093244165211808769
40
0.19803170506253184
40
0.19803170506253184
40
0.19803170506253184
40
0.19803170506253184
10
62.232265025377274
20
284.63335633277893
30
0
10
62.450073143471784
20
284.85998285536789
30
0
10
62.912653433667302
20
285.3412916491003
30
0
10
63.531616606911854
20
285.5942960055628
30
0
10
63.859138041734695
20
285.72817206382751
30
0
0
SPLINE
5
289
100
AcDbEntity
8
0
100
AcDbSpline
70
0
71
3
72
9
73
5
74
0
42
0.000000001
43
0.0000000001
44
0.0000000001
40
0
40
0
40
0
40
0
40
0.11840369877474333
40
0.25048875276058746
40
0.25048875276058746
40
0.25048875276058746
40
0.25048875276058746
10
63.859138041734695
20
285.72817206382751
30
0
10
64.239431956815338
20
285.83999360387901
30
0
10
65.043962131605056
20
286.07655748143611
30
0
10
65.882739515769813
20
286.09967809630041
30
0
10
66.325034648180008
20
286.11186981201172
30
0
0
SPLINE
5
290
100
AcDbEntity
8
0
100
AcDbSpline
70
0
71
3
72
9
73
5
74
0
42
0.000000001
43
0.0000000001
44
0.0000000001
40
0
40
0
40
0
40
0
40
0.12637354523387748
40
0.22936113116974183
40
0.22936113116974183
40
0.22936113116974183
40
0.22936113116974183
10
66.325034648180008
20
286.11186981201172
30
0
10
66.748498768682381
20
286.10473906034787
30
0
10
67.517063182290272
20
286.09179713278945
30
0
10
68.254958000231682
20
285.87968902833887
30
0
10
68.586287051439285
20
285.78444838523865
30
0
0
SPLINE
5
291
100
AcDbEntity
8
0
100
AcDbSpline
70
0
71
3
72
9
73
5
74
0
42
0.000000001
43
0.0000000001
44
0.0000000001
40
0
40
0
40
0
40
0
40
0.084026963614389494
40
0.15339094579688384
40
0.15339094579688384
40
0.15339094579688384
40
0.15339094579688384
10
68.586287051439285
20
285.78444838523865
30
0
10
68.848719847739076
20
285.67770869055471
30
0
10
69.327790054503652
20
285.48285572887005
30
0
10
69.697909360981512
20
285.12334838050367
30
0
10
69.865278750658035
20
284.960777759552
30
0
0
SPLINE
5
292
100
AcDbEntity
8
0
100
AcDbSpline
70
0
71
3
72
9
73
5
74
0
42
0.000000001
43
0.0000000001
44
0.0000000001
40
0
40
0
40
0
40
0
40
0.066051526849178352
40
0.13881437579534089
40
0.13881437579534089
40
0.13881437579534089
40
0.13881437579534089
10
69.865278750658035
20
284.960777759552
30
0
10
69.992624751441255
20
284.77890357717962
30
0
10
70.260256045553831
20
284.3966754546268
30
0
10
70.377046739780681
20
283.94442499268325
30
0
10
70.438265353441238
20
283.70736718177795
30
0
0
SPLINE
5
293
100
AcDbEntity
8
0
100
AcDbSpline
70
0
71
3
72
9
73
5
74
0
42
0.000000001
43
0.0000000001
44
0.0000000001
40
0
40
0
40
0
40
0
40
0.066356332502514076
40
0.17023578686904506
40
0.17023578686904506
40
0.17023578686904506
40
0.17023578686904506
10
70.438265353441238
20
283.70736718177795
30
0
10
70.464818506527081
20
283.48760429020456
30
0
10
70.532940066880812
20
282.92380717603777
30
0
10
70.531332871155513
20
282.35559611174313
30
0
10
70.530352145433426
20
282.00886845588684
30
0
0
LINE
5
294
100
AcDbEntity
8
0
100
AcDbLine
10
70.530352145433426
20
282.00886845588684
30
0
11
70.530352145433426
21
279.55320596694946
31
0
0
SPLINE
5
295
100
AcDbEntity
8
0
100
AcDbSpline
70
0
71
3
72
9
73
5
74
0
42
0.000000001
43
0.0000000001
44
0.0000000001
40
0
40
0
40
0
40
0
40
0.20964719365392617
40
0.32522163535471871
40
0.32522163535471871
40
0.32522163535471871
40
0.32522163535471871
10
70.530352145433426
20
279.55320596694946
30
0
10
70.526118439909993
20
278.85381531660073
30
0
10
70.519550774443317
20
277.76886413221382
30
0
10
70.614336959356066
20
276.68850063726615
30
0
10
70.648021250963211
20
276.30457043647766
30
0
0
SPLINE
5
296
100
AcDbEntity
8
0
100
AcDbSpline
70
0
71
3
72
9
73
5
74
0
42
0.000000001
43
0.0000000001
44
0.0000000001
40
0
40
0
40
0
40
0
40
0.068900681937113073
40
0.13901570568113819
40
0.13901570568113819
40
0.13901570568113819
40
0.13901570568113819
10
70.648021250963211
20
276.30457043647766
30
0
10
70.697333836976611
20
276.07921460268022
30
0
10
70.796828119919567
20
275.62453114550772
30
0
10
71.007377419681831
20
275.20938585265077
30
0
10
71.113571673631668
20
275
30
0
0
SPLINE
5
297
100
AcDbEntity
8
0
100
AcDbSpline
70
0
71
3
72
9
73
5
74
0
42
0.000000001
43
0.0000000001
44
0.0000000001
40
0
40
0
40
0
40
0
40
0.094815922236682421
40
0.18335926113624182
40
0.18335926113624182
40
0.18335926113624182
40
0.18335926113624182
10
83.780693560838699
20
276.26875877380371
30
0
10
84.10158223929966
20
276.28773318853962
30
0
10
84.722131083856723
20
276.32442675839997
30
0
10
85.253362075045459
20
276.64568454461795
30
0
10
85.50989106297493
20
276.80081844329834
30
0
0
SPLINE
5
298
100
AcDbEntity
8
0
100
AcDbSpline
70
0
71
3
72
9
73
5
74
0
42
0.000000001
43
0.0000000001
44
0.0000000001
40
0
40
0
40
0
40
0
40
0.094299531558472982
40
0.20652612248996832
40
0.20652612248996832
40
0.20652612248996832
40
0.20652612248996832
10
85.50989106297493
20
276.80081844329834
30
0
10
85.741202004845647
20
277.01914999955824
30
0
10
86.247797860885939
20
277.49731960428846
30
0
10
86.50556505099118
20
278.14653421269276
30
0
10
86.645636111497879
20
278.49931836128235
30
0
0
LINE
5
299
100
AcDbEntity
8
0
100
AcDbLine
10
86.645636111497865
20
278.49931836128235
30
0
11
88.548774272203445
21
278.26398372650146
31
0
0
SPLINE
5
300
100
AcDbEntity
8
0
100
AcDbSpline
70
0
71
3
72
9
73
5
74
0
42
0.000000001
43
0.0000000001
44
0.0000000001
40
0
40
0
40
0
40
0
40
0.16142521229161499
40
0.3123870357678859
40
0.3123870357678859
40
0.3123870357678859
40
0.3123870357678859
10
88.548774272203445
20
278.26398372650146
30
0
10
88.373923869373641
20
277.74474020985281
30
0
10
88.035556657291849
20
276.73990991906442
30
0
10
87.257140922626036
20
276.02216132965771
30
0
10
86.880969554185867
20
275.67530751228333
30
0
0
SPLINE
5
301
100
AcDbEntity
8
0
100
AcDbSpline
70
0
71
3
72
9
73
5
74
0
42
0.000000001
43
0.0000000001
44
0.0000000001
40
0
40
0
40
0
40
0
40
0.15489311062853928
40
0.32883101320227548
40
0.32883101320227548
40
0.32883101320227548
40
0.32883101320227548
10
86.880969554185867
20
275.67530751228333
30
0
10
86.430514727762443
20
275.40696247167642
30
0
10
85.474219664840632
20
274.83727818273348
30
0
10
84.359896121105777
20
274.78309452750926
30
0
10
83.770465403795242
20
274.75443363189697
30
0
0
SPLINE
5
302
100
AcDbEntity
8
0
100
AcDbSpline
70
0
71
3
72
9
73
5
74
0
42
0.000000001
43
0.0000000001
44
0.0000000001
40
0
40
0
40
0
40
0
40
0.21684873830285184
40
0.41468137843164155
40
0.41468137843164155
40
0.41468137843164155
40
0.41468137843164155
10
83.770465403795242
20
274.75443363189697
30
0
10
83.02880866857393
20
274.80358117102389
30
0
10
81.610533239850142
20
274.89756635826166
30
0
10
80.513249402193381
20
275.7947125547588
30
0
10
79.989766627550125
20
276.22271537780762
30
0
0
SPLINE
5
303
100
AcDbEntity
8
0
100
AcDbSpline
70
0
71
3
72
9
73
5
74
0
42
0.000000001
43
0.0000000001
44
0.0000000001
40
0
40
0
40
0
40
0
40
0.20513362981125738
40
0.44317052626003112
40
0.44317052626003112
40
0.44317052626003112
40
0.44317052626003112
10
79.989766627550125
20
276.22271537780762
30
0
10
79.583003571908122
20
276.79014791646637
30
0
10
78.704232998804827
20
278.01602870941991
30
0
10
78.631940516034177
20
279.52861791908174
30
0
10
78.593110591173172
20
280.34106373786926
30
0
0
SPLINE
5
304
100
AcDbEntity
8
0
100
AcDbSpline
70
0
71
3
72
9
73
5
74
0
42
0.000000001
43
0.0000000001
44
0.0000000001
40
0
40
0
40
0
40
0
40
0.24606513522288093
40
0.45674391648614099
40
0.45674391648614099
40
0.45674391648614099
40
0.45674391648614099
10
78.593110591173172
20
280.34106373786926
30
0
10
78.631415391885241
20
281.18045267588434
30
0
10
78.702516422437995
20
282.73851896047563
30
0
10
79.593937169490033
20
284.01072424556372
30
0
10
80.005116015672684
20
284.59754467010498
30
0
0
SPLINE
5
305
100
AcDbEntity
8
0
100
AcDbSpline
70
0
71
3
72
9
73
5
74
0
42
0.000000001
43
0.0000000001
44
0.0000000001
40
0
40
0
40
0
40
0
40
0.19799011153906196
40
0.40559838999074593
40
0.40559838999074593
40
0.40559838999074593
40
0.40559838999074593
10
80.005116015672684
20
284.59754467010498
30
0
10
80.519264706897232
20
285.03915351760111
30
0
10
81.572538932339498
20
285.94382414058202
30
0
10
82.958653547914025
20
286.05497598756034
30
0
10
83.668145686388016
20
286.11186981201172
30
0
0
SPLINE
5
306
100
AcDbEntity
8
0
100
AcDbSpline
70
0
71
3
72
9
73
5
74
0
42
0.000000001
43
0.0000000001
44
0.0000000001
40
0
40
0
40
0
40
0
40
0.20143185927039473
40
0.39474993826111249
40
0.39474993826111249
40
0.39474993826111249
40
0.39474993826111249
10
83.668145686388016
20
286.11186981201172
30
0
10
84.356398372545698
20
286.05529446213637
30
0
10
85.705180567938569
20
285.9444226469663
30
0
10
86.727971508546233
20
285.06091458431337
30
0
10
87.228855639696121
20
284.62824046611786
30
0
0
SPLINE
5
307
100
AcDbEntity
8
0
100
AcDbSpline
70
0
71
3
72
9
73
5
74
0
42
0.000000001
43
0.0000000001
44
0.0000000001
40
0
40
0
40
0
40
0
40
0.20642608880651797
40
0.44782427833344063
40
0.44782427833344063
40
0.44782427833344063
40
0.44782427833344063
10
87.228855639696121
20
284.62824046611786
30
0
10
87.631088119069716
20
284.05287066297774
30
0
10
88.50369812122203
20
282.80465359721921
30
0
10
88.572876617643004
20
281.27705963769085
30
0
10
88.610167056322098
20
280.45361518859863
30
0
0
SPLINE
5
308
100
AcDbEntity
8
0
100
AcDbSpline
70
0
71
3
72
9
73
5
74
0
42
0.000000001
43
0.0000000001
44
0.0000000001
40
0
40
0
40
0
40
0
40
0.020465426244304936
40
0.04912502779092183
40
0.04912502779092183
40
0.04912502779092183
40
0.04912502779092183
10
88.610167056322098
20
280.45361518859863
30
0
10
88.609516128895507
20
280.38539846063304
30
0
10
88.607953648469291
20
280.22165163136532
30
0
10
88.602888907189794
20
280.05797360568829
30
0
10
88.599934130907059
20
279.96248364448547
30
0
0
LINE
5
309
100
AcDbEntity
8
0
100
AcDbLine
10
88.599934130907059
20
279.96248364448547
30
0
11
80.496248751878738
21
279.96248364448547
31
0
0
SPLINE
5
310
100
AcDbEntity
8
0
100
AcDbSpline
70
0
71
3
72
9
73
5
74
0
42
0.000000001
43
0.0000000001
44
0.0000000001
40
0
40
0
40
0
40
0
40
0.16098721364551546
40
0.29702880824889466
40
0.29702880824889466
40
0.29702880824889466
40
0.29702880824889466
10
80.496248751878738
20
279.96248364448547
30
0
10
80.549469563687666
20
279.41688075118367
30
0
10
80.647664407536936
20
278.41021833679201
30
0
10
81.238569105243968
20
277.59411141820289
30
0
10
81.509208232164383
20
277.22032785415649
30
0
0
SPLINE
5
311
100
AcDbEntity
8
0
100
AcDbSpline
70
0
71
3
72
9
73
5
74
0
42
0.000000001
43
0.0000000001
44
0.0000000001
40
0
40
0
40
0
40
0
40
0.12475007572592486
40
0.25182594558816274
40
0.25182594558816274
40
0.25182594558816274
40
0.25182594558816274
10
81.509208232164383
20
277.22032785415649
30
0
10
81.833573551194405
20
276.94279327823801
30
0
10
82.488351535940453
20
276.38254987471782
30
0
10
83.34726864631763
20
276.30692196685692
30
0
10
83.780693560838699
20
276.26875877380371
30
0
0
SPLINE
5
312
100
AcDbEntity
8
0
100
AcDbSpline
70
0
71
3
72
9
73
5
74
0
42
0.000000001
43
0.0000000001
44
0.0000000001
40
0
40
0
40
0
40
0
40
0.11146230416678365
40
0.24373099121577668
40
0.24373099121577668
40
0.24373099121577668
40
0.24373099121577668
10
61.306275874376297
20
251.84004187583923
30
0
10
60.941180475897134
20
251.76706631176515
30
0
10
60.142838255853903
20
251.60749302194967
30
0
10
59.328402937684181
20
251.59573819229121
30
0
10
58.886422663927078
20
251.58935904502869
30
0
0
LINE
5
313
100
AcDbEntity
8
0
100
AcDbLine
10
58.886422663927071
20
251.58935904502869
30
0
11
53.166777640581131
21
251.58935904502869
31
0
0
LINE
5
314
100
AcDbEntity
8
0
100
AcDbLine
10
53.166777640581131
20
251.58935904502869
30
0
11
53.166777640581131
21
266.58935904502869
31
0
0
LINE
5
315
100
AcDbEntity
8
0
100
AcDbLine
10
53.166777640581131
20
266.58935904502869
30
0
11
58.794335871934891
21
266.58935904502869
31
0
0
SPLINE
5
316
100
AcDbEntity
8
0
100
AcDbSpline
70
0
71
3
72
9
73
5
74
0
42
0.000000001
43
0.0000000001
44
0.0000000001
40
0
40
0
40
0
40
0
40
0.15530349443347419
40
0.28089947611139199
40
0.28089947611139199
40
0.28089947611139199
40
0.28089947611139199
10
58.794335871934891
20
266.58935904502869
30
0
10
59.315628125866375
20
266.57983646728502
30
0
10
60.258496292255273
20
266.56261285548419
30
0
10
61.152230412659506
20
266.26645671592223
30
0
10
61.551837474107742
20
266.13403916358948
30
0
0
SPLINE
5
317
100
AcDbEntity
8
0
100
AcDbSpline
70
0
71
3
72
9
73
5
74
0
42
0.000000001
43
0.0000000001
44
0.0000000001
40
0
40
0
40
0
40
0
40
0.10916326390856923
40
0.21731483406479904
40
0.21731483406479904
40
0.21731483406479904
40
0.21731483406479904
10
61.551837474107742
20
266.13403916358948
30
0
10
61.878797319164576
20
265.96254134687115
30
0
10
62.529686839414623
20
265.62113510590501
30
0
10
62.963044941636063
20
265.02763355409502
30
0
10
63.178715258836746
20
264.73226428031921
30
0
0
SPLINE
5
318
100
AcDbEntity
8
0
100
AcDbSpline
70
0
71
3
72
9
73
5
74
0
42
0.000000001
43
0.0000000001
44
0.0000000001
40
0
40
0
40
0
40
0
40
0.10640027755328609
40
0.20863205466952742
40
0.20863205466952742
40
0.20863205466952742
40
0.20863205466952742
10
63.178715258836746
20
264.73226428031921
30
0
10
63.350292680709103
20
264.41673560744704
30
0
10
63.686725544262508
20
263.79803989685075
30
0
10
63.740635054676758
20
263.09626525446566
30
0
10
63.767051249742508
20
262.75238871574402
30
0
0
SPLINE
5
319
100
AcDbEntity
8
0
100
AcDbSpline
70
0
71
3
72
9
73
5
74
0
42
0.000000001
43
0.0000000001
44
0.0000000001
40
0
40
0
40
0
40
0
40
0.094273402056896646
40
0.1903451698092799
40
0.1903451698092799
40
0.1903451698092799
40
0.1903451698092799
10
63.767051249742508
20
262.75238871574402
30
0
10
63.74449771628619
20
262.4351663292349
30
0
10
63.698960416667454
20
261.79467020084707
30
0
10
63.397419454167178
20
261.22756761136225
30
0
10
63.245224505662918
20
260.94133734703064
30
0
0
SPLINE
5
320
100
AcDbEntity
8
0
100
AcDbSpline
70
0
71
3
72
9
73
5
74
0
42
0.000000001
43
0.0000000001
44
0.0000000001
40
0
40
0
40
0
40
0
40
0.10088201689234351
40
0.21099285497410836
40
0.21099285497410836
40
0.21099285497410836
40
0.21099285497410836
10
63.245224505662918
20
260.94133734703064
30
0
10
63.041991543288773
20
260.66846087757392
30
0
10
62.616933596618978
20
260.09774483600864
30
0
10
61.994392232207645
20
259.75114099642121
30
0
10
61.669506579637527
20
259.5702588558197
30
0
0
SPLINE
5
321
100
AcDbEntity
8
0
100
AcDbSpline
70
0
71
3
72
9
73
5
74
0
42
0.000000001
43
0.0000000001
44
0.0000000001
40
0
40
0
40
0
40
0
40
0.13190149398565693
40
0.25291238606240485
40
0.25291238606240485
40
0.25291238606240485
40
0.25291238606240485
10
61.669506579637527
20
259.5702588558197
30
0
10
62.091079159254711
20
259.42122968442311
30
0
10
62.899416682869571
20
259.13547611035892
30
0
10
63.482802432032052
20
258.50911029890096
30
0
10
63.761934787034988
20
258.2094132900238
30
0
0
SPLINE
5
322
100
AcDbEntity
8
0
100
AcDbSpline
70
0
71
3
72
9
73
5
74
0
42
0.000000001
43
0.0000000001
44
0.0000000001
40
0
40
0
40
0
40
0
40
0.11836282411215922
40
0.24199468560912607
40
0.24199468560912607
40
0.24199468560912607
40
0.24199468560912607
10
63.761934787034988
20
258.2094132900238
30
0
10
63.975284771050326
20
257.86975514416736
30
0
10
64.411482223196103
20
257.17531863644069
30
0
10
64.465778290882014
20
256.35633552439805
30
0
10
64.493517428636551
20
255.93792796134949
30
0
0
SPLINE
5
323
100
AcDbEntity
8
0
100
AcDbSpline
70
0
71
3
72
9
73
5
74
0
42
0.000000001
43
0.0000000001
44
0.0000000001
40
0
40
0
40
0
40
0
40
0.10228686501286413
40
0.20228476483789559
40
0.20228476483789559
40
0.20228476483789559
40
0.20228476483789559
10
64.493517428636551
20
255.93792796134949
30
0
10
64.475824654635034
20
255.59456193861476
30
0
10
64.440835033750886
20
254.91551370350183
30
0
10
64.178239933419221
20
254.28848181521715
30
0
10
64.04842808842659
20
253.97851347923279
30
0
0
SPLINE
5
324
100
AcDbEntity
8
0
100
AcDbSpline
70
0
71
3
72
9
73
5
74
0
42
0.000000001
43
0.0000000001
44
0.0000000001
40
0
40
0
40
0
40
0
40
0.094372559596075226
40
0.17902438881161409
40
0.17902438881161409
40
0.17902438881161409
40
0.17902438881161409
10
64.04842808842659
20
253.97851347923279
30
0
10
63.897877486926326
20
253.6990013117275
30
0
10
63.612283564983699
20
253.16876778656706
30
0
10
63.161602968757656
20
252.77028184666597
30
0
10
62.948498278856277
20
252.58185744285583
30
0
0
SPLINE
5
325
100
AcDbEntity
8
0
100
AcDbSpline
70
0
71
3
72
9
73
5
74
0
42
0.000000001
43
0.0000000001
44
0.0000000001
40
0
40
0
40
0
40
0
40
0.085462893314916244
40
0.18107941605284605
40
0.18107941605284605
40
0.18107941605284605
40
0.18107941605284605
10
62.948498278856277
20
252.58185744285583
30
0
10
62.708031488129173
20
252.42612981411096
30
0
10
62.198528657649121
20
252.09617295233573
30
0
10
61.614607499743229
20
251.92855189520111
30
0
10
61.306275874376297
20
251.84004187583923
30
0
0
LINE
5
326
100
AcDbEntity
8
0
100
AcDbLine
10
20.93109980225563
20
240.94815611839294
30
0
11
20.93109980225563
21
228.17871451377869
31
0
0
LINE
5
327
100
AcDbEntity
8
0
100
AcDbLine
10
20.93109980225563
20
228.17871451377869
30
0
11
19.017729759216309
21
228.17871451377869
31
0
0
LINE
5
328
100
AcDbEntity
8
0
100
AcDbLine
10
19.017729759216309
20
228.17871451377869
30
0
11
19.017729759216309
21
243.17871451377869
31
0
0
LINE
5
329
100
AcDbEntity
8
0
100
AcDbLine
10
19.017729759216309
20
243.17871451377869
30
0
11
22.00545147061348
21
243.17871451377869
31
0
0
LINE
5
330
100
AcDbEntity
8
0
100
AcDbLine
10
22.00545147061348
20
243.17871451377869
30
0
11
25.555929690599442
21
232.55797743797302
31
0
0
SPLINE
5
331
100
AcDbEntity
8
0
100
AcDbSpline
70
0
71
3
72
9
73
5
74
0
42
0.000000001
43
0.0000000001
44
0.0000000001
40
0
40
0
40
0
40
0
40
0.13646419965893689
40
0.23330202876628411
40
0.23330202876628411
40
0.23330202876628411
40
0.23330202876628411
10
25.555929690599442
20
232.55797743797302
30
0
10
25.698805582640599
20
232.12610757182108
30
0
10
25.943069173811786
20
231.38777388292621
30
0
10
26.175632799633171
20
230.64567756416707
30
0
10
26.272164136171341
20
230.33765196800232
30
0
0
SPLINE
5
332
100
AcDbEntity
8
0
100
AcDbSpline
70
0
71
3
72
9
73
5
74
0
42
0.000000001
43
0.0000000001
44
0.0000000001
40
0
40
0
40
0
40
0
40
0.10621255371142851
40
0.25335345005847398
40
0.25335345005847398
40
0.25335345005847398
40
0.25335345005847398
10
26.272164136171341
20
230.33765196800232
30
0
10
26.38044329431008
20
230.67473653015014
30
0
10
26.638726306301393
20
231.47879908017245
30
0
10
26.911711657738806
20
232.27799781034676
30
0
10
27.070254236459732
20
232.7421510219574
30
0
0
LINE
5
333
100
AcDbEntity
8
0
100
AcDbLine
10
27.070254236459729
20
232.7421510219574
30
0
11
30.66165879368782
21
243.17871451377869
31
0
0
LINE
5
334
100
AcDbEntity
8
0
100
AcDbLine
10
30.66165879368782
20
243.17871451377869
30
0
11
33.3321912586689
21
243.17871451377869
31
0
0
LINE
5
335
100
AcDbEntity
8
0
100
AcDbLine
10
33.3321912586689
20
243.17871451377869
30
0
11
33.3321912586689
21
228.17871451377869
31
0
0
LINE
5
336
100
AcDbEntity
8
0
100
AcDbLine
10
33.3321912586689
20
228.17871451377869
30
0
11
31.41882136464119
21
228.17871451377869
31
0
0
LINE
5
337
100
AcDbEntity
8
0
100
AcDbLine
10
31.41882136464119
20
228.17871451377869
30
0
11
31.41882136464119
21
240.73328375816345
31
0
0
LINE
5
338
100
AcDbEntity
8
0
100
AcDbLine
10
31.41882136464119
20
240.73328375816345
30
0
11
27.060022503137589
21
228.17871451377869
31
0
0
LINE
5
339
100
AcDbEntity
8
0
100
AcDbLine
10
27.060022503137589
20
228.17871451377869
30
0
11
25.269435793161392
21
228.17871451377869
31
0
0
LINE
5
340
100
AcDbEntity
8
0
100
AcDbLine
10
25.269435793161392
20
228.17871451377869
30
0
11
20.93109980225563
21
240.94815611839294
31
0
0
SPLINE
5
341
100
AcDbEntity
8
0
100
AcDbSpline
70
0
71
3
72
9
73
5
74
0
42
0.000000001
43
0.0000000001
44
0.0000000001
40
0
40
0
40
0
40
0
40
0.17708927137532895
40
0.33024254309737039
40
0.33024254309737039
40
0.33024254309737039
40
0.33024254309737039
10
51.913365870714188
20
223.76875281333923
30
0
10
51.313539014271818
20
223.79339623577755
30
0
10
50.194959978109907
20
223.83935219027126
30
0
10
49.222944713547712
20
224.38878290328563
30
0
10
48.772162944078445
20
224.64358687400818
30
0
0
SPLINE
5
342
100
AcDbEntity
8
0
100
AcDbSpline
70
0
71
3
72
9
73
5
74
0
42
0.000000001
43
0.0000000001
44
0.0000000001
40
0
40
0
40
0
40
0
40
0.14104190520024909
40
0.29723107614602196
40
0.29723107614602196
40
0.29723107614602196
40
0.29723107614602196
10
48.772162944078445
20
224.64358687400818
30
0
10
48.425273274672165
20
224.98575317610303
30
0
10
47.694239546822423
20
225.706832900942
30
0
10
47.642922779787654
20
226.73698037297967
30
0
10
47.615956813097
20
227.27830290794373
30
0
0
LINE
5
343
100
AcDbEntity
8
0
100
AcDbLine
10
47.615956813097
20
227.2783029079437
30
0
11
49.406542330980301
21
227.0122754573822
31
0
0
SPLINE
5
344
100
AcDbEntity
8
0
100
AcDbSpline
70
0
71
3
72
9
73
5
74
0
42
0.000000001
43
0.0000000001
44
0.0000000001
40
0
40
0
40
0
40
0
40
0.074703838611038312
40
0.13879917091527499
40
0.13879917091527499
40
0.13879917091527499
40
0.13879917091527499
10
49.406542330980301
20
227.0122754573822
30
0
10
49.453300519130195
20
226.76063069452624
30
0
10
49.540176881434647
20
226.29307661565974
30
0
10
49.875735392966753
20
225.95912377647426
30
0
10
50.030691176652908
20
225.80490946769714
30
0
0
SPLINE
5
345
100
AcDbEntity
8
0
100
AcDbSpline
70
0
71
3
72
9
73
5
74
0
42
0.000000001
43
0.0000000001
44
0.0000000001
40
0
40
0
40
0
40
0
40
0.089708090649383163
40
0.19663188103384505
40
0.19663188103384505
40
0.19663188103384505
40
0.19663188103384505
10
50.030691176652908
20
225.80490946769714
30
0
10
50.294920038185637
20
225.65599258136231
30
0
10
50.874085392062995
20
225.32958046774183
30
0
10
51.540663470214824
20
225.30608640123768
30
0
10
51.903132945299149
20
225.29331088066101
30
0
0
SPLINE
5
346
100
AcDbEntity
8
0
100
AcDbSpline
70
0
71
3
72
9
73
5
74
0
42
0.000000001
43
0.0000000001
44
0.0000000001
40
0
40
0
40
0
40
0
40
0.11403820816401181
40
0.20652988186840598
40
0.20652988186840598
40
0.20652988186840598
40
0.20652988186840598
10
51.903132945299149
20
225.29331088066101
30
0
10
52.289656177033379
20
225.3041790206351
30
0
10
52.989672414351439
20
225.32386185940572
30
0
10
53.603154569150497
20
225.6561145143128
30
0
10
53.877894431352615
20
225.80490946769714
30
0
0
SPLINE
5
347
100
AcDbEntity
8
0
100
AcDbSpline
70
0
71
3
72
9
73
5
74
0
42
0.000000001
43
0.0000000001
44
0.0000000001
40
0
40
0
40
0
40
0
40
0.084677910215352717
40
0.17402422992097649
40
0.17402422992097649
40
0.17402422992097649
40
0.17402422992097649
10
53.877894431352615
20
225.80490946769714
30
0
10
54.09207378480032
20
225.99642005387443
30
0
10
54.532240493613955
20
226.38999946787351
30
0
10
54.721871528457328
20
226.94991037763498
30
0
10
54.819230586290359
20
227.23737597465515
30
0
0
SPLINE
5
348
100
AcDbEntity
8
0
100
AcDbSpline
70
0
71
3
72
9
73
5
74
0
42
0.000000001
43
0.0000000001
44
0.0000000001
40
0
40
0
40
0
40
0
40
0.087855583044802274
40
0.2370124708476059
40
0.2370124708476059
40
0.2370124708476059
40
0.2370124708476059
10
54.819230586290359
20
227.23737597465515
30
0
10
54.859645321249346
20
227.52775532376086
30
0
10
54.968674205462605
20
228.31112644975468
30
0
10
54.958591777693542
20
229.10276084146426
30
0
10
54.952246695756912
20
229.60095286369324
30
0
0
SPLINE
5
349
100
AcDbEntity
8
0
100
AcDbSpline
70
0
71
3
72
9
73
5
74
0
42
0.000000001
43
0.0000000001
44
0.0000000001
40
0
40
0
40
0
40
0
40
0.17250547791244816
40
0.3415330019973658
40
0.3415330019973658
40
0.3415330019973658
40
0.3415330019973658
10
54.952246695756912
20
229.60095286369324
30
0
10
54.528177290218913
20
229.18614516189024
30
0
10
53.68858831668998
20
228.36489286681632
30
0
10
52.521608097700593
20
228.24035121392399
30
0
10
51.944059878587723
20
228.17871451377869
30
0
0
SPLINE
5
350
100
AcDbEntity
8
0
100
AcDbSpline
70
0
71
3
72
9
73
5
74
0
42
0.000000001
43
0.0000000001
44
0.0000000001
40
0
40
0
40
0
40
0
40
0.20282289710874019
40
0.39423022496799665
40
0.39423022496799665
40
0.39423022496799665
40
0.39423022496799665
10
51.944059878587723
20
228.17871451377869
30
0
10
51.245687195499094
20
228.23792424415399
30
0
10
49.888248642504145
20
228.35301117792181
30
0
10
48.937195861624836
20
229.32394832278092
30
0
10
48.475439101457596
20
229.79535937309265
30
0
0
SPLINE
5
351
100
AcDbEntity
8
0
100
AcDbSpline
70
0
71
3
72
9
73
5
74
0
42
0.000000001
43
0.0000000001
44
0.0000000001
40
0
40
0
40
0
40
0
40
0.2002140798157096
40
0.4124555956363134
40
0.4124555956363134
40
0.4124555956363134
40
0.4124555956363134
10
48.475439101457596
20
229.79535937309265
30
0
10
48.117406606868975
20
230.37151113930577
30
0
10
47.379833575298782
20
231.55842576653416
30
0
10
47.292531293526672
20
232.95474057222211
30
0
10
47.247607260942459
20
233.67325663566589
30
0
0
SPLINE
5
352
100
AcDbEntity
8
0
100
AcDbSpline
70
0
71
3
72
9
73
5
74
0
42
0.000000001
43
0.0000000001
44
0.0000000001
40
0
40
0
40
0
40
0
40
0.15017418293435633
40
0.29399830938420096
40
0.29399830938420096
40
0.29399830938420096
40
0.29399830938420096
10
47.247607260942459
20
233.67325663566589
30
0
10
47.268962221451822
20
234.17670245339588
30
0
10
47.310769156332661
20
235.16230607971198
30
0
10
47.646247259346154
20
236.08965251858746
30
0
10
47.810363322496414
20
236.54331088066101
30
0
0
SPLINE
5
353
100
AcDbEntity
8
0
100
AcDbSpline
70
0
71
3
72
9
73
5
74
0
42
0.000000001
43
0.0000000001
44
0.0000000001
40
0
40
0
40
0
40
0
40
0.13538238099143565
40
0.26337739418731088
40
0.26337739418731088
40
0.26337739418731088
40
0.26337739418731088
10
47.810363322496414
20
236.54331088066101
30
0
10
48.013798940424607
20
236.95305622977486
30
0
10
48.409569368913381
20
237.75018848243337
30
0
10
49.104591378794034
20
238.30481571525263
30
0
10
49.442355185747147
20
238.5743510723114
30
0
0
SPLINE
5
354
100
AcDbEntity
8
0
100
AcDbSpline
70
0
71
3
72
9
73
5
74
0
42
0.000000001
43
0.0000000001
44
0.0000000001
40
0
40
0
40
0
40
0
40
0.12807023778379861
40
0.26418663423469546
40
0.26418663423469546
40
0.26418663423469546
40
0.26418663423469546
10
49.442355185747147
20
238.5743510723114
30
0
10
49.821246854238467
20
238.78319695719375
30
0
10
50.602834492166259
20
239.2140097077251
30
0
10
51.494751853124271
20
239.26454639884093
30
0
10
51.954292804002762
20
239.29058432579041
30
0
0
SPLINE
5
355
100
AcDbEntity
8
0
100
AcDbSpline
70
0
71
3
72
9
73
5
74
0
42
0.000000001
43
0.0000000001
44
0.0000000001
40
0
40
0
40
0
40
0
40
0.17973344235901281
40
0.36327674829764789
40
0.36327674829764789
40
0.36327674829764789
40
0.36327674829764789
10
51.954292804002762
20
239.29058432579041
30
0
10
52.569486082485362
20
239.22310602667224
30
0
10
53.812913075528343
20
239.08671907073034
30
0
10
54.685380849977875
20
238.1889330332437
30
0
10
55.126189738512039
20
237.73533225059509
30
0
0
LINE
5
356
100
AcDbEntity
8
0
100
AcDbLine
10
55.126189738512039
20
237.73533225059512
30
0
11
55.126189738512039
21
239.04501795768738
31
0
0
LINE
5
357
100
AcDbEntity
8
0
100
AcDbLine
10
55.126189738512039
20
239.04501795768738
30
0
11
56.824688464403152
21
239.04501795768738
31
0
0
LINE
5
358
100
AcDbEntity
8
0
100
AcDbLine
10
56.824688464403152
20
239.04501795768738
30
0
11
56.824688464403152
21
229.65211272239685
31
0
0
SPLINE
5
359
100
AcDbEntity
8
0
100
AcDbSpline
70
0
71
3
72
9
73
5
74
0
42
0.000000001
43
0.0000000001
44
0.0000000001
40
0
40
0
40
0
40
0
40
0.21717329189123893
40
0.36519947014977455
40
0.36519947014977455
40
0.36519947014977455
40
0.36519947014977455
10
56.824688464403152
20
229.65211272239685
30
0
10
56.82517756428485
20
228.92235724456171
30
0
10
56.826000036588383
20
227.69519753480444
30
0
10
56.457386001543107
20
226.52849246967884
30
0
10
56.307975798845291
20
226.05559229850769
30
0
0
SPLINE
5
360
100
AcDbEntity
8
0
100
AcDbSpline
70
0
71
3
72
9
73
5
74
0
42
0.000000001
43
0.0000000001
44
0.0000000001
40
0
40
0
40
0
40
0
40
0.11592850848489315
40
0.23699756061714999
40
0.23699756061714999
40
0.23699756061714999
40
0.23699756061714999
10
56.307975798845291
20
226.05559229850769
30
0
10
56.106683017025993
20
225.71902556060883
30
0
10
55.695171656408178
20
225.03096792138462
30
0
10
55.017203970562122
20
224.60187245272357
30
0
10
54.670867472887039
20
224.38267111778259
30
0
0
SPLINE
5
361
100
AcDbEntity
8
0
100
AcDbSpline
70
0
71
3
72
9
73
5
74
0
42
0.000000001
43
0.0000000001
44
0.0000000001
40
0
40
0
40
0
40
0
40
0.13317029287629539
40
0.28474223676311938
40
0.28474223676311938
40
0.28474223676311938
40
0.28474223676311938
10
54.670867472887039
20
224.38267111778259
30
0
10
54.260211329154735
20
224.20381459763476
30
0
10
53.382154020866977
20
223.82138692171253
30
0
10
52.423610746883384
20
223.78703746800943
30
0
10
51.913365870714188
20
223.76875281333923
30
0
0
LINE
5
362
100
AcDbEntity
8
0
100
AcDbLine
10
68.990449458360672
20
228.17871451377869
30
0
11
67.066845446825027
21
228.17871451377869
31
0
0
SPLINE
5
363
100
AcDbEntity
8
0
100
AcDbSpline
70
0
71
3
72
9
73
5
74
0
42
0.000000001
43
0.0000000001
44
0.0000000001
40
0
40
0
40
0
40
0
40
0.066464781731129088
40
0.13956405822015802
40
0.13956405822015802
40
0.13956405822015802
40
0.13956405822015802
10
67.066845446825027
20
228.17871451377869
30
0
10
66.979321452180642
20
228.38337456868339
30
0
10
66.795536843760161
20
228.81312378434473
30
0
10
66.731853576776842
20
229.27642932001055
30
0
10
66.698498278856277
20
229.51909422874451
30
0
0
SPLINE
5
364
100
AcDbEntity
8
0
100
AcDbSpline
70
0
71
3
72
9
73
5
74
0
42
0.000000001
43
0.0000000001
44
0.0000000001
40
0
40
0
40
0
40
0
40
0.1248328844167521
40
0.23293765954378318
40
0.23293765954378318
40
0.23293765954378318
40
0.23293765954378318
10
66.698498278856277
20
229.51909422874451
30
0
10
66.373747410910809
20
229.25569168911778
30
0
10
65.76776359929363
20
228.76418361105641
30
0
10
65.05816891335094
20
228.4411738009519
30
0
10
64.728850871324539
20
228.29126715660095
30
0
0
SPLINE
5
365
100
AcDbEntity
8
0
100
AcDbSpline
70
0
71
3
72
9
73
5
74
0
42
0.000000001
43
0.0000000001
44
0.0000000001
40
0
40
0
40
0
40
0
40
0.10170873929039555
40
0.20709499753971106
40
0.20709499753971106
40
0.20709499753971106
40
0.20709499753971106
10
64.728850871324539
20
228.29126715660095
30
0
10
64.40451092657635
20
228.18682561392143
30
0
10
63.744103762666093
20
227.97416619866209
30
0
10
63.05068272723468
20
227.94698174063481
30
0
10
62.697815448045731
20
227.93314814567566
30
0
0
SPLINE
5
366
100
AcDbEntity
8
0
100
AcDbSpline
70
0
71
3
72
9
73
5
74
0
42
0.000000001
43
0.0000000001
44
0.0000000001
40
0
40
0
40
0
40
0
40
0.15984232890179978
40
0.29389671472344125
40
0.29389671472344125
40
0.29389671472344125
40
0.29389671472344125
10
62.697815448045731
20
227.93314814567566
30
0
10
62.152840403980917
20
227.95495926760427
30
0
10
61.150813117733648
20
227.99506264399588
30
0
10
60.323009547298206
20
228.55333434138294
30
0
10
59.945425540208817
20
228.80797743797302
30
0
0
SPLINE
5
367
100
AcDbEntity
8
0
100
AcDbSpline
70
0
71
3
72
9
73
5
74
0
42
0.000000001
43
0.0000000001
44
0.0000000001
40
0
40
0
40
0
40
0
40
0.12300500815771337
40
0.24925026387280552
40
0.24925026387280552
40
0.24925026387280552
40
0.24925026387280552
10
59.945425540208817
20
228.80797743797302
30
0
10
59.664914022047533
20
229.12271686254343
30
0
10
59.096501638127243
20
229.76048670460352
30
0
10
59.02157583634618
20
230.61223951011129
30
0
10
58.983625918626785
20
231.04365229606628
30
0
0
SPLINE
5
368
100
AcDbEntity
8
0
100
AcDbSpline
70
0
71
3
72
9
73
5
74
0
42
0.000000001
43
0.0000000001
44
0.0000000001
40
0
40
0
40
0
40
0
40
0.076893552175784891
40
0.15149506120587275
40
0.15149506120587275
40
0.15149506120587275
40
0.15149506120587275
10
58.983625918626785
20
231.04365229606628
30
0
10
58.99782369646168
20
231.30220755650038
30
0
10
59.025796044743466
20
231.81161106168656
30
0
10
59.240924537945638
20
232.274003016557
30
0
10
59.346861392259598
20
232.50170111656189
30
0
0
SPLINE
5
369
100
AcDbEntity
8
0
100
AcDbSpline
70
0
71
3
72
9
73
5
74
0
42
0.000000001
43
0.0000000001
44
0.0000000001
40
0
40
0
40
0
40
0
40
0.072779830103448906
40
0.14339433803058771
40
0.14339433803058771
40
0.14339433803058771
40
0.14339433803058771
10
59.346861392259598
20
232.50170111656189
30
0
10
59.475795928187821
20
232.70977552921849
30
0
10
59.729828981060123
20
233.11973379130268
30
0
10
60.110812730777205
20
233.41520435288476
30
0
10
60.29842808842659
20
233.56070876121521
30
0
0
SPLINE
5
370
100
AcDbEntity
8
0
100
AcDbSpline
70
0
71
3
72
9
73
5
74
0
42
0.000000001
43
0.0000000001
44
0.0000000001
40
0
40
0
40
0
40
0
40
0.071691133870825943
40
0.14609458734360009
40
0.14609458734360009
40
0.14609458734360009
40
0.14609458734360009
10
60.29842808842659
20
233.56070876121521
30
0
10
60.502921321080464
20
233.6862252881667
30
0
10
60.919644461391712
20
233.94200705949169
30
0
10
61.385971080036825
20
234.0893501018127
30
0
10
61.623463183641434
20
234.16438937187195
30
0
0
SPLINE
5
371
100
AcDbEntity
8
0
100
AcDbSpline
70
0
71
3
72
9
73
5
74
0
42
0.000000001
43
0.0000000001
44
0.0000000001
40
0
40
0
40
0
40
0
40
0.069481585019622052
40
0.16610575737638672
40
0.16610575737638672
40
0.16610575737638672
40
0.16610575737638672
10
61.623463183641434
20
234.16438937187195
30
0
10
61.849746540734152
20
234.2142980814489
30
0
10
62.390709565698842
20
234.33361205509553
30
0
10
62.940660921162277
20
234.40128751595603
30
0
10
63.260569125413895
20
234.44065451622009
30
0
0
SPLINE
5
372
100
AcDbEntity
8
0
100
AcDbSpline
70
0
71
3
72
9
73
5
74
0
42
0.000000001
43
0.0000000001
44
0.0000000001
40
0
40
0
40
0
40
0
40
0.19582263627885424
40
0.33491786020993503
40
0.33491786020993503
40
0.33491786020993503
40
0.33491786020993503
10
63.260569125413895
20
234.44065451622009
30
0
10
63.909790593533195
20
234.51924779877936
30
0
10
65.020162045152489
20
234.65366685533894
30
0
10
66.097562112733684
20
234.95138385454243
30
0
10
66.545018702745438
20
235.07502913475037
30
0
0
SPLINE
5
373
100
AcDbEntity
8
0
100
AcDbSpline
70
0
71
3
72
9
73
5
74
0
42
0.000000001
43
0.0000000001
44
0.0000000001
40
0
40
0
40
0
40
0
40
0.030961496114590082
40
0.048101882905391566
40
0.048101882905391566
40
0.048101882905391566
40
0.048101882905391566
10
66.545018702745438
20
235.07502913475037
30
0
10
66.547906033345171
20
235.17819587134142
30
0
10
66.552391799727516
20
235.33847605498849
30
0
10
66.554500296765582
20
235.49880344542376
30
0
10
66.555251628160477
20
235.55593371391296
30
0
0
SPLINE
5
374
100
AcDbEntity
8
0
100
AcDbSpline
70
0
71
3
72
9
73
5
74
0
42
0.000000001
43
0.0000000001
44
0.0000000001
40
0
40
0
40
0
40
0
40
0.096806958875643764
40
0.1706943787825646
40
0.1706943787825646
40
0.1706943787825646
40
0.1706943787825646
10
66.555251628160477
20
235.55593371391296
30
0
10
66.54790340349949
20
235.88873649466251
30
0
10
66.534946683670341
20
236.47554930829637
30
0
10
66.18492977145624
20
236.94058337640558
30
0
10
66.033420115709305
20
237.14187979698181
30
0
0
SPLINE
5
375
100
AcDbEntity
8
0
100
AcDbSpline
70
0
71
3
72
9
73
5
74
0
42
0.000000001
43
0.0000000001
44
0.0000000001
40
0
40
0
40
0
40
0
40
0.09944509173643408
40
0.22245469841528515
40
0.22245469841528515
40
0.22245469841528515
40
0.22245469841528515
10
66.033420115709305
20
237.14187979698181
30
0
10
65.749081982909189
20
237.32339534304188
30
0
10
65.113028936192151
20
237.72943836991647
30
0
10
64.355024937296051
20
237.752998395058
30
0
10
63.935875445604324
20
237.76602625846863
30
0
0
SPLINE
5
376
100
AcDbEntity
8
0
100
AcDbSpline
70
0
71
3
72
9
73
5
74
0
42
0.000000001
43
0.0000000001
44
0.0000000001
40
0
40
0
40
0
40
0
40
0.11350680798201054
40
0.19949229220620501
40
0.19949229220620501
40
0.19949229220620501
40
0.19949229220620501
10
63.935875445604324
20
237.76602625846863
30
0
10
63.551116844331034
20
237.76003617402796
30
0
10
62.874889782019224
20
237.74950838545897
30
0
10
62.275669529066882
20
237.44287455933713
30
0
10
62.017392665147781
20
237.31070876121521
30
0
0
SPLINE
5
377
100
AcDbEntity
8
0
100
AcDbSpline
70
0
71
3
72
9
73
5
74
0
42
0.000000001
43
0.0000000001
44
0.0000000001
40
0
40
0
40
0
40
0
40
0.082916496001069581
40
0.18802089639855313
40
0.18802089639855313
40
0.18802089639855313
40
0.18802089639855313
10
62.017392665147781
20
237.31070876121521
30
0
10
61.820209209503822
20
237.11106511336601
30
0
10
61.373077313280611
20
236.65835450161518
30
0
10
61.198965570098913
20
236.04310640459494
30
0
10
61.101636439561844
20
235.69918036460876
30
0
0
LINE
5
378
100
AcDbEntity
8
0
100
AcDbLine
10
61.101636439561844
20
235.69918036460876
30
0
11
59.300813227891922
21
235.94474673271179
31
0
0
SPLINE
5
379
100
AcDbEntity
8
0
100
AcDbSpline
70
0
71
3
72
9
73
5
74
0
42
0.000000001
43
0.0000000001
44
0.0000000001
40
0
40
0
40
0
40
0
40
0.10942707575305476
40
0.20482382290147705
40
0.20482382290147705
40
0.20482382290147705
40
0.20482382290147705
10
59.300813227891922
20
235.94474673271179
30
0
10
59.388648475305573
20
236.30210526012951
30
0
10
59.553057064651071
20
236.97100314694978
30
0
10
59.932440234665457
20
237.54481611837599
30
0
10
60.109138041734695
20
237.81206965446472
30
0
0
SPLINE
5
380
100
AcDbEntity
8
0
100
AcDbSpline
70
0
71
3
72
9
73
5
74
0
42
0.000000001
43
0.0000000001
44
0.0000000001
40
0
40
0
40
0
40
0
40
0.09324444678403751
40
0.19803233438380349
40
0.19803233438380349
40
0.19803233438380349
40
0.19803233438380349
10
60.109138041734695
20
237.81206965446472
30
0
10
60.326945848270611
20
238.03869802717074
30
0
10
60.789525549936073
20
238.5200108262967
30
0
10
61.408492399985164
20
238.7730129003306
30
0
10
61.736015826463699
20
238.9068877696991
30
0
0
SPLINE
5
381
100
AcDbEntity
8
0
100
AcDbSpline
70
0
71
3
72
9
73
5
74
0
42
0.000000001
43
0.0000000001
44
0.0000000001
40
0
40
0
40
0
40
0
40
0.11840375672127974
40
0.2504883091574529
40
0.2504883091574529
40
0.2504883091574529
40
0.2504883091574529
10
61.736015826463699
20
238.9068877696991
30
0
10
62.116309673730832
20
239.01871055176812
30
0
10
62.920837886540539
20
239.25527652215109
30
0
10
63.759614064407572
20
239.27839418919322
30
0
10
64.20190766453743
20
239.29058432579041
30
0
0
SPLINE
5
382
100
AcDbEntity
8
0
100
AcDbSpline
70
0
71
3
72
9
73
5
74
0
42
0.000000001
43
0.0000000001
44
0.0000000001
40
0
40
0
40
0
40
0
40
0.12637353751247296
40
0.22936112344833731
40
0.22936112344833731
40
0.22936112344833731
40
0.22936112344833731
10
64.20190766453743
20
239.29058432579041
30
0
10
64.625371791840706
20
239.28345407871723
30
0
10
65.393936238877458
20
239.27051306660854
30
0
10
66.131831021357726
20
239.05840480705911
30
0
10
66.463160067796707
20
238.96316409111023
30
0
0
SPLINE
5
383
100
AcDbEntity
8
0
100
AcDbSpline
70
0
71
3
72
9
73
5
74
0
42
0.000000001
43
0.0000000001
44
0.0000000001
40
0
40
0
40
0
40
0
40
0.084027444277494659
40
0.15339122203959199
40
0.15339122203959199
40
0.15339122203959199
40
0.15339122203959199
10
66.463160067796707
20
238.96316409111023
30
0
10
66.725594956317579
20
238.85642465372132
30
0
10
67.204667104734938
20
238.66157292543559
30
0
10
67.57478418066205
20
238.30206155637961
30
0
10
67.742151767015457
20
238.1394898891449
30
0
0
SPLINE
5
384
100
AcDbEntity
8
0
100
AcDbSpline
70
0
71
3
72
9
73
5
74
0
42
0.000000001
43
0.0000000001
44
0.0000000001
40
0
40
0
40
0
40
0
40
0.066051476181775107
40
0.1388142684472376
40
0.1388142684472376
40
0.1388142684472376
40
0.1388142684472376
10
67.742151767015457
20
238.1394898891449
30
0
10
67.869497767676961
20
237.95761591043973
30
0
10
68.137129059865785
20
237.57538821829755
30
0
10
68.253919755661883
20
237.12313812158399
30
0
10
68.31513836979866
20
236.88608050346375
30
0
0
SPLINE
5
385
100
AcDbEntity
8
0
100
AcDbSpline
70
0
71
3
72
9
73
5
74
0
42
0.000000001
43
0.0000000001
44
0.0000000001
40
0
40
0
40
0
40
0
40
0.066356145010967635
40
0.17023583773752082
40
0.17023583773752082
40
0.17023583773752082
40
0.17023583773752082
10
68.31513836979866
20
236.88608050346375
30
0
10
68.341693415976678
20
236.66631843908377
30
0
10
68.409820045869452
20
236.10252168557324
30
0
10
68.408211488643687
20
235.53431031333074
30
0
10
68.40722993016243
20
235.18758177757263
30
0
0
LINE
5
386
100
AcDbEntity
8
0
100
AcDbLine
10
68.40722993016243
20
235.18758177757263
30
0
11
68.40722993016243
21
232.73192286491394
31
0
0
SPLINE
5
387
100
AcDbEntity
8
0
100
AcDbSpline
70
0
71
3
72
9
73
5
74
0
42
0.000000001
43
0.0000000001
44
0.0000000001
40
0
40
0
40
0
40
0
40
0.20964731285148044
40
0.32522195586435154
40
0.32522195586435154
40
0.32522195586435154
40
0.32522195586435154
10
68.40722993016243
20
232.73192286491394
30
0
10
68.402997179970299
20
232.03253189054095
30
0
10
68.396430993752844
20
230.94757975113239
30
0
10
68.491211845494604
20
229.86721477551617
30
0
10
68.524894267320633
20
229.48328375816345
30
0
0
SPLINE
5
388
100
AcDbEntity
8
0
100
AcDbSpline
70
0
71
3
72
9
73
5
74
0
42
0.000000001
43
0.0000000001
44
0.0000000001
40
0
40
0
40
0
40
0
40
0.068900457331461162
40
0.13901569809387015
40
0.13901569809387015
40
0.13901569809387015
40
0.13901569809387015
10
68.524894267320633
20
229.48328375816345
30
0
10
68.574209015602378
20
229.25792928655639
30
0
10
68.673707980111857
20
228.80324712039427
30
0
10
68.884255677907561
20
228.38810129469357
30
0
10
68.990449458360672
20
228.17871451377869
30
0
0
LWPOLYLINE
5
389
100
AcDbEntity
8
0
100
AcDbPolyline
90
4
70
1
43
0.0
10
85.862888842821121
20
243.17871451377869
10
85.862888842821121
20
228.17871451377869
10
84.021143466234207
20
228.17871451377869
10
84.021143466234207
20
243.17871451377869
0
LINE
5
390
100
AcDbEntity
8
0
100
AcDbLine
10
102.64326050877571
20
240.04774451255798
30
0
11
102.64326050877571
21
239.04501795768738
31
0
0
LINE
5
391
100
AcDbEntity
8
0
100
AcDbLine
10
102.64326050877571
20
239.04501795768738
30
0
11
106.2551112473011
21
239.04501795768738
31
0
0
LINE
5
392
100
AcDbEntity
8
0
100
AcDbLine
10
106.2551112473011
20
239.04501795768738
30
0
11
106.2551112473011
21
240.20122408866882
31
0
0
SPLINE
5
393
100
AcDbEntity
8
0
100
AcDbSpline
70
0
71
3
72
9
73
5
74
0
42
0.000000001
43
0.0000000001
44
0.0000000001
40
0
40
0
40
0
40
0
40
0.09553642307415923
40
0.16437360336089235
40
0.16437360336089235
40
0.16437360336089235
40
0.16437360336089235
10
106.2551112473011
20
240.20122408866882
30
0
10
106.25641501540699
20
240.5212468529061
30
0
10
106.25865819193187
20
241.07185669596419
30
0
10
106.39318817161393
20
241.60487983878289
30
0
10
106.44952729344368
20
241.82810187339783
30
0
0
SPLINE
5
394
100
AcDbEntity
8
0
100
AcDbSpline
70
0
71
3
72
9
73
5
74
0
42
0.000000001
43
0.0000000001
44
0.0000000001
40
0
40
0
40
0
40
0
40
0.074513230558105159
40
0.151127671844005
40
0.151127671844005
40
0.151127671844005
40
0.151127671844005
10
106.44952729344368
20
241.82810187339783
30
0
10
106.55656025190021
20
242.05654682979218
30
0
10
106.77364440864601
20
242.51987869912327
30
0
10
107.17983190045884
20
242.83146515874333
30
0
10
107.3857493698597
20
242.98942446708679
30
0
0
SPLINE
5
395
100
AcDbEntity
8
0
100
AcDbSpline
70
0
71
3
72
9
73
5
74
0
42
0.000000001
43
0.0000000001
44
0.0000000001
40
0
40
0
40
0
40
0
40
0.087099131956461101
40
0.19498191755698338
40
0.19498191755698338
40
0.19498191755698338
40
0.19498191755698338
10
107.3857493698597
20
242.98942446708679
30
0
10
107.64930400646097
20
243.1188624750115
30
0
10
108.23930286490238
20
243.40862507565984
30
0
10
108.89854753791538
20
243.42529203778867
30
0
10
109.26330521702766
20
243.43451380729675
30
0
0
SPLINE
5
396
100
AcDbEntity
8
0
100
AcDbSpline
70
0
71
3
72
9
73
5
74
0
42
0.000000001
43
0.0000000001
44
0.0000000001
40
0
40
0
40
0
40
0
40
0.081985167366647127
40
0.17307873656110051
40
0.17307873656110051
40
0.17307873656110051
40
0.17307873656110051
10
109.26330521702766
20
243.43451380729675
30
0
10
109.53680409836937
20
243.42534566926724
30
0
10
110.11418708548703
20
243.40599082987688
30
0
10
110.68292888695274
20
243.30401265221701
30
0
10
110.98226502537727
20
243.25034022331238
30
0
0
LINE
5
397
100
AcDbEntity
8
0
100
AcDbLine
10
110.98226502537727
20
243.25034022331235
30
0
11
110.70600464940071
21
241.64392828941345
31
0
0
SPLINE
5
398
100
AcDbEntity
8
0
100
AcDbSpline
70
0
71
3
72
9
73
5
74
0
42
0.000000001
43
0.0000000001
44
0.0000000001
40
0
40
0
40
0
40
0
40
0.056288836029413848
40
0.10904519621430547
40
0.10904519621430547
40
0.10904519621430547
40
0.10904519621430547
10
110.70600464940071
20
241.64392828941345
30
0
10
110.52052240050884
20
241.67376351150682
30
0
10
110.16119807171802
20
241.73156160926052
30
0
10
109.79742391498816
20
241.74145941951195
30
0
10
109.62142899632454
20
241.74624800682068
30
0
0
SPLINE
5
399
100
AcDbEntity
8
0
100
AcDbSpline
70
0
71
3
72
9
73
5
74
0
42
0.000000001
43
0.0000000001
44
0.0000000001
40
0
40
0
40
0
40
0
40
0.072181209052325918
40
0.12637224763265187
40
0.12637224763265187
40
0.12637224763265187
40
0.12637224763265187
10
109.62142899632454
20
241.74624800682068
30
0
10
109.37417997405151
20
241.74193818010707
30
0
10
108.94130533701176
20
241.7343926915255
30
0
10
108.58662035813181
20
241.49205039477118
30
0
10
108.43452408909798
20
241.38812899589539
30
0
0
SPLINE
5
400
100
AcDbEntity
8
0
100
AcDbSpline
70
0
71
3
72
9
73
5
74
0
42
0.000000001
43
0.0000000001
44
0.0000000001
40
0
40
0
40
0
40
0
40
0.057656893859960277
40
0.14073594550248297
40
0.14073594550248297
40
0.14073594550248297
40
0.14073594550248297
10
108.43452408909798
20
241.38812899589539
30
0
10
108.3338620591731
20
241.22078761542386
30
0
10
108.0881539571709
20
240.81232046040247
30
0
10
108.0872037166495
20
240.331551431066
30
0
10
108.0866427719593
20
240.04774451255798
30
0
0
LINE
5
401
100
AcDbEntity
8
0
100
AcDbLine
10
108.0866427719593
20
240.04774451255798
30
0
11
108.0866427719593
21
239.04501795768738
31
0
0
LINE
5
402
100
AcDbEntity
8
0
100
AcDbLine
10
108.0866427719593
20
239.04501795768738
30
0
11
110.20463898777962
21
239.04501795768738
31
0
0
LINE
5
403
100
AcDbEntity
8
0
100
AcDbLine
10
110.20463898777962
20
239.04501795768738
30
0
11
110.20463898777962
21
237.61254668235779
31
0
0
LINE
5
404
100
AcDbEntity
8
0
100
AcDbLine
10
110.20463898777962
20
237.61254668235779
30
0
11
108.0866427719593
21
237.61254668235779
31
0
0
LINE
5
405
100
AcDbEntity
8
0
100
AcDbLine
10
108.0866427719593
20
237.61254668235779
30
0
11
108.0866427719593
21
228.17871451377869
31
0
0
LINE
5
406
100
AcDbEntity
8
0
100
AcDbLine
10
108.0866427719593
20
228.17871451377869
30
0
11
106.2551112473011
21
228.17871451377869
31
0
0
LINE
5
407
100
AcDbEntity
8
0
100
AcDbLine
10
106.2551112473011
20
228.17871451377869
30
0
11
106.2551112473011
21
237.61254668235779
31
0
0
LINE
5
408
100
AcDbEntity
8
0
100
AcDbLine
10
106.2551112473011
20
237.61254668235779
30
0
11
102.64326050877571
21
237.61254668235779
31
0
0
LINE
5
409
100
AcDbEntity
8
0
100
AcDbLine
10
102.64326050877571
20
237.61254668235779
30
0
11
102.64326050877571
21
228.17871451377869
31
0
0
LINE
5
410
100
AcDbEntity
8
0
100
AcDbLine
10
102.64326050877571
20
228.17871451377869
30
0
11
100.81172898411751
21
228.17871451377869
31
0
0
LINE
5
411
100
AcDbEntity
8
0
100
AcDbLine
10
100.81172898411751
20
228.17871451377869
30
0
11
100.81172898411751
21
237.61254668235779
31
0
0
LINE
5
412
100
AcDbEntity
8
0
100
AcDbLine
10
100.81172898411751
20
237.61254668235779
30
0
11
99.184855967760086
21
237.61254668235779
31
0
0
LINE
5
413
100
AcDbEntity
8
0
100
AcDbLine
10
99.184855967760086
20
237.61254668235779
30
0
11
99.184855967760086
21
239.04501795768738
31
0
0
LINE
5
414
100
AcDbEntity
8
0
100
AcDbLine
10
99.184855967760086
20
239.04501795768738
30
0
11
100.81172898411751
21
239.04501795768738
31
0
0
LINE
5
415
100
AcDbEntity
8
0
100
AcDbLine
10
100.81172898411751
20
239.04501795768738
30
0
11
100.81172898411751
21
240.20122408866882
31
0
0
SPLINE
5
416
100
AcDbEntity
8
0
100
AcDbSpline
70
0
71
3
72
9
73
5
74
0
42
0.000000001
43
0.0000000001
44
0.0000000001
40
0
40
0
40
0
40
0
40
0.09553642307415923
40
0.16437360336089235
40
0.16437360336089235
40
0.16437360336089235
40
0.16437360336089235
10
100.81172898411751
20
240.20122408866882
30
0
10
100.81303275222339
20
240.5212468529061
30
0
10
100.81527592874826
20
241.07185669596419
30
0
10
100.94980590843033
20
241.60487983878289
30
0
10
101.00614503026009
20
241.82810187339783
30
0
0
SPLINE
5
417
100
AcDbEntity
8
0
100
AcDbSpline
70
0
71
3
72
9
73
5
74
0
42
0.000000001
43
0.0000000001
44
0.0000000001
40
0
40
0
40
0
40
0
40
0.074513230558105159
40
0.151127671844005
40
0.151127671844005
40
0.151127671844005
40
0.151127671844005
10
101.00614503026009
20
241.82810187339783
30
0
10
101.11317798871661
20
242.05654682979218
30
0
10
101.33026214546241
20
242.51987869912327
30
0
10
101.73644963727524
20
242.83146515874333
30
0
10
101.9423671066761
20
242.98942446708679
30
0
0
SPLINE
5
418
100
AcDbEntity
8
0
100
AcDbSpline
70
0
71
3
72
9
73
5
74
0
42
0.000000001
43
0.0000000001
44
0.0000000001
40
0
40
0
40
0
40
0
40
0.087099131956461101
40
0.19498191755698338
40
0.19498191755698338
40
0.19498191755698338
40
0.19498191755698338
10
101.9423671066761
20
242.98942446708679
30
0
10
102.20592174327737
20
243.1188624750115
30
0
10
102.79592060171879
20
243.40862507565984
30
0
10
103.45516527473178
20
243.42529203778867
30
0
10
103.81992295384407
20
243.43451380729675
30
0
0
SPLINE
5
419
100
AcDbEntity
8
0
100
AcDbSpline
70
0
71
3
72
9
73
5
74
0
42
0.000000001
43
0.0000000001
44
0.0000000001
40
0
40
0
40
0
40
0
40
0.081985167366647127
40
0.17307873656110051
40
0.17307873656110051
40
0.17307873656110051
40
0.17307873656110051
10
103.81992295384407
20
243.43451380729675
30
0
10
104.09342183518577
20
243.42534566926724
30
0
10
104.67080482230342
20
243.40599082987688
30
0
10
105.23954662376916
20
243.30401265221701
30
0
10
105.53888276219368
20
243.25034022331238
30
0
0
LINE
5
420
100
AcDbEntity
8
0
100
AcDbLine
10
105.53888276219368
20
243.25034022331235
30
0
11
105.26262238621712
21
241.64392828941345
31
0
0
SPLINE
5
421
100
AcDbEntity
8
0
100
AcDbSpline
70
0
71
3
72
9
73
5
74
0
42
0.000000001
43
0.0000000001
44
0.0000000001
40
0
40
0
40
0
40
0
40
0.056288836029413848
40
0.10904519621430547
40
0.10904519621430547
40
0.10904519621430547
40
0.10904519621430547
10
105.26262238621712
20
241.64392828941345
30
0
10
105.07714013732524
20
241.67376351150682
30
0
10
104.71781580853443
20
241.73156160926052
30
0
10
104.35404165180456
20
241.74145941951195
30
0
10
104.17804673314095
20
241.74624800682068
30
0
0
SPLINE
5
422
100
AcDbEntity
8
0
100
AcDbSpline
70
0
71
3
72
9
73
5
74
0
42
0.000000001
43
0.0000000001
44
0.0000000001
40
0
40
0
40
0
40
0
40
0.072181209052325918
40
0.12637224763265187
40
0.12637224763265187
40
0.12637224763265187
40
0.12637224763265187
10
104.17804673314095
20
241.74624800682068
30
0
10
103.93079771086792
20
241.74193818010707
30
0
10
103.49792307382815
20
241.7343926915255
30
0
10
103.14323809494822
20
241.49205039477118
30
0
10
102.99114182591438
20
241.38812899589539
30
0
0
SPLINE
5
423
100
AcDbEntity
8
0
100
AcDbSpline
70
0
71
3
72
9
73
5
74
0
42
0.000000001
43
0.0000000001
44
0.0000000001
40
0
40
0
40
0
40
0
40
0.057656893859960277
40
0.14073594550248297
40
0.14073594550248297
40
0.14073594550248297
40
0.14073594550248297
10
102.99114182591438
20
241.38812899589539
30
0
10
102.89047979598953
20
241.22078761542386
30
0
10
102.64477169398731
20
240.81232046040247
30
0
10
102.6438214534659
20
240.331551431066
30
0
10
102.64326050877571
20
240.04774451255798
30
0
0
LWPOLYLINE
5
424
100
AcDbEntity
8
0
100
AcDbPolyline
90
11
70
1
43
0.0
10
54.993176013231277
20
208.35948348045349
10
54.993176013231277
20
204.76807951927185
10
53.151430636644363
20
204.76807951927185
10
53.151430636644363
20
208.35948348045349
10
46.64392426609993
20
208.35948348045349
10
46.64392426609993
20
210.04775404930115
10
53.489083796739578
20
219.76807951927185
10
54.993176013231277
20
219.76807951927185
10
54.993176013231277
20
210.04775404930115
10
57.019094973802567
20
210.04775404930115
10
57.019094973802567
20
208.35948348045349
0
SPLINE
5
425
100
AcDbEntity
8
0
100
AcDbSpline
70
0
71
3
72
9
73
5
74
0
42
0.000000001
43
0.0000000001
44
0.0000000001
40
0
40
0
40
0
40
0
40
0.16172902191963806
40
0.30891506379877426
40
0.30891506379877426
40
0.30891506379877426
40
0.30891506379877426
10
75.047745257616043
20
204.51228499412537
30
0
10
74.49771579831949
20
204.54476301287445
30
0
10
73.447116570716275
20
204.60679856539838
30
0
10
72.583875449900887
20
205.20460003169183
30
0
10
72.172574549913406
20
205.48942923545837
30
0
0
SPLINE
5
426
100
AcDbEntity
8
0
100
AcDbSpline
70
0
71
3
72
9
73
5
74
0
42
0.000000001
43
0.0000000001
44
0.0000000001
40
0
40
0
40
0
40
0
40
0.14759831058871162
40
0.3110356389492277
40
0.3110356389492277
40
0.3110356389492277
40
0.3110356389492277
10
72.172574549913406
20
205.48942923545837
30
0
10
71.836363306895592
20
205.86191772007777
30
0
10
71.127861438704457
20
206.64686704200903
30
0
10
70.934040383867767
20
207.6890635307571
30
0
10
70.832194834947586
20
208.23669791221619
30
0
0
LINE
5
427
100
AcDbEntity
8
0
100
AcDbLine
10
70.832194834947586
20
208.23669791221619
30
0
11
72.602319270372391
21
208.40041518211365
31
0
0
SPLINE
5
428
100
AcDbEntity
8
0
100
AcDbSpline
70
0
71
3
72
9
73
5
74
0
42
0.000000001
43
0.0000000001
44
0.0000000001
40
0
40
0
40
0
40
0
40
0.11255821119972388
40
0.203225780664606
40
0.203225780664606
40
0.203225780664606
40
0.203225780664606
10
72.602319270372391
20
208.40041518211365
30
0
10
72.680711083298775
20
208.02616777985108
30
0
10
72.822248845936159
20
207.35045767682226
30
0
10
73.264494697191452
20
206.82416178227118
30
0
10
73.461799174547195
20
206.58935904502869
30
0
0
SPLINE
5
429
100
AcDbEntity
8
0
100
AcDbSpline
70
0
71
3
72
9
73
5
74
0
42
0.000000001
43
0.0000000001
44
0.0000000001
40
0
40
0
40
0
40
0
40
0.083796614668020991
40
0.17518276141196593
40
0.17518276141196593
40
0.17518276141196593
40
0.17518276141196593
10
73.461799174547195
20
206.58935904502869
30
0
10
73.694806117595846
20
206.42530576229797
30
0
10
74.181923644635972
20
206.0823407487193
30
0
10
74.777820407979505
20
206.04571277875169
30
0
10
75.088676959276199
20
206.02660536766052
30
0
0
SPLINE
5
430
100
AcDbEntity
8
0
100
AcDbSpline
70
0
71
3
72
9
73
5
74
0
42
0.000000001
43
0.0000000001
44
0.0000000001
40
0
40
0
40
0
40
0
40
0.080271566655142637
40
0.15535892820808589
40
0.15535892820808589
40
0.15535892820808589
40
0.15535892820808589
10
75.088676959276199
20
206.02660536766052
30
0
10
75.359197386768969
20
206.04052910098761
30
0
10
75.882767131635489
20
206.06747732657351
30
0
10
76.351077956802172
20
206.30204717015616
30
0
10
76.57741978764534
20
206.41541838645935
30
0
0
SPLINE
5
431
100
AcDbEntity
8
0
100
AcDbSpline
70
0
71
3
72
9
73
5
74
0
42
0.000000001
43
0.0000000001
44
0.0000000001
40
0
40
0
40
0
40
0
40
0.073811401268399995
40
0.14861554393474607
40
0.14861554393474607
40
0.14861554393474607
40
0.14861554393474607
10
76.57741978764534
20
206.41541838645935
30
0
10
76.781441847655557
20
206.55661012376268
30
0
10
77.19223000371359
20
206.8408925852502
30
0
10
77.480893742410885
20
207.24869628191897
30
0
10
77.626189738512039
20
207.45396018028259
30
0
0
SPLINE
5
432
100
AcDbEntity
8
0
100
AcDbSpline
70
0
71
3
72
9
73
5
74
0
42
0.000000001
43
0.0000000001
44
0.0000000001
40
0
40
0
40
0
40
0
40
0.085112695975876909
40
0.18895385628655539
40
0.18895385628655539
40
0.18895385628655539
40
0.18895385628655539
10
77.626189738512039
20
207.45396018028259
30
0
10
77.760715089323597
20
207.70481036869626
30
0
10
78.059367170692866
20
208.26170860705548
30
0
10
78.222227653703229
20
208.87286460633604
30
0
10
78.311728984117508
20
209.20873045921326
30
0
0
SPLINE
5
433
100
AcDbEntity
8
0
100
AcDbSpline
70
0
71
3
72
9
73
5
74
0
42
0.000000001
43
0.0000000001
44
0.0000000001
40
0
40
0
40
0
40
0
40
0.11343668762072663
40
0.22722054543217218
40
0.22722054543217218
40
0.22722054543217218
40
0.22722054543217218
10
78.311728984117508
20
209.20873045921326
30
0
10
78.392304477902428
20
209.57907802675052
30
0
10
78.553702064787998
20
210.32090660144107
30
0
10
78.576551803204026
20
211.07975219079754
30
0
10
78.587994128465652
20
211.45975470542908
30
0
0
SPLINE
5
434
100
AcDbEntity
8
0
100
AcDbSpline
70
0
71
3
72
9
73
5
74
0
42
0.000000001
43
0.0000000001
44
0.0000000001
40
0
40
0
40
0
40
0
40
0.015350562320626811
40
0.036851508513993353
40
0.036851508513993353
40
0.036851508513993353
40
0.036851508513993353
10
78.587994128465652
20
211.45975470542908
30
0
10
78.587345261549103
20
211.51092147190073
30
0
10
78.585787551531681
20
211.6337555734066
30
0
10
78.580718646532404
20
211.75649772381109
30
0
10
78.577761203050613
20
211.82811141014099
30
0
0
SPLINE
5
435
100
AcDbEntity
8
0
100
AcDbSpline
70
0
71
3
72
9
73
5
74
0
42
0.000000001
43
0.0000000001
44
0.0000000001
40
0
40
0
40
0
40
0
40
0.10305612528189205
40
0.20934403928712969
40
0.20934403928712969
40
0.20934403928712969
40
0.20934403928712969
10
78.577761203050613
20
211.82811141014099
30
0
10
78.37435275102311
20
211.54729154812713
30
0
10
77.961157059295914
20
210.97684545319362
30
0
10
77.369133859531729
20
210.59475242751211
30
0
10
77.068552523851395
20
210.40075659751892
30
0
0
SPLINE
5
436
100
AcDbEntity
8
0
100
AcDbSpline
70
0
71
3
72
9
73
5
74
0
42
0.000000001
43
0.0000000001
44
0.0000000001
40
0
40
0
40
0
40
0
40
0.10776103991635951
40
0.21619114844643011
40
0.21619114844643011
40
0.21619114844643011
40
0.21619114844643011
10
77.068552523851395
20
210.40075659751892
30
0
10
76.742476145920989
20
210.24109605794683
30
0
10
76.088298841389232
20
209.92078367567535
30
0
10
75.361239914004955
20
209.87587258212756
30
0
10
74.99658539891243
20
209.85334753990173
30
0
0
SPLINE
5
437
100
AcDbEntity
8
0
100
AcDbSpline
70
0
71
3
72
9
73
5
74
0
42
0.000000001
43
0.0000000001
44
0.0000000001
40
0
40
0
40
0
40
0
40
0.17518121053514332
40
0.35062512928453105
40
0.35062512928453105
40
0.35062512928453105
40
0.35062512928453105
10
74.99658539891243
20
209.85334753990173
30
0
10
74.399561642916296
20
209.90978915343007
30
0
10
73.204618812046391
20
210.02275702241525
30
0
10
72.298535443837835
20
210.81002917135916
30
0
10
71.845154315233231
20
211.20396018028259
30
0
0
SPLINE
5
438
100
AcDbEntity
8
0
100
AcDbSpline
70
0
71
3
72
9
73
5
74
0
42
0.000000001
43
0.0000000001
44
0.0000000001
40
0
40
0
40
0
40
0
40
0.1840019021965216
40
0.38611084146679625
40
0.38611084146679625
40
0.38611084146679625
40
0.38611084146679625
10
71.845154315233231
20
211.20396018028259
30
0
10
71.469356969269001
20
211.70585380352517
30
0
10
70.680781265762064
20
212.75903079182626
30
0
10
70.598831104949497
20
214.07554397157213
30
0
10
70.555934458971024
20
214.7646701335907
30
0
0
SPLINE
5
439
100
AcDbEntity
8
0
100
AcDbSpline
70
0
71
3
72
9
73
5
74
0
42
0.000000001
43
0.0000000001
44
0.0000000001
40
0
40
0
40
0
40
0
40
0.20864669057325214
40
0.39900446984750032
40
0.39900446984750032
40
0.39900446984750032
40
0.39900446984750032
10
70.555934458971024
20
214.7646701335907
30
0
10
70.600977979452779
20
215.4763364503718
30
0
10
70.687116733729255
20
216.83728802192758
30
0
10
71.509220076424015
20
217.9209414014901
30
0
10
71.901430636644363
20
218.43793272972107
30
0
0
SPLINE
5
440
100
AcDbEntity
8
0
100
AcDbSpline
70
0
71
3
72
9
73
5
74
0
42
0.000000001
43
0.0000000001
44
0.0000000001
40
0
40
0
40
0
40
0
40
0.18401807670638498
40
0.37283229429331971
40
0.37283229429331971
40
0.37283229429331971
40
0.37283229429331971
10
71.901430636644363
20
218.43793272972107
30
0
10
72.382523045392077
20
218.84377890160215
30
0
10
73.357246777597481
20
219.66604898561155
30
0
10
74.628863233503395
20
219.77453268348867
30
0
10
75.272850543260574
20
219.8294723033905
30
0
0
SPLINE
5
441
100
AcDbEntity
8
0
100
AcDbSpline
70
0
71
3
72
9
73
5
74
0
42
0.000000001
43
0.0000000001
44
0.0000000001
40
0
40
0
40
0
40
0
40
0.14142775909675634
40
0.2819684559074298
40
0.2819684559074298
40
0.2819684559074298
40
0.2819684559074298
10
75.272850543260574
20
219.8294723033905
30
0
10
75.749487228878706
20
219.79705870336318
30
0
10
76.699771042543858
20
219.73243480768338
30
0
10
77.533129771952204
20
219.27140370056836
30
0
10
77.948498278856277
20
219.04161334037781
30
0
0
SPLINE
5
442
100
AcDbEntity
8
0
100
AcDbSpline
70
0
71
3
72
9
73
5
74
0
42
0.000000001
43
0.0000000001
44
0.0000000001
40
0
40
0
40
0
40
0
40
0.14319934668196391
40
0.29373582848709567
40
0.29373582848709567
40
0.29373582848709567
40
0.29373582848709567
10
77.948498278856277
20
219.04161334037781
30
0
10
78.330821880023265
20
218.74526152640294
30
0
10
79.115058277332864
20
218.13737365806725
30
0
10
79.561464978419309
20
217.2503141179379
30
0
10
79.790243655443192
20
216.79570555686951
30
0
0
SPLINE
5
443
100
AcDbEntity
8
0
100
AcDbSpline
70
0
71
3
72
9
73
5
74
0
42
0.000000001
43
0.0000000001
44
0.0000000001
40
0
40
0
40
0
40
0
40
0.18455540893604475
40
0.42871034106232975
40
0.42871034106232975
40
0.42871034106232975
40
0.42871034106232975
10
79.790243655443192
20
216.79570555686951
30
0
10
79.97288781143601
20
216.20510270647316
30
0
10
80.397158434877113
20
214.83317028311325
30
0
10
80.411397363744612
20
213.39442108330167
30
0
10
80.419506579637527
20
212.57503867149353
30
0
0
SPLINE
5
444
100
AcDbEntity
8
0
100
AcDbSpline
70
0
71
3
72
9
73
5
74
0
42
0.000000001
43
0.0000000001
44
0.0000000001
40
0
40
0
40
0
40
0
40
0.25869929742461589
40
0.46376442657268258
40
0.46376442657268258
40
0.46376442657268258
40
0.46376442657268258
10
80.419506579637527
20
212.57503867149353
30
0
10
80.407891388528526
20
211.7083652053463
30
0
10
80.387069096014315
20
210.15469912640901
30
0
10
79.976779848971248
20
208.65803553372081
30
0
10
79.795360118150711
20
207.99624800682068
30
0
0
SPLINE
5
445
100
AcDbEntity
8
0
100
AcDbSpline
70
0
71
3
72
9
73
5
74
0
42
0.000000001
43
0.0000000001
44
0.0000000001
40
0
40
0
40
0
40
0
40
0.16892239314517435
40
0.32267035162739177
40
0.32267035162739177
40
0.32267035162739177
40
0.32267035162739177
10
79.795360118150711
20
207.99624800682068
30
0
10
79.572443764664285
20
207.47009380715036
30
0
10
79.146635813310269
20
206.46505026344482
30
0
10
78.328226207910376
20
205.74537123721228
30
0
10
77.938265353441238
20
205.40245413780212
30
0
0
SPLINE
5
446
100
AcDbEntity
8
0
100
AcDbSpline
70
0
71
3
72
9
73
5
74
0
42
0.000000001
43
0.0000000001
44
0.0000000001
40
0
40
0
40
0
40
0
40
0.14963071820560439
40
0.30636003798241729
40
0.30636003798241729
40
0.30636003798241729
40
0.30636003798241729
10
77.938265353441238
20
205.40245413780212
30
0
10
77.503458917014129
20
205.14285922143449
30
0
10
76.613218477241759
20
204.61135399715872
30
0
10
75.577568603218211
20
204.5458141979307
30
0
10
75.047745257616043
20
204.51228499412537
30
0
0
ENDSEC
0
SECTION
2
OBJECTS
0
DICTIONARY
5
C
100
AcDbDictionary
3
ACAD_GROUP
350
D
3
ACAD_MLINESTYLE
350
17
0
DICTIONARY
5
D
100
AcDbDictionary
0
DICTIONARY
5
1A
330
C
100
AcDbDictionary
0
DICTIONARY
5
17
100
AcDbDictionary
0
ENDSEC
0
EOF
